<mxfile host="app.diagrams.net" modified="2023-08-21T16:41:16.335Z" agent="Mozilla/5.0 (Macintosh; Intel Mac OS X 10_15_7) AppleWebKit/537.36 (KHTML, like Gecko) Chrome/115.0.0.0 Safari/537.36" etag="G6Fil-vr03UYvc6Gnb2v" version="21.3.8" type="device">
  <diagram name="Page-1" id="ecVw9loHQynXMzR5HxYr">
    <mxGraphModel dx="1306" dy="830" grid="1" gridSize="10" guides="1" tooltips="1" connect="1" arrows="1" fold="1" page="1" pageScale="1" pageWidth="1169" pageHeight="827" math="0" shadow="0">
      <root>
        <mxCell id="0" />
        <mxCell id="1" parent="0" />
        <mxCell id="2PFUA68c3KtspT4KJn6I-96" value="" style="rounded=1;whiteSpace=wrap;html=1;" vertex="1" parent="1">
          <mxGeometry x="395.14" y="90" width="199" height="530" as="geometry" />
        </mxCell>
        <mxCell id="2PFUA68c3KtspT4KJn6I-95" style="edgeStyle=orthogonalEdgeStyle;rounded=0;orthogonalLoop=1;jettySize=auto;html=1;exitX=1;exitY=0.5;exitDx=0;exitDy=0;entryX=0;entryY=0.5;entryDx=0;entryDy=0;" edge="1" parent="1" source="2PFUA68c3KtspT4KJn6I-94" target="2PFUA68c3KtspT4KJn6I-92">
          <mxGeometry relative="1" as="geometry" />
        </mxCell>
        <mxCell id="2PFUA68c3KtspT4KJn6I-94" value="" style="rounded=1;whiteSpace=wrap;html=1;" vertex="1" parent="1">
          <mxGeometry x="638.9" y="90" width="180" height="530" as="geometry" />
        </mxCell>
        <mxCell id="2PFUA68c3KtspT4KJn6I-92" value="" style="rounded=1;whiteSpace=wrap;html=1;" vertex="1" parent="1">
          <mxGeometry x="853.9" y="85" width="210" height="540" as="geometry" />
        </mxCell>
        <mxCell id="2PFUA68c3KtspT4KJn6I-38" style="edgeStyle=orthogonalEdgeStyle;rounded=0;orthogonalLoop=1;jettySize=auto;html=1;entryX=0.5;entryY=0;entryDx=0;entryDy=0;" edge="1" parent="1" source="2PFUA68c3KtspT4KJn6I-2" target="2PFUA68c3KtspT4KJn6I-3">
          <mxGeometry relative="1" as="geometry" />
        </mxCell>
        <mxCell id="2PFUA68c3KtspT4KJn6I-2" value="" style="shape=image;verticalLabelPosition=bottom;labelBackgroundColor=default;verticalAlign=top;aspect=fixed;imageAspect=0;image=https://w7.pngwing.com/pngs/399/47/png-transparent-kaggle-predictive-modelling-data-science-business-predictive-analytics-%E6%95%B0%E6%8D%AE-blue-text-laboratory-thumbnail.png;" vertex="1" parent="1">
          <mxGeometry x="39.99999999999999" y="200" width="87.8" height="40" as="geometry" />
        </mxCell>
        <mxCell id="2PFUA68c3KtspT4KJn6I-37" style="edgeStyle=orthogonalEdgeStyle;rounded=0;orthogonalLoop=1;jettySize=auto;html=1;entryX=0;entryY=0.5;entryDx=0;entryDy=0;" edge="1" parent="1" source="2PFUA68c3KtspT4KJn6I-3" target="2PFUA68c3KtspT4KJn6I-6">
          <mxGeometry relative="1" as="geometry" />
        </mxCell>
        <mxCell id="2PFUA68c3KtspT4KJn6I-3" value="" style="shape=image;verticalLabelPosition=bottom;labelBackgroundColor=default;verticalAlign=top;aspect=fixed;imageAspect=0;image=data:image/png,iVBORw0KGgoAAAANSUhEUgAAAOEAAADhCAMAAAAJbSJIAAAAbFBMVEX///8AAAAeHh709PSpqamamprIyMh0dHTc3NxWVlbFxcV5eXnl5eXf399GRkadnZ1RUVHt7e1gYGC5ubmkpKRoaGg2NjYsLCyOjo7S0tKIiIhdXV0hISFKSkrx8fF+fn6ysrIwMDCTk5MODg6fSzktAAADFklEQVR4nO3d3XKiMACGYRUrK1ZcULHQ/3r/97idGmixzJKuCfFj3+esTJzknWpI6YGTCQAAAAAAADC0bJ4fZvpe83nW2bfeT8djv/4euAm9KMduzgPj0CtyLm4HPodejwfPXwO3oVfjxfYzMJqFXowXs6gp3NXX8iSL1GVJXufMm8KDubKdjEP9oTvUFzJzYRdyVU7Vb8r6zl8nB12UW2dvyvnpx/ivr9EStz+IpvDbKUDYDYXyKNRHoT4K9VGoj0J9FOqjUB+F+ijUR6E+CvVRqI9CfRTqo1Afhfoo1EehPgr1UaiPQn0U6qNQH4X6KNRHoT4K9VGoj0J9FOqjUB+F+ijUR6E+CvVRqI9CfRTqo1Afhfoo1EehPgr1UaiPQn0U6qNQH4X6KNRHoT4K9VGoj0J9FOqjUF934SbomtzadBauysVYlKvOwhGiUB+F+v67wnQVj8Uq7Swc/x1//Kc2Ci+2W/4+WXr/psUwhc2XZ77LPc8VpDBp7eMLv5MFKWx/abTnjTtIYftcMe9/wSW6C9/8Thq1CqP+F1zirbNw73fSSVk0fUXpea59u7DeAzzPOpmsa95nMkWJ+bF+/9x5n3god+efhXSYDW4wZp+Zps2Vl/rzke7KX+rKXf0Lm758Rr9Ox+j1y691EXoxXrTOTZv+8XLOdpW30Otx7tsBZtv/Ginb88D3u2IVelEOVd2nwiip8qUb92am1GJsvbnfO5o7rxLPp94PZtWZxdDMjPW+JqfKn6zajPV9GnfLnJKWVoOXp8EvXlfkWnxatN1Z3typYs9rcsv8KdixZXcwN6rC85qcyo72G02z1RztRl8Hs9E82O3a0YPeVmOei9g+FTVPUj0/nXLKbDSV5fBKb6t5PC3Z9rGv+ePt0euaLrKuVi2x2Wj2Kzvmydgxbl+u/D+xstR+Xu9S0j/5EKKDt8LDEEfofrfeAqfT29BxHyikUKawWCTuLIorLEz7R/5ASuGQmsLInassHP9OQyGFV1z4dPQWeHwKHXdy07/Uf3Q1/3bfFjMfCruHkQAAAAAAAMBV+AMDfVRD7/hiMgAAAABJRU5ErkJggg==;" vertex="1" parent="1">
          <mxGeometry x="53.9" y="300" width="60" height="60" as="geometry" />
        </mxCell>
        <mxCell id="2PFUA68c3KtspT4KJn6I-6" value="" style="rounded=0;whiteSpace=wrap;html=1;" vertex="1" parent="1">
          <mxGeometry x="173.9" y="300" width="160" height="60" as="geometry" />
        </mxCell>
        <mxCell id="2PFUA68c3KtspT4KJn6I-7" value="" style="shape=image;verticalLabelPosition=bottom;labelBackgroundColor=default;verticalAlign=top;aspect=fixed;imageAspect=0;image=data:image/png,iVBORw0KGgoAAAANSUhEUgAAAQsAAAC9CAMAAACTb6i8AAAAwFBMVEX///8Abbjm5eXn5ubl5OTk4+P8/Pzq6en09PTy8fH39/fv7u7s6+v6+vr19fUAW7EAarcAZ7YAZbUAYrQAXLEAWLDZ5Onr9vsAY7UAX7PT3+fw7OllkMeBoc4hc7q1wtvHzuDY3u0seb3m8vnI2uyUtNd4o9Cfuda+y+O3yt2sxeFUjcWIqs/u8/htm8o/f78ATKt3mMpYhcLa5fK90+gAS6u0zOQAUq0ARKmUsNTO1efg4+3N2+bh6vVmlsqEqdOAEZv4AAAaMElEQVR4nO09CXviuq4mSbMSslGG1DN0ulBaKHBu6WNeZwr8/3/1vCbOBlmh593x951TD7YcWZYtWZZsAFCyJFmycEaWZWmA/tqSLCsqyhgoo+ESDZUYOKOgjI3+DlCJnADGJSYHBgy4z4F19FdVWLM6B+6LzWJgkwPjZvsiThFwhFM/jRMGlhI4SVVwAn9p8ZcWhbRQJIVUkCRJId+9kqQrAopKKC1QhnwXl2BQU0GVCUaoxGIlCvmuCEy7g0p03iz5LgKWOXDULOkOB66Kk81wUjjwKZyUDE7AQkk3TXOAM+ivaaC/Bs7wEpOX6IVVikuyzSaqDCoCJ3A6DlyiWT2JEyE7oZwSU05KjiamdnI0pXhAFD4gdDQlBhyNJh8q3CwdTQ6sCMASB7Z4SQ2cpAgnMxcnWcRJzcFJbn2WJ1eezCz/wiuPyBfsu+XHQBxapXgMeLN8DLLAxXyRxEkrh5N5Gic1B6c+SgPbtk2cQX9tA/21cMZCGZ2XmCijiyUGzvCSgQgclSSAjTRwotkscCOcBmmcrFycUsCAUC5asxXpqqwcuZIUQnZRjlyVXrMlpbQcKYcTB87IkfI4gcRE/atf/KVFQtdSKOOgv4wfUYaAogzjR+WK8iPK0Dmi8DmiMH5EJZQfBWDGj8qVzpsl30UZNkeEZm3W7FUCJ6kGTtZRnDQRJxDjhMku8wEhlDHkmHIy6QEuIbXleEBkQyS7KfMBQRnOYTLnMAJspIFJs4TDZM5hHFhiONmNcJIq4xTpF0rMRTFzFnC2FDOnwpnzNGdz+ZUFTsvUQpyOzDax2cqzjQJ/CV2rj6sCezAYqLzKpXWtOjuqlA5+bEeV0sHjHZX88j/XQvqfn/JlcNJRMnDiGT03c7wkv0rJZg3dfA96QvJ/mxfBCTDKZXdUxaNJ+GsgaM6p/XH1Xd5jghbj3zVwSmvzStld3lWEE+Az6qL6RR4tLq1rYYhoxWOgBav/QEl/ly/gORJJytJCElf/o7SQZKWsRKqAk5bFCagoGVpfs3AGbVE0Hf01NZSxWUmflKCMgf7auMREmQHKkBKLlai4ZMCBk81qtFmbN6vzZilwlhaVcFJFnDTerFUZJ6JqJjUzpYy2qDTRFpWUtii/JNfOn3I9nKyGOH0F/UJL00K7jH7xlxYx8CXmSHpH9VXmCF1QNLbUoESXGpR4CVunNLZOoUTXKVbFEoHNNLDFgek6hRJdpzS+dmqFa6fQbARcB6dMh4pwAsWczZizSKZmZHkl+VVBplbY5TWUqfm0OLeude0LybmortVIB8+cUR3Vd6/ydPDl8y1KzzjhzLIGTkkdXKmlg3e4N4szp9LARNt1fAxmkszgDDjl7c1KnJs13R+PvqH0MEIJZ0ayNHogGfbDw5WkjfgPpKQxTuZJnHI5rHv9Ar79wlYJx3GIdcLtazP+A/1F1l7+uRaq/HNxXaszGx/87opS4h5qM0/8wUW0GOfrWo1sfEoZWkgpG5/Mzbek0aydFZfk21kzwFk7q5yihXvfhzM/QQsNZvXOuFm1NZw4sJ1pNgLu/EwgRQsA5klaFNhyCrVFZfQCj+NU80yAc1GH+kU9WhRzNlw4Bzaa/7pzs5ZpYc6Dnn+/6dxHqZOz5ZpzpAinZYiB/G3u2TKfIzXOlq+KfQ7U3PP9vlroc6CKwML5vpGihQFTcqRvpddO6whO+hOFdqbgNE52AU75Pgfd+6Jk5IiWkiNy1n5R7Isi/xmyauG0EKeavihn0LVStIAlaFGME1xFrTmzM5ybteu7lqaFltYvsrTIOTfjOGmCWuZvCnAq4bvGmxV18GIXQEN0ARxkXQDL+g+aKb1T11PrhWGkz82MQpx0kY6uVwmnUx0CfNnt0Nf1jWw9cBqi/3pIjvxieWeI/n+N5Mg/jhPX+fX7CE4LkbDeSuU4VfZ1ze7yQP4sb1W/+HaD0ugBJZzZIak4whn+ww36gZagH3Y4YxfOcgB6iTTciDh1o2sJm6IsLZTTtEh7kGhkiwBkTSMwJvqBNGuhjMFLMEY2r2IIOxuBFjsnQQv3u4hTlhaVbG0dzJHIUkEziC8iwwT/ITZm4IT4IqpCStR0lWWEU1Ir6/WCZd05kuPHlz0TaORldaVoTmSqQH9//QfCN/GHa1eTp7+47YL8leSXfxyhyj8/Ze1/HaHKr4PGdlTw1UvSwvuAMU4FZwJXx84EZDrSpEOt6xdakol/wDr2i35iKnivkOGUoYW7gFn7xZc5N9MSPffStCinaxXS4keKFj1fh2QDb0Go6Q1pIbXtrVuDFtlzswwtGE5wn2gdV35dLe4nKC1WHy/fCnAquRqeDtyweEm5qA87RQs1vU9V1dQ+1bTT+1TVTNJiqrL21fQcQYWuS9p3XW88vJ8t1RqRKDSYBFAuqh71IfooJb37k5j+qLVnV6+TtIhwmmZokUiuH87zcCoVcQD4jGpP1+qMFnj+J0HzUrB4aKZr/Wv4YjfsnUqu81CTL9BMsckkslEG/e3rtmmbfZThJRYrIVVoCaqi91lJBIxLsAXmFC2y64VaYr1gOA1O8gXWRRM4FXcoLiEduoAc0dJyRCovR+SsIMkk50YpjEQ5Lkda1y/6XeoXmvacUMtykvsdVvcH70rXSmLWrt6pSfopvnA+W/RRarofGVLTBE3XfD/CjBNDx0Vz5NfQESrR/chwyE0cv6L9CAO5xvsRhpN8QpJ4B1h7P8Ip155M3XHjBLFSfGP2ix03VzygHxJVRtx+8cDtFyre7Io2D7JPZeO8O84YbgKnS9kv+HfV2AShyfSwD2VIVEQl+4XGT0Gp8QM1C+Fyuz4uVJ1R7viUOqVuiy+W35ImiKTLRcJ+UVjykC5JVHm4nf1Yh8Fxrgi3sClfVIz6yLHlzH/F/hSiccJJeFpUqJIpcXzfO7Fuuv4WNrF3Ehcd7BaEM9g/yBAzUcmJKubqpNjvPvn3D3YK7eIODbJVWjofgYtL08L13ZkpsoLoo5Q9H+nQRwmuL0kL1/WvFzNLa8GuVTfqQzBAwwtRIQhDz/cX+/k3Qzvto3QqEoWcs2Mv4T6PsMCHzyxwo5+MsOjzkBF8LM3CM/rE+XgwuQgpwrs/f9BuC/cvg1Nxh+JIlGSHmBwp9FFSiqM+Ej5KFyEF2uzouTgd8VFSUj5Kavs+ShehRfgpf0UfpfsLrJ3uGn7J2P7TZoX20/BRbu7HJ84RDen/ZKkhOwJVBSTCAqBMFGGBS6KoD1xCoj5w5InMgS+hX7hvgOKk5eNEdjZihzSxQ1EkCu8qWjtbkqmZM5zuU3gH2vf7bUHXSpmqzpHcNTiOUyc+SkVRH4IOLj+fnRbDz2Kc8uMETurguREWeiJTokR/uD6NfavJ+6GextYoWUIzIEG5CnFFaf+LUybZ1mmxzI8rSu7Zy8UVte2j9HZeQRLMz+YPXj0OMXvo22XCp2+5t80U+SiVikPEKoUlxxJYHoBYAmOrYySB5Uh820AFAzkW7Ngw+RiekxbjB3AUJ2IsRRmibKASM7dDegSMftDltuKWJfmcgiSYwbbjltv0UUqdCHWa3AWQyuB0qXMz7fZ8jOEvwZeO7Zess2kYwWNbsf0p6wwOrKCWHx5hodoqD9yIS6jlh4dnoCo8cCMqAefangVTWBYnlVrt8jrEuyoAg4QIkkSLIBdBhfflSEn59XIeSeLvoVQc2y9lZGrp2P42fZSss9g8vbUYhtmFrtXsfi1GyHPsVZGSpZe6X+vULcp5Pko4pp4cG5ksI54smXqixEwfPpkJYPMMC0a4NDNfPoZTukNGbofoIVq8Z290wzkl+yw43ZmGpPjUjuBkpZmkdGx/Bz5KHVPCHX/Cc9+jVCWOPvHdbjcl7v0OVsfpYveDf+9wt+rdqyR4srv7wUntq2ZnAlHghrLsjhb+ui9XuO/3quSZQHex/ep7V7MkfDIKOPvLnZtFE/XQjbHP2YIMTl/q/ZHc2P63DqaJ5+7OcW98YciInf/+iJ33hMhALGn/aDXcD4x6OIkhI8XA1NvdbE+O8HhpuW1ieN67WRGnEjHcKkjuMDqK7VfvW5wm7vBJ/de9PyKMgXrf2i4txBegVMapBl+Isf213yvKCT6z9VU7otUPtiZfDKyKOFXpkNVBbD9fs2U4d5ovGr4/K49TYdzyF3h/ZDdpNk/coDfTS83yr6trxd+dhvVZwwvfni2Yje0/Ay3a2o8kdf/lPqwlUNyxe9gN5AbvjxTjdHQ/kpUjFXygC+QI4OJpt6pMDS8Mvm8NKNfGqeX3zWrbL7Kzbfk6ORHmIDKEN5z8eLQ7wOlC8WZJWqjQeFlNQv8UPVwvCLzF7MYUm73Y+yMt2DvzpbMMwWa+d53A89wMSVzX88bDcPL98P5gQk2qHvWRY+88jVO+vZNoI8Q4zDLkDiL0lypRYolBNBihSqLEtNLAQrO6Odg9Tv+zXuPYuiAYj8c+DrW77q3Xr9PnDQ7I12Pg9nDKAGdKqB2cVAGJ1aVEDHfx+cjpu48BhNbo27e7u98/f//EAVTA5LdWNHplsq3zkdxZ3uGd2OQBKZM4jYB2VryOdK1G56nFZ5dZr1klz2u2ZtTH0fNUqcp5at7hs33qnN0uPNO284ATzeYCZ258bBOnXOAcnI7H9l+lbrhs/UVHqi1mbgJVKty6KeBkNcSp+3sa/z0vK/6lRQzccmx/kxcdm74y2diPTxXdIZl/J40qVwFxh5SpOyQJPFdBRV9KCqxRX8oYWOfArNkUMGiAk1wSp34WJ1DM2Yw5q7w/ct7b3lv3+82nRXe6VvuzvOtzs2pxAmV18DKRKFV2VG3HCeQGVVR6uwNta+xMjEatZk3TNmsDF5aUBm4eVwTee+HbSC4azeMclthRma9h+NQKh10otl97HPZ6bk9rQb94DXu94AlcVNdqFIeofWCLZvh47Lu82ROrPzWNgmoeqrmxkTXjEMVXyaKgTRwKD/JfJQPRq2Q09gKS2wL9277MSwgwf1jM1vJjQSlw/CoZLiEO5ROg5uMUAfMQ02KcCjokvpSWG59KZ1SDMwFKi+eCOPoKXvYDcqfWRJOaa7CXiu2PaNFwlksmo8UXseX8pUWz+y/OP0dO41RzjvQzL88K14hkXsPN3ovC106YD1x0B0nOC73R2pnzGm41nNjaWQRceC9KY5nKaKEdsVLyZk9YKRktupOppyynTXUtmKFFbV1LpMVlz81q3q8V0SKp79bRwWNaNMSprg6ejrAode+aTp5z1HGVwdQntNBTwLhK4aVt9AdSReclOqBrp5n5MjvtEoB1/Hpk3H78ZXZ2prMa+G/5i+QAo1z5/bEM4bfd+/vvGw2SkliORKPJq4z69E73nB2VBo1vd9v3u9EAstHMyBF+Pbo2+6MmcJKhMdrg5jUoJ8zxtnb7Se8mlGF/hJrfjQwolT6ZBfmzvFi/gJ9P99fD8XgcOuvZEuToF0B7WU2uQ1TF8RbzZd4st+XpwnGC8Thwevt3OsuL9IvXa//6NQH8++A6qPlgGC5m0bX5mBaPjj98wz8s57T5cOgtfgLQTNcSFvAkLTaLMLot0fWc1TJLi7kbe1y44/CQ/a79MY6dENxw/U5oMcijxYa4R14/xsDP97F/i+sFBxBLJLzgBHOwPISJ5u1K93fKqXdPyHMqeXzxNEx6DXjhfMZpQXW85Vsq0Mp3N1EEDG323U26tbnDhYpfg0zTAk2AKf2et2I4AXuR8gLzho/ky6jDd/jL3tOjl/QFCqYcOJcveFcRLSqcCQy0HN+84J50+JbGduifOXdsDrdA2FEZBydTw3V3QJAjXFt8vGdBB96HRnH6dLM+T2QGIQ1W/klrp2u4a9h+bP8ycvR23ZRXCdcvtlE/xSrOk8BhhyCniuuCrH6x4kzoBSOK00aYfXHz5NG3vqz9ToZr8ObdBWz93Gw5YV/3vfvVajUZCgPAaMHvJXZDd71aLVzeGcQZ/LuvIa/S269WbwHD39mkaAFiVh+uljLB6YHf9Tv2J6vVvscXDmeaoYU3nKDm117geeFn+++P7OmXvd4MiUpogt0h9u1lc6RHfwjWjxqqooLNnlW53uj0HPeTcoUbrO5wK2C5pV2+3olzRNK0yIva6z1ynBhf+r3tEmLgzRNbPNDaiuZITAvXf9qppMr7jx+fWtl74+nriRZ9V5G+J2DzS/ZJiUVfTzSeKXLjFXb4tm3dsvTRgg+d/6zafZNTa24SGMOyBp+UmdyJSpo16D+9yc3AsE38QcP8GLquvxj0bbp2GlZfRbLI4+yz6hsUJ2NK++rMBgbFCTfPPqmbtnrHZ5+//jOwUIdMG3svmfkdSnc1iu0v9AeKIvU02otwC+XonQkZcGIQmXpDWTj8hDEwtClcgNdPVSNKas/bG3Ls3W8+Lu4PfUGmysvvUa8mj1BmOI3YDEFiKdL/ZJNi4GPRymnhPw3kLt8fYU8i+x8wuaNi1ydhWrBnD5xPLbHy2FT2YN5X+wFlkugt5DxbDtx6EVO8xjgBYmTuhe9mcpYzxotp4a47fn/EIBf6upP0+yNLP6KFRMf8AFJjsCUoIjUAAErQYGNmoj7QFGZ88fCdrxT+BMeO8B0VNZN7T+l9wY5UD94jWvjLY+/SHPNdy42wyL5XtGRftFMhI2y0/GfbpkHL4dJMBW7QkcNviKjk5mx3D3KjPlQqj7nK6A4/VDvGyd5QOi5VspMi6xHeUNmANIpoZFNaoFzd94rKyRH5N+VuK+2jJN+QHiA5Qo067h6md3naFq95RMoTQTB+iXdUiYjGxCUz7ttDAif6poK7+Hx5xOkFJZahr1agdYbKESRC675jVU6/0LYEkxXM2nImlBYavUhp/KJldjY3ZPK4BnuaJNCO2XLitEvgBOnTwm4QhDgFQZRhunCf6xdWxz5KkEwFf65laUFIgGlBVhQ0KhlaUBKMR/IfzFzuvVGOFuFOzdKiMA1vKC3c77BjHyW4IrSYyRkfJY1cPufdypwWUsairjFaSH9COlkKTng4LVw6vu7aVmKcTtEifKRzBPFus/dHTnv9HQgttjmeiESSOkhtJLRwHnJWHjo1+Gvii3zvSGbLQRX3G6ZArUWcDif4Ysn3qUCMN6viHQk4F52wX5CVCz9KJfooke4QEgw5LcK77GxTPUaLiCh5PkpMv+iFL0i5pizivQk4Mb5w8xN+h1qgRS1foQJaZHQt8qIQvlY2f5ZfL9nAea/Z75K7D8iVtJQWu2PnZr0l3uXNqY45FnQtKrzX+0Ve+s8LyKVFGz5KmTnyhyoPu0xMJn0+CGuV7BqlLD9SBWAF2GPJ3kduJErS3jmnehNSPDlOVH1B+qVNNl0ARx1AaLOMbIPcOVIlEqXsO9x0j+ju7ZTCYtLfV2gvtCToj7eDpJJj0GeB/blhsQe4Az1ScsRAX2YHt0mJuaKUHb6ztx4NnTWvFz2lbbC1Uy/xNngcqyu+w13yfIQ9yug80lnORxMeCMrBT+yjRC+hmywTHKb06ZbF05Bko9orez07DtxjTxSJ5yOSuveZfGA4sUfqh/2k5ixp0crD5Ujt99nL2nKWbMu+EWc5pHsN997CwLdUB14kVh5Id9reD4hXHnqxZfDK1zV6ufjtbJSkBcGJ7YHDDcXJ2jj0W6Y4y9XRjB4DcFsO1gc7j+1nMg2PU7SjmoWMkWUCTB9k8dZLYUe1ZxumkYzHYMeWgYPAF7ve2L/egsy5mdljpo8lw4nug937pcAXB8e/XhXyhVLMFyoQLRK0Q+moD5scSxNrB46wsKMIC5Xb6w5LGwdvqWCzpj3zvpNoDFvdUNK43hQfx1kIo2dmawnnJmkWfFA9ary+I1VsoNLwZk+1GS1UGg8ysNUl/SAiBj0q37Hmg6lKgFXwuB6T4VExthajhSFEoiQ61E92CJtvhK4adkqOHImwkEdML/SGi9nz8/xjwqyZ7kRjeg2csu227z/Nn59nh96YmTcWkK3ZBuN8N3QPqMp0f03/7dxImXMz/kVy0TEChlvWvOfsEQa303tq4vMOkJyb5cuRxrpW3rkZnHPDguv58QNb7vBG5noNPERWSlQlMt56CytaeUY9biQVG+n5VvZ8RDLYrUz+igLDWaSmi8DBrSaej4Bm+kW5M0R7m3N1qzu50WIdLzJzi8l/M+LvysvMAQZm85d+7hkiI8bwmW+Xc1698yaG3CItyvrxbbx0P8brvpzwB5qnTtYQ+x8s8dQJ6V7pKww97x0qyoCuF1oi6mNKZdMPDrz10xgMV/wwS5wjpd8fEWP7seWRLLvcBGnIMeVk0gNcQmrL/f7KEXBxfW9m2QyYOo3JcLQWT/nc8eQRqmKzfRm+9MQYd3e4/0PEIhZDbo+yJ8fJeMId9GeQ4QT/7JMYjF8gE4saMSt5SKZGHWI4yfxlRZk8y2jzDgk44QPLWL/I+ijl+cDA3cF10EqAUhCuZ5YWOdBFp6D2Zu+HpIYXBotbPesPpJnb9ZhVGborfPkiLnm/Rv98B8moD+Mp9MY9LT4Rhpsnd8iaD9dzK9a14H7o+Z7GfZRK6RdN3x/ZzV5fXz+m7w+kSt537c+P1+nrdPq4JP5geafUy8cP3MhsQ/mOfPnz9fUOgPTucj6dLgVexd3ZEAw+UPOmuMvTt9OPpVyAU00fpVNx9FArjLzmwBrbNx3xapEh5e448ppc5Q9KRYMjYIJK7n0DBe+PnPS04eET9aM+CquUbLYRcNVmjwEDRrlGdx8rJUdT5cDl4orqe8FVjCu6VGz/l483qxOHqKS/e/aojzyv2SY4ATHCQuVRHzj2QosiLIj/MA/P0MSoD1UIGVHFqA8t0Wx+JAoHNo4D86gPkwNXxSnToSKcWntbodu45XI4NYlb/hvb/ze2v/y5Wfdz5OhLrOByc6SVderE8tdo7ezXxKnG2pnmbKUDmVrylcnCqI9zydQ0Lf7rda3/dzq4VEsH/y/bmx1rttaePbE/bnJTw1X+jiqPw86A0/8BOAQD5v7owZkAAAAASUVORK5CYII=;" vertex="1" parent="1">
          <mxGeometry x="173.9" y="338.76" width="30" height="21.24" as="geometry" />
        </mxCell>
        <mxCell id="2PFUA68c3KtspT4KJn6I-8" value="" style="shape=image;verticalLabelPosition=bottom;labelBackgroundColor=default;verticalAlign=top;aspect=fixed;imageAspect=0;image=data:image/jpeg,/9j/4AAQSkZJRgABAQAAAQABAAD/2wCEAAkGBxIPEBIPDw4PDw0NDg0PDQ0ODhAPDw4PFREWFhURFhUYHSggGBolGxMVITEiJSsrMDAuFx8zODUtNygtLisBCgoKDg0OGhAQGislHyUtLSstLS0tLS0rLS0tLS0rLS0tLS0tLS0tLS0tLS0tLS0tLS0tLS0tLS0tKy0tLS0tK//AABEIAOEA4QMBEQACEQEDEQH/xAAbAAEAAgMBAQAAAAAAAAAAAAAAAwQFBgcBAv/EADwQAQACAQEEBgcECQUBAAAAAAABAgMRBAUhMQYSQWGBsQcTIjRRcXMjkbLRJDJCQ1JyhKHBMzVTYoMU/8QAGgEBAAIDAQAAAAAAAAAAAAAAAAIDBAUGAf/EACcRAQACAQQCAQQDAQEAAAAAAAABAgMEBREhMTNxEiJBURMyNGEU/9oADAMBAAIRAxEAPwDuIAAAAAAAAAAAAAAAAAAAAAAAAAAAAAAAAAAAAAAAAAAAAAAAAAAAAAAAAAAAAAAAAAAAAAAAAAAAAAAAAAAAAAAAAAAAAAAAAAAAAAAAAAAAAAAAAAAAAAAAAAAAAAAAAAAAAAAAAAAAAAAAAAAAAAAAAAAAAPNQVNt3jjwxrktEfCvO0/KFmPFe/iGNn1WLDHNpRbBvnDn4Uvpb+C3C33JZMF6eYQwa7Dm/rLIRKlmPQAAAAAAAAAAAAAAAAAAAAAAeagqbdvHHhjXJeI+Ec7T4Qsx4rXnqGLn1eLDHN5azvLpNe+sYo9XXl1p42n8myw6CI7s5/Vb3a/WPqGv5c02mZtMzM85mdZbGmOK9Q0mS9sk82nlBOTTlOkxymOxZNIt1JSZrPNZ4ZfdvSnLh0i/2uOOyf14jut+bBzbdW3depbnS7tkx9W7htu69+4No4UvEX7cd/ZvH5+DVZtNkxz3DoNPrcWaOpZSJY7Me6gAAAAAAAAAAAAAAAAAAAp7bvHHhjXJeInsrztPyhZjxWvPFYY2fV4sMffLWd4dJr31jFHq68fanjefybLDoIjuzndVvdr9Y2Ay5ZtOtpmZnnMzrMtjTHFfENJfJfJPN5Q3utiEeEVrpRCUQhvdOISiEVrpRCXCKcmnGJmJjlMcJh7NInzCyszX+ss5urpjmwezk+3xx2WnS8R3W7fFrs+10v3XpttNueTH1btvG5+kWz7Vwx5IjJ/xX0rfwjt8NWkzaTLh/tDe4NZizeJZeJY7LegAAAAAAAAAAAAAAAA8kGpb26PZNbZMdpy6zMzW0+39/a2en1lIji0cOa121ZbWm9J5azniazpaJraOdZjSY8G1paLxzDn74rUni0IbXWxCMQhtdOISiEVrpxCUIrXSiEoRXunEJcIrXTiE4hFe6UQlwh9bppMTpMcpidJiS2Oto+6FlZmviXWPR/tmTNscWy3te1cmSkWtOs9WNNI1chuWOuPPxV1GgyWvh5s2eGCzgAAAAAAAAAAAAAAAAHmgKe8N24s8aZKRPwnlaPlKzHlvjnmssbNpcWaOLQ1De3RHJTW2C3rK8fYtwvHy7JbbT7lE9XaHU7PNPuxeP01XPFqWmt6zW0c62jSYbal63jmstTfFak8WhBe6+IR4Q2ulFUohFa6cQlEIrXTiHvCK904hOEV7pcJQ6v6L5/QP/AHzf4cdu/wDpn4dLtvpbg1jYAAAAAAAAAAAAAAAAAAAGgMfvTdOHaY0y462+FtNL1+Vo4rcWfJjn7ZUZtNjyxxaGjb96F5MUTkwXjJjiJmaXmK3rHznhLd6XdItP05IaLU7V/HH1Ulplsnf8YnulvKzE9w1c45r5hHN1vBEIrXSiEuENrpxD3hFa6fCcVde9Fc/oH9Rm/wAOK3n/AFT8Oj270tyatngAAAAAAAAAAAAAAAAAPAfN8kViZmYiI5zM6QREz4eWmKxzLWt79MMWLWuGPXXjtjhjifn2+DPwbfkydz01Oo3bHTqvbSN7b6zbTP2uSerrwx19mkeHb4t5p9FixeI7aTNrcuae56c6z0y48t74r8JyXma9k8fhyZ3/AJr17q2Fb47ViLQsYN8/s5aTjt8edZSpm46vCq+k/NJXYyxMaxMTHxieDKpMW8MWaTHlHa62IexCKbp8JRDsfomnXd/9Rn84cPvX+qfh0G3+lusNUzgAAAAAAAAAAAAAAAAHxe8RGszERHOZIhG1orHM9Nf3n0px49a4o9bflrHCkePb4M3Dor5J5nw1Op3fFjjivctP3pvbLtH+peer2Ur7NI8PzbrBpMeP8Ofz67Nm8yxWSWbEMaFfJKyIWVapmn2rfz385bPFPNWy46hHasTwmIlK2OtvMPYtMIq4OrOtLTTujjWfnCidNx3WVv8ALz1aEvrZ/ajxry+5Ks2r1ZGaRPh7qvjtXxw7R6JP9u/qM/nDht6/1Wb7Qepu0NSzQAAAAAAAAAAAAAAAFbeGeceO+SI1mlLWiJ7dISx1+q0Qp1GT+PHa/wCmg7x3nlzfr34dlK8Kx4N/h0tKeHE6nX5s8/dPTGXlmVhiR35VskrIhZCveVsQnEK2SVkQsrDVbz7V+7JfzZ2nnmrZzHUDIRHgPBkNzbk2jbLdTZ8Nr6frX5Y6fzWnhDD1Ovw6ePuntdiwXyT07d0I3HfYNkjBkvW+Tr3yWmkT1Ym37Ma8/nwcRr9TGozTkiG902KcVPplsDEZAAAAAAAAAAAAAAAAChvv3fL9K/ktw+yGJrvRf4c5vLpaw4HhXvZbEJwrZJWRCyIV8krYhOFbJZZELIarr9pkj/taf7snTy2lo+2H2yla7undOfa79TZ8VstuGs14Vr32tPCGJqdbhwRzeVuPDe89Q6T0c9GFKaX268Zb8/UY5mMUd0252/tDmdXvmTJ1i6htcGhrHdnQdl2WmGsY8VKY8dY0rSlYrWPCGita155tPLPrWK9QmeJPQAAAAAAAAAAAAAAACRj9+e7ZvpX8luD2QxNd6L/Dm97OnrDg+FbJK2EoV7yshZCvkssiE4VryshZXy1/d27s207RbHs+G+W82vrFI4Rx52tyrHfKE6rHg7vLc1xWyViKum9HfRfEaZNuv155/wDz4rTFPla/OfDTxaXV77e/NcUcR+2dh0ER3d0TYthx4KRjw4qY8deVKVisf2aG97ZJ5vPMtjWkV6hY0QSevQAAAAAAAAAAAAAAAAABj9++7ZvpX8luD2Qxdb6L/Dml5dTVwivklZCUK2SVkJwrXlbCcK+SyfHSyvPLtHRvYseLZsUYsdMcWxY726lYr1rWrEzafjOsuH1NrWyW5n8uywUiKQykKV70AAAAAAAAAAAAAAAAAAAAGP397tm+lfylbg9kMXW+i/w5jeXVVcIr3lZCcK2SVsJwr5JWQshVyyn+E6u57k93w/Qw/ghwmb2W+XZ4fXC8rWgAAAAAAAAAAAAAAAAAAAAMdv8A91zfRv5LcHthi630X+HL8kurrDhvyrZJWwnCtklbCcK95WQnCtllP8Str5d23J7tg+hh/BDgs3st8uww+uF5WtAAAAAAAAAAAAAAAAAAAAAY3f8A7rm+lk8luD2wxdb6L/Dll5dbVw6veVsJwrZJWQnEK+SVkLIVsspW6hZWO3edye7YPoYfwQ4LN7LfLsMP9IXlawAAAAAAAAAAAAAAAAAAAABjekPuuf6OTyXaf21Yut9F/hyrI66sOIhWyWWRCcK2SVkf9SiP0yG6ejW07XpOPH1cU/vsns08O23gwtRuWHD+eZbDT6HLlb1uToFs+DS+b9IyxpOt4+zrPdTt8dWj1O6ZsvUdQ3mn2/Hj7nuW20rEcIjSI5RHKGsZ76HoAAAAAAAAAAAAAAAAAAAADGdIfdc/0cnku0/uqxdb6L/Dk+SXXRPXMuKiO+GQ3X0b2jatJrT1eOf3uSJiNPjEc5YmfccWLqJ5lsNPt2XLPjiG67m6GbPg0tePX5f4skR1Ynury+/Vpc+4Zcv54hvtPt2PF57lskUjlHCO5gefLYRER1D2IHr0AAAAAAAAAAAAAAAAAAAAAAFbeGy+uxXxTPVjJS1JtEa6axz0Spb6bRZXlx/yUmv7YndfRTBg0tMetyRxi+SInSe6vKGTm1uXJ1z0xNPt2LF35Z6KsPjvlncceDR6cPR6AAAAAAAAAAAAAAAAAAAAAAAAAAAAAAAAAAAAAAAAAAAAAAAAAAAAAAAAAAAAAAAAAAAAAAAAAAAAAAAAAAAAAAAAAAAAAAAAAAAAAAAAAAAAAAAAAAAAAAAAAAAAAAAAAAAAAAAAAAAAAAAAAAAAAAAAAAAAAAAAAAAAAAAAAAAAAAAAAAAAAAAAAAAAAA//2Q==;" vertex="1" parent="1">
          <mxGeometry x="313.9" y="340" width="20" height="20" as="geometry" />
        </mxCell>
        <mxCell id="2PFUA68c3KtspT4KJn6I-9" value="Orchestrator" style="text;html=1;strokeColor=none;fillColor=none;align=center;verticalAlign=middle;whiteSpace=wrap;rounded=0;" vertex="1" parent="1">
          <mxGeometry x="223.9" y="315" width="60" height="30" as="geometry" />
        </mxCell>
        <mxCell id="2PFUA68c3KtspT4KJn6I-55" style="edgeStyle=orthogonalEdgeStyle;rounded=0;orthogonalLoop=1;jettySize=auto;html=1;exitX=1;exitY=0.5;exitDx=0;exitDy=0;entryX=0;entryY=0.5;entryDx=0;entryDy=0;fillColor=#0050ef;strokeColor=#001DBC;startArrow=block;startFill=1;" edge="1" parent="1" source="2PFUA68c3KtspT4KJn6I-10" target="2PFUA68c3KtspT4KJn6I-15">
          <mxGeometry relative="1" as="geometry" />
        </mxCell>
        <mxCell id="2PFUA68c3KtspT4KJn6I-10" value="" style="rounded=0;whiteSpace=wrap;html=1;" vertex="1" parent="1">
          <mxGeometry x="424.14" y="300" width="160" height="60" as="geometry" />
        </mxCell>
        <mxCell id="2PFUA68c3KtspT4KJn6I-11" value="" style="shape=image;verticalLabelPosition=bottom;labelBackgroundColor=default;verticalAlign=top;aspect=fixed;imageAspect=0;image=data:image/png,iVBORw0KGgoAAAANSUhEUgAAAQsAAAC9CAMAAACTb6i8AAAAwFBMVEX///8Abbjm5eXn5ubl5OTk4+P8/Pzq6en09PTy8fH39/fv7u7s6+v6+vr19fUAW7EAarcAZ7YAZbUAYrQAXLEAWLDZ5Onr9vsAY7UAX7PT3+fw7OllkMeBoc4hc7q1wtvHzuDY3u0seb3m8vnI2uyUtNd4o9Cfuda+y+O3yt2sxeFUjcWIqs/u8/htm8o/f78ATKt3mMpYhcLa5fK90+gAS6u0zOQAUq0ARKmUsNTO1efg4+3N2+bh6vVmlsqEqdOAEZv4AAAaMElEQVR4nO09CXviuq4mSbMSslGG1DN0ulBaKHBu6WNeZwr8/3/1vCbOBlmh593x951TD7YcWZYtWZZsAFCyJFmycEaWZWmA/tqSLCsqyhgoo+ESDZUYOKOgjI3+DlCJnADGJSYHBgy4z4F19FdVWLM6B+6LzWJgkwPjZvsiThFwhFM/jRMGlhI4SVVwAn9p8ZcWhbRQJIVUkCRJId+9kqQrAopKKC1QhnwXl2BQU0GVCUaoxGIlCvmuCEy7g0p03iz5LgKWOXDULOkOB66Kk81wUjjwKZyUDE7AQkk3TXOAM+ivaaC/Bs7wEpOX6IVVikuyzSaqDCoCJ3A6DlyiWT2JEyE7oZwSU05KjiamdnI0pXhAFD4gdDQlBhyNJh8q3CwdTQ6sCMASB7Z4SQ2cpAgnMxcnWcRJzcFJbn2WJ1eezCz/wiuPyBfsu+XHQBxapXgMeLN8DLLAxXyRxEkrh5N5Gic1B6c+SgPbtk2cQX9tA/21cMZCGZ2XmCijiyUGzvCSgQgclSSAjTRwotkscCOcBmmcrFycUsCAUC5asxXpqqwcuZIUQnZRjlyVXrMlpbQcKYcTB87IkfI4gcRE/atf/KVFQtdSKOOgv4wfUYaAogzjR+WK8iPK0Dmi8DmiMH5EJZQfBWDGj8qVzpsl30UZNkeEZm3W7FUCJ6kGTtZRnDQRJxDjhMku8wEhlDHkmHIy6QEuIbXleEBkQyS7KfMBQRnOYTLnMAJspIFJs4TDZM5hHFhiONmNcJIq4xTpF0rMRTFzFnC2FDOnwpnzNGdz+ZUFTsvUQpyOzDax2cqzjQJ/CV2rj6sCezAYqLzKpXWtOjuqlA5+bEeV0sHjHZX88j/XQvqfn/JlcNJRMnDiGT03c7wkv0rJZg3dfA96QvJ/mxfBCTDKZXdUxaNJ+GsgaM6p/XH1Xd5jghbj3zVwSmvzStld3lWEE+Az6qL6RR4tLq1rYYhoxWOgBav/QEl/ly/gORJJytJCElf/o7SQZKWsRKqAk5bFCagoGVpfs3AGbVE0Hf01NZSxWUmflKCMgf7auMREmQHKkBKLlai4ZMCBk81qtFmbN6vzZilwlhaVcFJFnDTerFUZJ6JqJjUzpYy2qDTRFpWUtii/JNfOn3I9nKyGOH0F/UJL00K7jH7xlxYx8CXmSHpH9VXmCF1QNLbUoESXGpR4CVunNLZOoUTXKVbFEoHNNLDFgek6hRJdpzS+dmqFa6fQbARcB6dMh4pwAsWczZizSKZmZHkl+VVBplbY5TWUqfm0OLeude0LybmortVIB8+cUR3Vd6/ydPDl8y1KzzjhzLIGTkkdXKmlg3e4N4szp9LARNt1fAxmkszgDDjl7c1KnJs13R+PvqH0MEIJZ0ayNHogGfbDw5WkjfgPpKQxTuZJnHI5rHv9Ar79wlYJx3GIdcLtazP+A/1F1l7+uRaq/HNxXaszGx/87opS4h5qM0/8wUW0GOfrWo1sfEoZWkgpG5/Mzbek0aydFZfk21kzwFk7q5yihXvfhzM/QQsNZvXOuFm1NZw4sJ1pNgLu/EwgRQsA5klaFNhyCrVFZfQCj+NU80yAc1GH+kU9WhRzNlw4Bzaa/7pzs5ZpYc6Dnn+/6dxHqZOz5ZpzpAinZYiB/G3u2TKfIzXOlq+KfQ7U3PP9vlroc6CKwML5vpGihQFTcqRvpddO6whO+hOFdqbgNE52AU75Pgfd+6Jk5IiWkiNy1n5R7Isi/xmyauG0EKeavihn0LVStIAlaFGME1xFrTmzM5ybteu7lqaFltYvsrTIOTfjOGmCWuZvCnAq4bvGmxV18GIXQEN0ARxkXQDL+g+aKb1T11PrhWGkz82MQpx0kY6uVwmnUx0CfNnt0Nf1jWw9cBqi/3pIjvxieWeI/n+N5Mg/jhPX+fX7CE4LkbDeSuU4VfZ1ze7yQP4sb1W/+HaD0ugBJZzZIak4whn+ww36gZagH3Y4YxfOcgB6iTTciDh1o2sJm6IsLZTTtEh7kGhkiwBkTSMwJvqBNGuhjMFLMEY2r2IIOxuBFjsnQQv3u4hTlhaVbG0dzJHIUkEziC8iwwT/ITZm4IT4IqpCStR0lWWEU1Ir6/WCZd05kuPHlz0TaORldaVoTmSqQH9//QfCN/GHa1eTp7+47YL8leSXfxyhyj8/Ze1/HaHKr4PGdlTw1UvSwvuAMU4FZwJXx84EZDrSpEOt6xdakol/wDr2i35iKnivkOGUoYW7gFn7xZc5N9MSPffStCinaxXS4keKFj1fh2QDb0Go6Q1pIbXtrVuDFtlzswwtGE5wn2gdV35dLe4nKC1WHy/fCnAquRqeDtyweEm5qA87RQs1vU9V1dQ+1bTT+1TVTNJiqrL21fQcQYWuS9p3XW88vJ8t1RqRKDSYBFAuqh71IfooJb37k5j+qLVnV6+TtIhwmmZokUiuH87zcCoVcQD4jGpP1+qMFnj+J0HzUrB4aKZr/Wv4YjfsnUqu81CTL9BMsckkslEG/e3rtmmbfZThJRYrIVVoCaqi91lJBIxLsAXmFC2y64VaYr1gOA1O8gXWRRM4FXcoLiEduoAc0dJyRCovR+SsIMkk50YpjEQ5Lkda1y/6XeoXmvacUMtykvsdVvcH70rXSmLWrt6pSfopvnA+W/RRarofGVLTBE3XfD/CjBNDx0Vz5NfQESrR/chwyE0cv6L9CAO5xvsRhpN8QpJ4B1h7P8Ip155M3XHjBLFSfGP2ix03VzygHxJVRtx+8cDtFyre7Io2D7JPZeO8O84YbgKnS9kv+HfV2AShyfSwD2VIVEQl+4XGT0Gp8QM1C+Fyuz4uVJ1R7viUOqVuiy+W35ImiKTLRcJ+UVjykC5JVHm4nf1Yh8Fxrgi3sClfVIz6yLHlzH/F/hSiccJJeFpUqJIpcXzfO7Fuuv4WNrF3Ehcd7BaEM9g/yBAzUcmJKubqpNjvPvn3D3YK7eIODbJVWjofgYtL08L13ZkpsoLoo5Q9H+nQRwmuL0kL1/WvFzNLa8GuVTfqQzBAwwtRIQhDz/cX+/k3Qzvto3QqEoWcs2Mv4T6PsMCHzyxwo5+MsOjzkBF8LM3CM/rE+XgwuQgpwrs/f9BuC/cvg1Nxh+JIlGSHmBwp9FFSiqM+Ej5KFyEF2uzouTgd8VFSUj5Kavs+ShehRfgpf0UfpfsLrJ3uGn7J2P7TZoX20/BRbu7HJ84RDen/ZKkhOwJVBSTCAqBMFGGBS6KoD1xCoj5w5InMgS+hX7hvgOKk5eNEdjZihzSxQ1EkCu8qWjtbkqmZM5zuU3gH2vf7bUHXSpmqzpHcNTiOUyc+SkVRH4IOLj+fnRbDz2Kc8uMETurguREWeiJTokR/uD6NfavJ+6GextYoWUIzIEG5CnFFaf+LUybZ1mmxzI8rSu7Zy8UVte2j9HZeQRLMz+YPXj0OMXvo22XCp2+5t80U+SiVikPEKoUlxxJYHoBYAmOrYySB5Uh820AFAzkW7Ngw+RiekxbjB3AUJ2IsRRmibKASM7dDegSMftDltuKWJfmcgiSYwbbjltv0UUqdCHWa3AWQyuB0qXMz7fZ8jOEvwZeO7Zess2kYwWNbsf0p6wwOrKCWHx5hodoqD9yIS6jlh4dnoCo8cCMqAefangVTWBYnlVrt8jrEuyoAg4QIkkSLIBdBhfflSEn59XIeSeLvoVQc2y9lZGrp2P42fZSss9g8vbUYhtmFrtXsfi1GyHPsVZGSpZe6X+vULcp5Pko4pp4cG5ksI54smXqixEwfPpkJYPMMC0a4NDNfPoZTukNGbofoIVq8Z290wzkl+yw43ZmGpPjUjuBkpZmkdGx/Bz5KHVPCHX/Cc9+jVCWOPvHdbjcl7v0OVsfpYveDf+9wt+rdqyR4srv7wUntq2ZnAlHghrLsjhb+ui9XuO/3quSZQHex/ep7V7MkfDIKOPvLnZtFE/XQjbHP2YIMTl/q/ZHc2P63DqaJ5+7OcW98YciInf/+iJ33hMhALGn/aDXcD4x6OIkhI8XA1NvdbE+O8HhpuW1ieN67WRGnEjHcKkjuMDqK7VfvW5wm7vBJ/de9PyKMgXrf2i4txBegVMapBl+Isf213yvKCT6z9VU7otUPtiZfDKyKOFXpkNVBbD9fs2U4d5ovGr4/K49TYdzyF3h/ZDdpNk/coDfTS83yr6trxd+dhvVZwwvfni2Yje0/Ay3a2o8kdf/lPqwlUNyxe9gN5AbvjxTjdHQ/kpUjFXygC+QI4OJpt6pMDS8Mvm8NKNfGqeX3zWrbL7Kzbfk6ORHmIDKEN5z8eLQ7wOlC8WZJWqjQeFlNQv8UPVwvCLzF7MYUm73Y+yMt2DvzpbMMwWa+d53A89wMSVzX88bDcPL98P5gQk2qHvWRY+88jVO+vZNoI8Q4zDLkDiL0lypRYolBNBihSqLEtNLAQrO6Odg9Tv+zXuPYuiAYj8c+DrW77q3Xr9PnDQ7I12Pg9nDKAGdKqB2cVAGJ1aVEDHfx+cjpu48BhNbo27e7u98/f//EAVTA5LdWNHplsq3zkdxZ3uGd2OQBKZM4jYB2VryOdK1G56nFZ5dZr1klz2u2ZtTH0fNUqcp5at7hs33qnN0uPNO284ATzeYCZ258bBOnXOAcnI7H9l+lbrhs/UVHqi1mbgJVKty6KeBkNcSp+3sa/z0vK/6lRQzccmx/kxcdm74y2diPTxXdIZl/J40qVwFxh5SpOyQJPFdBRV9KCqxRX8oYWOfArNkUMGiAk1wSp34WJ1DM2Yw5q7w/ct7b3lv3+82nRXe6VvuzvOtzs2pxAmV18DKRKFV2VG3HCeQGVVR6uwNta+xMjEatZk3TNmsDF5aUBm4eVwTee+HbSC4azeMclthRma9h+NQKh10otl97HPZ6bk9rQb94DXu94AlcVNdqFIeofWCLZvh47Lu82ROrPzWNgmoeqrmxkTXjEMVXyaKgTRwKD/JfJQPRq2Q09gKS2wL9277MSwgwf1jM1vJjQSlw/CoZLiEO5ROg5uMUAfMQ02KcCjokvpSWG59KZ1SDMwFKi+eCOPoKXvYDcqfWRJOaa7CXiu2PaNFwlksmo8UXseX8pUWz+y/OP0dO41RzjvQzL88K14hkXsPN3ovC106YD1x0B0nOC73R2pnzGm41nNjaWQRceC9KY5nKaKEdsVLyZk9YKRktupOppyynTXUtmKFFbV1LpMVlz81q3q8V0SKp79bRwWNaNMSprg6ejrAode+aTp5z1HGVwdQntNBTwLhK4aVt9AdSReclOqBrp5n5MjvtEoB1/Hpk3H78ZXZ2prMa+G/5i+QAo1z5/bEM4bfd+/vvGw2SkliORKPJq4z69E73nB2VBo1vd9v3u9EAstHMyBF+Pbo2+6MmcJKhMdrg5jUoJ8zxtnb7Se8mlGF/hJrfjQwolT6ZBfmzvFi/gJ9P99fD8XgcOuvZEuToF0B7WU2uQ1TF8RbzZd4st+XpwnGC8Thwevt3OsuL9IvXa//6NQH8++A6qPlgGC5m0bX5mBaPjj98wz8s57T5cOgtfgLQTNcSFvAkLTaLMLot0fWc1TJLi7kbe1y44/CQ/a79MY6dENxw/U5oMcijxYa4R14/xsDP97F/i+sFBxBLJLzgBHOwPISJ5u1K93fKqXdPyHMqeXzxNEx6DXjhfMZpQXW85Vsq0Mp3N1EEDG323U26tbnDhYpfg0zTAk2AKf2et2I4AXuR8gLzho/ky6jDd/jL3tOjl/QFCqYcOJcveFcRLSqcCQy0HN+84J50+JbGduifOXdsDrdA2FEZBydTw3V3QJAjXFt8vGdBB96HRnH6dLM+T2QGIQ1W/klrp2u4a9h+bP8ycvR23ZRXCdcvtlE/xSrOk8BhhyCniuuCrH6x4kzoBSOK00aYfXHz5NG3vqz9ToZr8ObdBWz93Gw5YV/3vfvVajUZCgPAaMHvJXZDd71aLVzeGcQZ/LuvIa/S269WbwHD39mkaAFiVh+uljLB6YHf9Tv2J6vVvscXDmeaoYU3nKDm117geeFn+++P7OmXvd4MiUpogt0h9u1lc6RHfwjWjxqqooLNnlW53uj0HPeTcoUbrO5wK2C5pV2+3olzRNK0yIva6z1ynBhf+r3tEmLgzRNbPNDaiuZITAvXf9qppMr7jx+fWtl74+nriRZ9V5G+J2DzS/ZJiUVfTzSeKXLjFXb4tm3dsvTRgg+d/6zafZNTa24SGMOyBp+UmdyJSpo16D+9yc3AsE38QcP8GLquvxj0bbp2GlZfRbLI4+yz6hsUJ2NK++rMBgbFCTfPPqmbtnrHZ5+//jOwUIdMG3svmfkdSnc1iu0v9AeKIvU02otwC+XonQkZcGIQmXpDWTj8hDEwtClcgNdPVSNKas/bG3Ls3W8+Lu4PfUGmysvvUa8mj1BmOI3YDEFiKdL/ZJNi4GPRymnhPw3kLt8fYU8i+x8wuaNi1ydhWrBnD5xPLbHy2FT2YN5X+wFlkugt5DxbDtx6EVO8xjgBYmTuhe9mcpYzxotp4a47fn/EIBf6upP0+yNLP6KFRMf8AFJjsCUoIjUAAErQYGNmoj7QFGZ88fCdrxT+BMeO8B0VNZN7T+l9wY5UD94jWvjLY+/SHPNdy42wyL5XtGRftFMhI2y0/GfbpkHL4dJMBW7QkcNviKjk5mx3D3KjPlQqj7nK6A4/VDvGyd5QOi5VspMi6xHeUNmANIpoZFNaoFzd94rKyRH5N+VuK+2jJN+QHiA5Qo067h6md3naFq95RMoTQTB+iXdUiYjGxCUz7ttDAif6poK7+Hx5xOkFJZahr1agdYbKESRC675jVU6/0LYEkxXM2nImlBYavUhp/KJldjY3ZPK4BnuaJNCO2XLitEvgBOnTwm4QhDgFQZRhunCf6xdWxz5KkEwFf65laUFIgGlBVhQ0KhlaUBKMR/IfzFzuvVGOFuFOzdKiMA1vKC3c77BjHyW4IrSYyRkfJY1cPufdypwWUsairjFaSH9COlkKTng4LVw6vu7aVmKcTtEifKRzBPFus/dHTnv9HQgttjmeiESSOkhtJLRwHnJWHjo1+Gvii3zvSGbLQRX3G6ZArUWcDif4Ysn3qUCMN6viHQk4F52wX5CVCz9KJfooke4QEgw5LcK77GxTPUaLiCh5PkpMv+iFL0i5pizivQk4Mb5w8xN+h1qgRS1foQJaZHQt8qIQvlY2f5ZfL9nAea/Z75K7D8iVtJQWu2PnZr0l3uXNqY45FnQtKrzX+0Ve+s8LyKVFGz5KmTnyhyoPu0xMJn0+CGuV7BqlLD9SBWAF2GPJ3kduJErS3jmnehNSPDlOVH1B+qVNNl0ARx1AaLOMbIPcOVIlEqXsO9x0j+ju7ZTCYtLfV2gvtCToj7eDpJJj0GeB/blhsQe4Az1ScsRAX2YHt0mJuaKUHb6ztx4NnTWvFz2lbbC1Uy/xNngcqyu+w13yfIQ9yug80lnORxMeCMrBT+yjRC+hmywTHKb06ZbF05Bko9orez07DtxjTxSJ5yOSuveZfGA4sUfqh/2k5ixp0crD5Ujt99nL2nKWbMu+EWc5pHsN997CwLdUB14kVh5Id9reD4hXHnqxZfDK1zV6ufjtbJSkBcGJ7YHDDcXJ2jj0W6Y4y9XRjB4DcFsO1gc7j+1nMg2PU7SjmoWMkWUCTB9k8dZLYUe1ZxumkYzHYMeWgYPAF7ve2L/egsy5mdljpo8lw4nug937pcAXB8e/XhXyhVLMFyoQLRK0Q+moD5scSxNrB46wsKMIC5Xb6w5LGwdvqWCzpj3zvpNoDFvdUNK43hQfx1kIo2dmawnnJmkWfFA9ary+I1VsoNLwZk+1GS1UGg8ysNUl/SAiBj0q37Hmg6lKgFXwuB6T4VExthajhSFEoiQ61E92CJtvhK4adkqOHImwkEdML/SGi9nz8/xjwqyZ7kRjeg2csu227z/Nn59nh96YmTcWkK3ZBuN8N3QPqMp0f03/7dxImXMz/kVy0TEChlvWvOfsEQa303tq4vMOkJyb5cuRxrpW3rkZnHPDguv58QNb7vBG5noNPERWSlQlMt56CytaeUY9biQVG+n5VvZ8RDLYrUz+igLDWaSmi8DBrSaej4Bm+kW5M0R7m3N1qzu50WIdLzJzi8l/M+LvysvMAQZm85d+7hkiI8bwmW+Xc1698yaG3CItyvrxbbx0P8brvpzwB5qnTtYQ+x8s8dQJ6V7pKww97x0qyoCuF1oi6mNKZdMPDrz10xgMV/wwS5wjpd8fEWP7seWRLLvcBGnIMeVk0gNcQmrL/f7KEXBxfW9m2QyYOo3JcLQWT/nc8eQRqmKzfRm+9MQYd3e4/0PEIhZDbo+yJ8fJeMId9GeQ4QT/7JMYjF8gE4saMSt5SKZGHWI4yfxlRZk8y2jzDgk44QPLWL/I+ijl+cDA3cF10EqAUhCuZ5YWOdBFp6D2Zu+HpIYXBotbPesPpJnb9ZhVGborfPkiLnm/Rv98B8moD+Mp9MY9LT4Rhpsnd8iaD9dzK9a14H7o+Z7GfZRK6RdN3x/ZzV5fXz+m7w+kSt537c+P1+nrdPq4JP5geafUy8cP3MhsQ/mOfPnz9fUOgPTucj6dLgVexd3ZEAw+UPOmuMvTt9OPpVyAU00fpVNx9FArjLzmwBrbNx3xapEh5e448ppc5Q9KRYMjYIJK7n0DBe+PnPS04eET9aM+CquUbLYRcNVmjwEDRrlGdx8rJUdT5cDl4orqe8FVjCu6VGz/l483qxOHqKS/e/aojzyv2SY4ATHCQuVRHzj2QosiLIj/MA/P0MSoD1UIGVHFqA8t0Wx+JAoHNo4D86gPkwNXxSnToSKcWntbodu45XI4NYlb/hvb/ze2v/y5Wfdz5OhLrOByc6SVderE8tdo7ezXxKnG2pnmbKUDmVrylcnCqI9zydQ0Lf7rda3/dzq4VEsH/y/bmx1rttaePbE/bnJTw1X+jiqPw86A0/8BOAQD5v7owZkAAAAASUVORK5CYII=;" vertex="1" parent="1">
          <mxGeometry x="424.14" y="338.76" width="30" height="21.24" as="geometry" />
        </mxCell>
        <mxCell id="2PFUA68c3KtspT4KJn6I-61" style="edgeStyle=orthogonalEdgeStyle;rounded=0;orthogonalLoop=1;jettySize=auto;html=1;entryX=0.5;entryY=1;entryDx=0;entryDy=0;startArrow=block;startFill=1;fillColor=#60a917;strokeColor=#2D7600;" edge="1" parent="1" target="2PFUA68c3KtspT4KJn6I-20">
          <mxGeometry relative="1" as="geometry">
            <mxPoint x="504.14" y="300" as="sourcePoint" />
          </mxGeometry>
        </mxCell>
        <mxCell id="2PFUA68c3KtspT4KJn6I-62" style="edgeStyle=orthogonalEdgeStyle;rounded=0;orthogonalLoop=1;jettySize=auto;html=1;entryX=0.5;entryY=0;entryDx=0;entryDy=0;startArrow=block;startFill=1;fillColor=#008a00;strokeColor=#005700;" edge="1" parent="1" target="2PFUA68c3KtspT4KJn6I-26">
          <mxGeometry relative="1" as="geometry">
            <mxPoint x="504.14" y="360" as="sourcePoint" />
          </mxGeometry>
        </mxCell>
        <mxCell id="2PFUA68c3KtspT4KJn6I-13" value="Tracking server" style="text;html=1;strokeColor=none;fillColor=none;align=center;verticalAlign=middle;whiteSpace=wrap;rounded=0;" vertex="1" parent="1">
          <mxGeometry x="474.14" y="315" width="60" height="30" as="geometry" />
        </mxCell>
        <mxCell id="2PFUA68c3KtspT4KJn6I-14" value="" style="shape=image;verticalLabelPosition=bottom;labelBackgroundColor=default;verticalAlign=top;aspect=fixed;imageAspect=0;image=https://spark.apache.org/images/mlflow-logo.png;" vertex="1" parent="1">
          <mxGeometry x="555.14" y="344.74" width="30" height="16.26" as="geometry" />
        </mxCell>
        <mxCell id="2PFUA68c3KtspT4KJn6I-63" style="edgeStyle=orthogonalEdgeStyle;rounded=0;orthogonalLoop=1;jettySize=auto;html=1;entryX=0.5;entryY=0;entryDx=0;entryDy=0;" edge="1" parent="1" source="2PFUA68c3KtspT4KJn6I-15" target="2PFUA68c3KtspT4KJn6I-57">
          <mxGeometry relative="1" as="geometry" />
        </mxCell>
        <mxCell id="2PFUA68c3KtspT4KJn6I-15" value="" style="rounded=0;whiteSpace=wrap;html=1;" vertex="1" parent="1">
          <mxGeometry x="653.9" y="300" width="160" height="60" as="geometry" />
        </mxCell>
        <mxCell id="2PFUA68c3KtspT4KJn6I-16" value="" style="shape=image;verticalLabelPosition=bottom;labelBackgroundColor=default;verticalAlign=top;aspect=fixed;imageAspect=0;image=data:image/png,iVBORw0KGgoAAAANSUhEUgAAAQsAAAC9CAMAAACTb6i8AAAAwFBMVEX///8Abbjm5eXn5ubl5OTk4+P8/Pzq6en09PTy8fH39/fv7u7s6+v6+vr19fUAW7EAarcAZ7YAZbUAYrQAXLEAWLDZ5Onr9vsAY7UAX7PT3+fw7OllkMeBoc4hc7q1wtvHzuDY3u0seb3m8vnI2uyUtNd4o9Cfuda+y+O3yt2sxeFUjcWIqs/u8/htm8o/f78ATKt3mMpYhcLa5fK90+gAS6u0zOQAUq0ARKmUsNTO1efg4+3N2+bh6vVmlsqEqdOAEZv4AAAaMElEQVR4nO09CXviuq4mSbMSslGG1DN0ulBaKHBu6WNeZwr8/3/1vCbOBlmh593x951TD7YcWZYtWZZsAFCyJFmycEaWZWmA/tqSLCsqyhgoo+ESDZUYOKOgjI3+DlCJnADGJSYHBgy4z4F19FdVWLM6B+6LzWJgkwPjZvsiThFwhFM/jRMGlhI4SVVwAn9p8ZcWhbRQJIVUkCRJId+9kqQrAopKKC1QhnwXl2BQU0GVCUaoxGIlCvmuCEy7g0p03iz5LgKWOXDULOkOB66Kk81wUjjwKZyUDE7AQkk3TXOAM+ivaaC/Bs7wEpOX6IVVikuyzSaqDCoCJ3A6DlyiWT2JEyE7oZwSU05KjiamdnI0pXhAFD4gdDQlBhyNJh8q3CwdTQ6sCMASB7Z4SQ2cpAgnMxcnWcRJzcFJbn2WJ1eezCz/wiuPyBfsu+XHQBxapXgMeLN8DLLAxXyRxEkrh5N5Gic1B6c+SgPbtk2cQX9tA/21cMZCGZ2XmCijiyUGzvCSgQgclSSAjTRwotkscCOcBmmcrFycUsCAUC5asxXpqqwcuZIUQnZRjlyVXrMlpbQcKYcTB87IkfI4gcRE/atf/KVFQtdSKOOgv4wfUYaAogzjR+WK8iPK0Dmi8DmiMH5EJZQfBWDGj8qVzpsl30UZNkeEZm3W7FUCJ6kGTtZRnDQRJxDjhMku8wEhlDHkmHIy6QEuIbXleEBkQyS7KfMBQRnOYTLnMAJspIFJs4TDZM5hHFhiONmNcJIq4xTpF0rMRTFzFnC2FDOnwpnzNGdz+ZUFTsvUQpyOzDax2cqzjQJ/CV2rj6sCezAYqLzKpXWtOjuqlA5+bEeV0sHjHZX88j/XQvqfn/JlcNJRMnDiGT03c7wkv0rJZg3dfA96QvJ/mxfBCTDKZXdUxaNJ+GsgaM6p/XH1Xd5jghbj3zVwSmvzStld3lWEE+Az6qL6RR4tLq1rYYhoxWOgBav/QEl/ly/gORJJytJCElf/o7SQZKWsRKqAk5bFCagoGVpfs3AGbVE0Hf01NZSxWUmflKCMgf7auMREmQHKkBKLlai4ZMCBk81qtFmbN6vzZilwlhaVcFJFnDTerFUZJ6JqJjUzpYy2qDTRFpWUtii/JNfOn3I9nKyGOH0F/UJL00K7jH7xlxYx8CXmSHpH9VXmCF1QNLbUoESXGpR4CVunNLZOoUTXKVbFEoHNNLDFgek6hRJdpzS+dmqFa6fQbARcB6dMh4pwAsWczZizSKZmZHkl+VVBplbY5TWUqfm0OLeude0LybmortVIB8+cUR3Vd6/ydPDl8y1KzzjhzLIGTkkdXKmlg3e4N4szp9LARNt1fAxmkszgDDjl7c1KnJs13R+PvqH0MEIJZ0ayNHogGfbDw5WkjfgPpKQxTuZJnHI5rHv9Ar79wlYJx3GIdcLtazP+A/1F1l7+uRaq/HNxXaszGx/87opS4h5qM0/8wUW0GOfrWo1sfEoZWkgpG5/Mzbek0aydFZfk21kzwFk7q5yihXvfhzM/QQsNZvXOuFm1NZw4sJ1pNgLu/EwgRQsA5klaFNhyCrVFZfQCj+NU80yAc1GH+kU9WhRzNlw4Bzaa/7pzs5ZpYc6Dnn+/6dxHqZOz5ZpzpAinZYiB/G3u2TKfIzXOlq+KfQ7U3PP9vlroc6CKwML5vpGihQFTcqRvpddO6whO+hOFdqbgNE52AU75Pgfd+6Jk5IiWkiNy1n5R7Isi/xmyauG0EKeavihn0LVStIAlaFGME1xFrTmzM5ybteu7lqaFltYvsrTIOTfjOGmCWuZvCnAq4bvGmxV18GIXQEN0ARxkXQDL+g+aKb1T11PrhWGkz82MQpx0kY6uVwmnUx0CfNnt0Nf1jWw9cBqi/3pIjvxieWeI/n+N5Mg/jhPX+fX7CE4LkbDeSuU4VfZ1ze7yQP4sb1W/+HaD0ugBJZzZIak4whn+ww36gZagH3Y4YxfOcgB6iTTciDh1o2sJm6IsLZTTtEh7kGhkiwBkTSMwJvqBNGuhjMFLMEY2r2IIOxuBFjsnQQv3u4hTlhaVbG0dzJHIUkEziC8iwwT/ITZm4IT4IqpCStR0lWWEU1Ir6/WCZd05kuPHlz0TaORldaVoTmSqQH9//QfCN/GHa1eTp7+47YL8leSXfxyhyj8/Ze1/HaHKr4PGdlTw1UvSwvuAMU4FZwJXx84EZDrSpEOt6xdakol/wDr2i35iKnivkOGUoYW7gFn7xZc5N9MSPffStCinaxXS4keKFj1fh2QDb0Go6Q1pIbXtrVuDFtlzswwtGE5wn2gdV35dLe4nKC1WHy/fCnAquRqeDtyweEm5qA87RQs1vU9V1dQ+1bTT+1TVTNJiqrL21fQcQYWuS9p3XW88vJ8t1RqRKDSYBFAuqh71IfooJb37k5j+qLVnV6+TtIhwmmZokUiuH87zcCoVcQD4jGpP1+qMFnj+J0HzUrB4aKZr/Wv4YjfsnUqu81CTL9BMsckkslEG/e3rtmmbfZThJRYrIVVoCaqi91lJBIxLsAXmFC2y64VaYr1gOA1O8gXWRRM4FXcoLiEduoAc0dJyRCovR+SsIMkk50YpjEQ5Lkda1y/6XeoXmvacUMtykvsdVvcH70rXSmLWrt6pSfopvnA+W/RRarofGVLTBE3XfD/CjBNDx0Vz5NfQESrR/chwyE0cv6L9CAO5xvsRhpN8QpJ4B1h7P8Ip155M3XHjBLFSfGP2ix03VzygHxJVRtx+8cDtFyre7Io2D7JPZeO8O84YbgKnS9kv+HfV2AShyfSwD2VIVEQl+4XGT0Gp8QM1C+Fyuz4uVJ1R7viUOqVuiy+W35ImiKTLRcJ+UVjykC5JVHm4nf1Yh8Fxrgi3sClfVIz6yLHlzH/F/hSiccJJeFpUqJIpcXzfO7Fuuv4WNrF3Ehcd7BaEM9g/yBAzUcmJKubqpNjvPvn3D3YK7eIODbJVWjofgYtL08L13ZkpsoLoo5Q9H+nQRwmuL0kL1/WvFzNLa8GuVTfqQzBAwwtRIQhDz/cX+/k3Qzvto3QqEoWcs2Mv4T6PsMCHzyxwo5+MsOjzkBF8LM3CM/rE+XgwuQgpwrs/f9BuC/cvg1Nxh+JIlGSHmBwp9FFSiqM+Ej5KFyEF2uzouTgd8VFSUj5Kavs+ShehRfgpf0UfpfsLrJ3uGn7J2P7TZoX20/BRbu7HJ84RDen/ZKkhOwJVBSTCAqBMFGGBS6KoD1xCoj5w5InMgS+hX7hvgOKk5eNEdjZihzSxQ1EkCu8qWjtbkqmZM5zuU3gH2vf7bUHXSpmqzpHcNTiOUyc+SkVRH4IOLj+fnRbDz2Kc8uMETurguREWeiJTokR/uD6NfavJ+6GextYoWUIzIEG5CnFFaf+LUybZ1mmxzI8rSu7Zy8UVte2j9HZeQRLMz+YPXj0OMXvo22XCp2+5t80U+SiVikPEKoUlxxJYHoBYAmOrYySB5Uh820AFAzkW7Ngw+RiekxbjB3AUJ2IsRRmibKASM7dDegSMftDltuKWJfmcgiSYwbbjltv0UUqdCHWa3AWQyuB0qXMz7fZ8jOEvwZeO7Zess2kYwWNbsf0p6wwOrKCWHx5hodoqD9yIS6jlh4dnoCo8cCMqAefangVTWBYnlVrt8jrEuyoAg4QIkkSLIBdBhfflSEn59XIeSeLvoVQc2y9lZGrp2P42fZSss9g8vbUYhtmFrtXsfi1GyHPsVZGSpZe6X+vULcp5Pko4pp4cG5ksI54smXqixEwfPpkJYPMMC0a4NDNfPoZTukNGbofoIVq8Z290wzkl+yw43ZmGpPjUjuBkpZmkdGx/Bz5KHVPCHX/Cc9+jVCWOPvHdbjcl7v0OVsfpYveDf+9wt+rdqyR4srv7wUntq2ZnAlHghrLsjhb+ui9XuO/3quSZQHex/ep7V7MkfDIKOPvLnZtFE/XQjbHP2YIMTl/q/ZHc2P63DqaJ5+7OcW98YciInf/+iJ33hMhALGn/aDXcD4x6OIkhI8XA1NvdbE+O8HhpuW1ieN67WRGnEjHcKkjuMDqK7VfvW5wm7vBJ/de9PyKMgXrf2i4txBegVMapBl+Isf213yvKCT6z9VU7otUPtiZfDKyKOFXpkNVBbD9fs2U4d5ovGr4/K49TYdzyF3h/ZDdpNk/coDfTS83yr6trxd+dhvVZwwvfni2Yje0/Ay3a2o8kdf/lPqwlUNyxe9gN5AbvjxTjdHQ/kpUjFXygC+QI4OJpt6pMDS8Mvm8NKNfGqeX3zWrbL7Kzbfk6ORHmIDKEN5z8eLQ7wOlC8WZJWqjQeFlNQv8UPVwvCLzF7MYUm73Y+yMt2DvzpbMMwWa+d53A89wMSVzX88bDcPL98P5gQk2qHvWRY+88jVO+vZNoI8Q4zDLkDiL0lypRYolBNBihSqLEtNLAQrO6Odg9Tv+zXuPYuiAYj8c+DrW77q3Xr9PnDQ7I12Pg9nDKAGdKqB2cVAGJ1aVEDHfx+cjpu48BhNbo27e7u98/f//EAVTA5LdWNHplsq3zkdxZ3uGd2OQBKZM4jYB2VryOdK1G56nFZ5dZr1klz2u2ZtTH0fNUqcp5at7hs33qnN0uPNO284ATzeYCZ258bBOnXOAcnI7H9l+lbrhs/UVHqi1mbgJVKty6KeBkNcSp+3sa/z0vK/6lRQzccmx/kxcdm74y2diPTxXdIZl/J40qVwFxh5SpOyQJPFdBRV9KCqxRX8oYWOfArNkUMGiAk1wSp34WJ1DM2Yw5q7w/ct7b3lv3+82nRXe6VvuzvOtzs2pxAmV18DKRKFV2VG3HCeQGVVR6uwNta+xMjEatZk3TNmsDF5aUBm4eVwTee+HbSC4azeMclthRma9h+NQKh10otl97HPZ6bk9rQb94DXu94AlcVNdqFIeofWCLZvh47Lu82ROrPzWNgmoeqrmxkTXjEMVXyaKgTRwKD/JfJQPRq2Q09gKS2wL9277MSwgwf1jM1vJjQSlw/CoZLiEO5ROg5uMUAfMQ02KcCjokvpSWG59KZ1SDMwFKi+eCOPoKXvYDcqfWRJOaa7CXiu2PaNFwlksmo8UXseX8pUWz+y/OP0dO41RzjvQzL88K14hkXsPN3ovC106YD1x0B0nOC73R2pnzGm41nNjaWQRceC9KY5nKaKEdsVLyZk9YKRktupOppyynTXUtmKFFbV1LpMVlz81q3q8V0SKp79bRwWNaNMSprg6ejrAode+aTp5z1HGVwdQntNBTwLhK4aVt9AdSReclOqBrp5n5MjvtEoB1/Hpk3H78ZXZ2prMa+G/5i+QAo1z5/bEM4bfd+/vvGw2SkliORKPJq4z69E73nB2VBo1vd9v3u9EAstHMyBF+Pbo2+6MmcJKhMdrg5jUoJ8zxtnb7Se8mlGF/hJrfjQwolT6ZBfmzvFi/gJ9P99fD8XgcOuvZEuToF0B7WU2uQ1TF8RbzZd4st+XpwnGC8Thwevt3OsuL9IvXa//6NQH8++A6qPlgGC5m0bX5mBaPjj98wz8s57T5cOgtfgLQTNcSFvAkLTaLMLot0fWc1TJLi7kbe1y44/CQ/a79MY6dENxw/U5oMcijxYa4R14/xsDP97F/i+sFBxBLJLzgBHOwPISJ5u1K93fKqXdPyHMqeXzxNEx6DXjhfMZpQXW85Vsq0Mp3N1EEDG323U26tbnDhYpfg0zTAk2AKf2et2I4AXuR8gLzho/ky6jDd/jL3tOjl/QFCqYcOJcveFcRLSqcCQy0HN+84J50+JbGduifOXdsDrdA2FEZBydTw3V3QJAjXFt8vGdBB96HRnH6dLM+T2QGIQ1W/klrp2u4a9h+bP8ycvR23ZRXCdcvtlE/xSrOk8BhhyCniuuCrH6x4kzoBSOK00aYfXHz5NG3vqz9ToZr8ObdBWz93Gw5YV/3vfvVajUZCgPAaMHvJXZDd71aLVzeGcQZ/LuvIa/S269WbwHD39mkaAFiVh+uljLB6YHf9Tv2J6vVvscXDmeaoYU3nKDm117geeFn+++P7OmXvd4MiUpogt0h9u1lc6RHfwjWjxqqooLNnlW53uj0HPeTcoUbrO5wK2C5pV2+3olzRNK0yIva6z1ynBhf+r3tEmLgzRNbPNDaiuZITAvXf9qppMr7jx+fWtl74+nriRZ9V5G+J2DzS/ZJiUVfTzSeKXLjFXb4tm3dsvTRgg+d/6zafZNTa24SGMOyBp+UmdyJSpo16D+9yc3AsE38QcP8GLquvxj0bbp2GlZfRbLI4+yz6hsUJ2NK++rMBgbFCTfPPqmbtnrHZ5+//jOwUIdMG3svmfkdSnc1iu0v9AeKIvU02otwC+XonQkZcGIQmXpDWTj8hDEwtClcgNdPVSNKas/bG3Ls3W8+Lu4PfUGmysvvUa8mj1BmOI3YDEFiKdL/ZJNi4GPRymnhPw3kLt8fYU8i+x8wuaNi1ydhWrBnD5xPLbHy2FT2YN5X+wFlkugt5DxbDtx6EVO8xjgBYmTuhe9mcpYzxotp4a47fn/EIBf6upP0+yNLP6KFRMf8AFJjsCUoIjUAAErQYGNmoj7QFGZ88fCdrxT+BMeO8B0VNZN7T+l9wY5UD94jWvjLY+/SHPNdy42wyL5XtGRftFMhI2y0/GfbpkHL4dJMBW7QkcNviKjk5mx3D3KjPlQqj7nK6A4/VDvGyd5QOi5VspMi6xHeUNmANIpoZFNaoFzd94rKyRH5N+VuK+2jJN+QHiA5Qo067h6md3naFq95RMoTQTB+iXdUiYjGxCUz7ttDAif6poK7+Hx5xOkFJZahr1agdYbKESRC675jVU6/0LYEkxXM2nImlBYavUhp/KJldjY3ZPK4BnuaJNCO2XLitEvgBOnTwm4QhDgFQZRhunCf6xdWxz5KkEwFf65laUFIgGlBVhQ0KhlaUBKMR/IfzFzuvVGOFuFOzdKiMA1vKC3c77BjHyW4IrSYyRkfJY1cPufdypwWUsairjFaSH9COlkKTng4LVw6vu7aVmKcTtEifKRzBPFus/dHTnv9HQgttjmeiESSOkhtJLRwHnJWHjo1+Gvii3zvSGbLQRX3G6ZArUWcDif4Ysn3qUCMN6viHQk4F52wX5CVCz9KJfooke4QEgw5LcK77GxTPUaLiCh5PkpMv+iFL0i5pizivQk4Mb5w8xN+h1qgRS1foQJaZHQt8qIQvlY2f5ZfL9nAea/Z75K7D8iVtJQWu2PnZr0l3uXNqY45FnQtKrzX+0Ve+s8LyKVFGz5KmTnyhyoPu0xMJn0+CGuV7BqlLD9SBWAF2GPJ3kduJErS3jmnehNSPDlOVH1B+qVNNl0ARx1AaLOMbIPcOVIlEqXsO9x0j+ju7ZTCYtLfV2gvtCToj7eDpJJj0GeB/blhsQe4Az1ScsRAX2YHt0mJuaKUHb6ztx4NnTWvFz2lbbC1Uy/xNngcqyu+w13yfIQ9yug80lnORxMeCMrBT+yjRC+hmywTHKb06ZbF05Bko9orez07DtxjTxSJ5yOSuveZfGA4sUfqh/2k5ixp0crD5Ujt99nL2nKWbMu+EWc5pHsN997CwLdUB14kVh5Id9reD4hXHnqxZfDK1zV6ufjtbJSkBcGJ7YHDDcXJ2jj0W6Y4y9XRjB4DcFsO1gc7j+1nMg2PU7SjmoWMkWUCTB9k8dZLYUe1ZxumkYzHYMeWgYPAF7ve2L/egsy5mdljpo8lw4nug937pcAXB8e/XhXyhVLMFyoQLRK0Q+moD5scSxNrB46wsKMIC5Xb6w5LGwdvqWCzpj3zvpNoDFvdUNK43hQfx1kIo2dmawnnJmkWfFA9ary+I1VsoNLwZk+1GS1UGg8ysNUl/SAiBj0q37Hmg6lKgFXwuB6T4VExthajhSFEoiQ61E92CJtvhK4adkqOHImwkEdML/SGi9nz8/xjwqyZ7kRjeg2csu227z/Nn59nh96YmTcWkK3ZBuN8N3QPqMp0f03/7dxImXMz/kVy0TEChlvWvOfsEQa303tq4vMOkJyb5cuRxrpW3rkZnHPDguv58QNb7vBG5noNPERWSlQlMt56CytaeUY9biQVG+n5VvZ8RDLYrUz+igLDWaSmi8DBrSaej4Bm+kW5M0R7m3N1qzu50WIdLzJzi8l/M+LvysvMAQZm85d+7hkiI8bwmW+Xc1698yaG3CItyvrxbbx0P8brvpzwB5qnTtYQ+x8s8dQJ6V7pKww97x0qyoCuF1oi6mNKZdMPDrz10xgMV/wwS5wjpd8fEWP7seWRLLvcBGnIMeVk0gNcQmrL/f7KEXBxfW9m2QyYOo3JcLQWT/nc8eQRqmKzfRm+9MQYd3e4/0PEIhZDbo+yJ8fJeMId9GeQ4QT/7JMYjF8gE4saMSt5SKZGHWI4yfxlRZk8y2jzDgk44QPLWL/I+ijl+cDA3cF10EqAUhCuZ5YWOdBFp6D2Zu+HpIYXBotbPesPpJnb9ZhVGborfPkiLnm/Rv98B8moD+Mp9MY9LT4Rhpsnd8iaD9dzK9a14H7o+Z7GfZRK6RdN3x/ZzV5fXz+m7w+kSt537c+P1+nrdPq4JP5geafUy8cP3MhsQ/mOfPnz9fUOgPTucj6dLgVexd3ZEAw+UPOmuMvTt9OPpVyAU00fpVNx9FArjLzmwBrbNx3xapEh5e448ppc5Q9KRYMjYIJK7n0DBe+PnPS04eET9aM+CquUbLYRcNVmjwEDRrlGdx8rJUdT5cDl4orqe8FVjCu6VGz/l483qxOHqKS/e/aojzyv2SY4ATHCQuVRHzj2QosiLIj/MA/P0MSoD1UIGVHFqA8t0Wx+JAoHNo4D86gPkwNXxSnToSKcWntbodu45XI4NYlb/hvb/ze2v/y5Wfdz5OhLrOByc6SVderE8tdo7ezXxKnG2pnmbKUDmVrylcnCqI9zydQ0Lf7rda3/dzq4VEsH/y/bmx1rttaePbE/bnJTw1X+jiqPw86A0/8BOAQD5v7owZkAAAAASUVORK5CYII=;" vertex="1" parent="1">
          <mxGeometry x="653.9" y="338.76" width="30" height="21.24" as="geometry" />
        </mxCell>
        <mxCell id="2PFUA68c3KtspT4KJn6I-17" value="Prediction service" style="text;html=1;strokeColor=none;fillColor=none;align=center;verticalAlign=middle;whiteSpace=wrap;rounded=0;" vertex="1" parent="1">
          <mxGeometry x="703.9" y="315" width="60" height="30" as="geometry" />
        </mxCell>
        <mxCell id="2PFUA68c3KtspT4KJn6I-19" value="" style="shape=image;verticalLabelPosition=bottom;labelBackgroundColor=default;verticalAlign=top;aspect=fixed;imageAspect=0;image=data:image/png,iVBORw0KGgoAAAANSUhEUgAAAOEAAADhCAMAAAAJbSJIAAAAgVBMVEX///8AAADX19f8/Pzz8/PS0tL5+flqamrw8PBSUlLg4ODs7Ozk5OT19fWVlZUjIyPExMTMzMx2dnasrKwXFxcRERFBQUEaGhozMzMKCgp8fHyzs7O+vr4pKSmGhoacnJylpaVgYGCNjY1NTU1ERERmZmY4ODhaWlqBgYE0NDR4eHjZi8KMAAAY3klEQVR4nO1d13raShDWSqh3CfVVr+b9H/BsUQXhE9tgUL7MRRKDcPZndqfPLMP8OXFJE3Zdz3/hI8ciTgSxykgXULx6Jc+iBPQC+ovzz+yrl/IkGkCuKtqJK0H+6qU8iXKQl33rOCkwXr2UJ5EE5BRgOievXsqzqAAmQRjqr17J0+hCAALx1et4Irnp346QcSOEsNNevYwnEh9iJvYuhDBBZEmvXtDDKUE8jMBMpnF69YoeTLyPGHhGIMvcIEeyU169pMcSxKhMxEPZsg2iOfy/C+GwbM9ppw5/0y7VGnBL7V/EQ3YL0Bz/7qDyt7Cx2gD0jOLS0X/6WQJtVn31+n5OSbpGGNnMyXYdb/wxlB0jObpu5C4bJrocek2y5NW+dY7uGBfBgiaNPvC2VI3SXKHODu5zwBGMJ9oCkjsiYqIUb/jaHJyJxRnD692kcmIDVkAUsMeI6GyOxzFwLFV49TK/T4JI2OQsAqe2bAf4ZebC1RGNlaNi5NyNLB0xDgXemPrK2AFBcUzFoeQfW3BB4xSQ+omC4m/eEm3uxav9KkmJMcjRGkOTQV5RmVNC2KVC19tA7KpjiRzYrzUCMMXEKvLCRc4vDypssWl+MoAt+a1hvXrdf0zW+vyFFcz7MDUDzzubogUARE9owNyc0XMa4kf8/BhGjuosS4+SYnviTBCyONqP3grSrhQzS12OIGuCGgrvfyRZgslsmgDsUmrxYVPGha0zugNygREslwpTYg54FfvunNRKbMVk+WDuAjw3YjWKVMw0wDNFXdGfJ+478L3VB2cPcpM55z14QWnAldRUEMKEdaZQI9tNzznwJUv/U7LjOtzlXuvyCpsUhmFAasboSMZqygRZWBzKwHxjm1yLuz14pgORzwvL3umRdpwTNdzKYlvpyEIxnHc9jdaOqQY+kPRAUAS7TFRd19TTnrw01tLIYKDznkI12UKLzmFv8GSp6I/qLls4zvZBi95Wi5pyMj2Zxa+t+gt0BdC3KB/ckyoG1R0ByUmKKyKR448/q0bfIZQNuLxhwGoRhl2PoxUlS46ZlKsS0h357bbjVJZ3e/qRVZqYzQdHHKz326b66PXJVWFpkIhPkqU45U6iwGQbKD1pPExyh5gHURdgxbih94OHyCJKoqRQCEJgYYTIr4+MUfpLPIRWUuTVpfQno6eHltuBd5Wda8rxcnNVsAzkJ9AdSwJsCvLsIxc/AYeyCdOPdPKszLJKbF5DDKvAe9sxhFQctSgYKQsANlNsvAEjkRgsupX2KuPWG0OuKxT1NOlD+3qXviOxNWIKkadUpnBWewbOxBo9ubIEss2HhSOUa2CEFaOW1AekpAtUu0vWOonhOUbpe+HGr08PUFSk9Fjka2gnytSWZi330qBtqiuwnsCd8RHEYVIJnda1vAyz/d/6TnQaAGgZBeNwiDgl0UQ5gdXiBUdpbFQ38QoVydHQecGSv0o42ksRgj7RGKkk5tfoZ3Q+Ncd2/CLVQWcwLX9/wV8mFtkxhYr9iBB5gnG7kZwpVRHiTt0JBIWkpvLvL/jrZETgA6n9ztj1DwEO/u7odcEBRZGY/u0770dKg3kFIu8WW+9e+ng/8HvymjwzgvC3V/stim+QRQGBG1LhspuhUIGT5w5If3Wl3yX7Jr6WikOVOU1KBIywa7ewwMlgCcxjJGj8GyaGmaUhEBV9fy8aygOztwxgHsAwZbbVCbKRp0i4DIWFrM6Gsk9DilJwt1EmJH0rXZC9Y5ShaCuEsc4gmXp2YGL4GAR5P1ERoq1OFAxRwWEa+yUr/jKtwqTpRQRh72GdjzRjSpjIFUghwqtEk45VCNyzBd6RsDRtlnibTyPf+HhS38EF5r6JzQP3N9f5fWJBFKUTI2VlJXHoQXTRPzdmzZTjVo7SsSBE4a08DcKuoeqCY2BdboTmacphTOL23Ulob+0Z0bV4jOqk8q6lKMaWWSNeHsS/v9pvkTsDq3t6HtvJFoWiURWDYW8Vn0K3LzxMuTu76MOEJ1YclSAnAakST4SsezG2mq8gf7rItzwGabNfETUZcqf6guJhLzl2INNMUq/KEimLK9D/+lq/RxJOcxLTJhSxTB1D2QKXmB1v90hz3FhnxBYQgXwMw5QeRD1Df+SMgpzega5bcFnLRC9xiX8T+yW2agWaozRl2Fh6WugPr6mQq4G9Co6xErYXDT/EZ1LZj26X4QEipoRIpQJusiip4ugt6LJsmaHdq/CfWNdZcBCzbak2OY+lpNgFrpKenElVu5u9zqKDmG1j+mIkD7vEgZuDHifRKtZO4OIhCthi4/E5VTUViZrDtGHiPiBvZCQJ2UCGc8EA60g76Yqlz7JUgBrDldgit22D+QAHiAlTsn20MbNs5mPB4TqLlD8RaAKTCyNGgUfef4gVPbQd5AcfxWzDOSijL5UpZGPgbag50RzoLozcmVUfTINcYiSpUqyP9g3T2vtUgZCr+bG2Ik0QmhOyUC1GciW8JZVAAXMtCW5ZQJa4hBz86jhV364JFCu3Jz94UJgT+suGINPQUdOEs1HNVfowBWcXa0xN9cPD1F+yDXCERJtrFGVW6EHEV8AVEJecQvTdaKpb4DtgEmClA7wDpBBHEoFna2pBc9mBCRohAQGfk1iTZpQ2aPsJjl4DL0f7WImcHBSvXPSXCB1B8aTaNOnbfQAgnS6AT3D4gi9LnjMD9FZKzVBkpNfI0kl8XQPZUWxvBh3BFCostdrOnocOmqQhL14ieWKDNl2MfiPawDISOwYvqWl5FNubhL4HvZg9xQ4yatbGwOKJ9OEl/NdUQKQBnBtNWFY6ju1NtmnD2mM7gtmEwNFnWw6dTtU+Z24xPTxFNZDhcxTbmwTqkZYbM1EOi1zGXDcC5BgjeKaHjBdFZa52pID9ruItK6F2CR23Vl1XYsoKssjFcyTLAdiNyGicxp/FY2RnMEFkfEOuXhBGCd6FuCYsqardDAXSoH16jOwMJv2MDGlh3TZSoW0IMf80bl8ncKpQHSU7gwmpOY/lwWabMrYYRGlzX2Am1Ew/BuGMhcitqzEgY+GUNyyCu4yyu+4w7gVzcoDTQXeFENB8Rqt04N5p0y9333pDskCZm8pSduIldkVquJUe3C0Oyo+SnsGklcAeumzp0bNwObTYBexAgsK7YwesMPj1hX6fXBArZricRBE7vScLCi7wNWym4YckZaPjpf4IZaYTISNbXYfdZpNMJQgl4gKf1k3AHIfMoCMU8E1kIB24RlhPEOVo9A2vPqBUmuuZv7rGnxHvA2aJuAWdF9QF4Zja9BJOVqQiz6zb1JQ6Qc7HcRx9PJ2mWqpPQtI6GxjkNJaBDwod/exa9ZLF4IxM/0TQviGxIcDNiFsivelYi3TYDz7zor9sVqsQVJAeyHJDcmOwrxFif1jjZlMgh6BfguC6ZhwoMIxIi1J43bSNSS6qqUDTl+oleMqccOF0dyQmDsCxRxeqc2779rxSBLYBvGJ6nnqUb9xdeUMqMJOEKn3TqebSzLgc/1nCtsa5/skaVXmsQdPDRIYZrBN7dqxX9MZSdnD2K0HlM8wuryNMW0PC2eMDufqMlCKXT5x4d6Y7ltHo7Ii5eKpeEhYXEmo8kk6E2OSeohlR5qbApTlS3aUB4yANy5VoERmpvITgMDkaxKgW1Kpq4sAwxhPKk3069TXL29ktHCNYbAHkAwkby0Q+X4IkTT/5ih5mGceLo9tRXju9kipVx8l4014hiBuE5GmeC0miccbcqidfd49yjFSAA8lTvgHhCZs2c18lGaKgLd3pzY5gEY80I9OIgCOsBp4A38f7VFhq/EyxWLc1n+wT0qTiEdpmKQk18Nx1DYphyYRrK9CRZ67EZ2YISGkcKGTDn4HPMvkSsmlpkMba9p8sJ493VJw6LV603m8QsmocnRNXaAYeY+SRSoxm4Fcnj/cOUwaGrw4A51zYsMwbbNybgBBehi4ICcx4dRYREyvgHycsZUcgtJmreaa5Sg5nbPMuZe863g9J1618nKRwjvOJ24Gm6Di6PBaxfs4quRcjA26lNVTuxMDwMJXRpE4q1LQrhMBsK8LXJuP56mpOpBYLWM8ML1vyV8kO0WLXnZe1S+I0HijxT2lrM+omCq5GOemVPkifCUMqFtn1cBfsBPu4VVgWXJ9MpoebzJpgYB+qJxVTxyCuAqbgrEYNpl1oloSBZV7SVwptBVLzcfFJDz4OozPUEjnDudNMIBPWdiuReMEBdv87uUPylV8w2p1FenCawxjhfBrZjMBP7jARnLpd9B4IDdcBdZUkDvCMpR3awiaA0oH6MME3i+g3d+xsS0fdoFhF07ia5ZsxZK1C7LdzMJUUT2N6xXK/QzkYdGau0DDFfHTvXXA2ODVxut6JnQb4xsrt1+rVt/H2pJegwF1qE0VdWxVF1YY46pZZGi6n9Tz8+kq6QADYJjiK0tBCfPyKa82/Q0tVO2eA0CNdxYcg28SBKEv0qUSdgjcpYl40uI6/2ATijOhEU3T9QeJviUmE6MTGyCRQTRLhEC13NYdoCQtLGQnShckh2CgUZ+AKdIjULXmEh+kHgT0PYGL0PPrA7kd2CDYKyM2otB2IESnWjHAW1YbuBWHNlkgNlElRo5wcoWZKQDu0t8c7hFZ0LqwWADycIMejbnDjzaoGTMkDgj4+BBtdgL13aw2xgxfQFCrf4+l7yFmmbe7RKi4sKDQT2eVHYCOkQRlplT0lQX+zpLN7TJfTM7JpN5pepS70IdoykLdI4k78zk00dH6PY0knTeK4q2EosO1M7Cr/Lx8FJRMN5YUlx3xPxl4zbL8rUynUTm6d6iarAS/IjovZT4sYOcVBO6FOXxnJUmIQJOg75okGbAbKTFO8HljQ3CZLVQVBDDLrfhpVgFhSh73/UrEkFXgMaELWgjwnijB1HBDm2Srjv8MFjsrhwCnupDYEdxRi1WtNBA4iN8pLZzstGnGZmTGezjDO/f3JvGM7jpzBPQzFmNWSX57cYadbdTw8LiuaA8bm5EHGTnTHbZrObyoPN+5xktMcyTsUPKhjR0YU7s9vB/edX2yrUlaf08sGpIV7yTC9Rwhr2lBBYF5LVbMXcW8GqEVwHiFoyH8WENEfMt88n0d+N7lyoorFmj7/LllkGwvP81msiDSV+51hdpiw3OSSTGALUe6HRKE3KvBJYs8j4qI+txVtup8I3FZx6i+SO3rug7QsHZvPQlDld7ZryyEJ6dhzErIv+FEhwnr9nD/PqfJ5lmVty7KnGl21ql5lAdhD1MWVU9nWcIeDeM9ZRupgMKYJxAQxLh3ojS4M68Z7d/QBs6nxLGazrxJb1VWIbIDacJMkcd2iKFzrNzl6gj3o40KsLPt2LOFEJAHXgLpNcxUPwfHksC1oakpiLdeZ7Pg6rqrM6btV7DnyW6dNxysYp9fD4lc3rYr84jJPnIxX7mMkKjOtsf5QgaNYHfDqOKec5CSNJRxOVB0ZsydVU1iYX0oENC3phz9EZMubyBK8DAOuIux+16TjkPQ/yy4URVtCHoRxH6fBFRIDe4YCQqo0lckMP4Hc8tYUtp0kcLrmBGtcf/xdXhCBIGeRd12RMJH36+pSFSNgFqyTCQzEV0SMIY2R/GHMh9cNcBPQOSUSTMpUiBv4txNTo+DONTAjvaIWmcVXQBoK3nZs3Jiy0/bdJBu7BvjrAtWSjYEcp7JZ9x/l3o0T/0s3tVi/g9FAzBMhFvBq4Ygu2VJ1uiNiuxpz1DB8sUzgfRF8lzrxVRcTaO4QAt/Ad+1wtuFkic3yFhktuSWP3MuHXx6M2/V/SmktVsWvKosr0vkkNkFp4E4MDTpdP+RJkl1vRG9W7XdN2j0yYxdfgfrydmNJgSJSeJecZwTWdeo0+NZJW+jsk2mVSJC9TymZrlpOALyuj42ElXQ2GeQvMWtFdaFIiLQiZl/Ou2uSEpEyz5QHl9WZk2JDpO1wA7+SNYHnIW3Y1b3cmB5WcNEOvDB/+65Uwc4vfRMS3Ra2BmRVxI+Tjs1pbmQJsmHsNgJwKSuLzDAMu6Y0Xu7l/zEplmtkjoigml4QNqWT5QXiJuKom2dInyzQurp0BiPhbfuQt39KClIdbpEbWSyWtY8UZeSdzbTz67514spAsK2/4bJoTIKEbGvk/mGybZ5VNPUQubd/9I/+0T/6R//oH/2l9EQbi3sDK4fDfdBP+t0n4/W9qBxLijGeEpk98biWY3ipS8+xBXV6noBQsmkhS/xghNKdSd0jcbqkzg+oVj7Fzx5eTsDiUNYzEEpGLw4VctLyvJgJ/ZAbRlVV2RA7YiuOoXReXGJLj+78MeQ5nPHgXcrOLduRh+h8xn9eB0/GixKy1UsPlqare1HA8NggDfcHtb/dyMP1ELAHh4r01WU+D0aIL7hfxdfPQRCcMSE+zoyUp0N3MuZt+vBwil1O/1/2+ECbNafRDV7DpOBUc1JkY/ZkdceMMkmaJwQxk/BpCOdSiJvbDGm+XVz9l1On8+MXwTC59zSEXH8HIa1gu6wZJj8PodI8DeFUo75zIyVudd7MD8qfh5ChX/RTJt3YdxHqiImbhknriQhL8qufUrrH30WIpwsPO48+YREM074EIXNVisU+EaH4GoTcNr31FyK8oucjfIqk+YdwRezTbJoZ4TP04T+EKxoRPiWR+Q/hD2gXIefulSD9TQhVek3HFf1NCO3dSYH/j5AT/gc+J9x5giJ8uI+PaRehQefqX9GI8I7OkuykMKrKKOCdcNLJdnOjytATbmJfP7NByLGsdnqYyN5FiLy14vbRzxDylTi1PaftXq2r5IpL07DZiO72G9wgtPq6FJ14GIZspPwHeHcQkomzO/0d9xHazqrlGQG4Hf7BlmewIW/LxQ3CHFxT8IMC4RGhOaAdNDhtX/sfuD50r71nRHhzVlTnprr3eovzt0VuW0k2IqSwNfHm6R8E2vmbX0a/tJ0ZLPsIhTHS2CLRxE5Lu7pWj04rkkkds1btNQFtECLS5xFOpt8Oxk+i0HcQpvcRbreXMC5lnII9BkW67SfJ+mdvGleIg6vrhK8RMhIJv3n9z0vdRoRe5/tdF6bmJC52Nv4uwilWPH4j45S3bY+PTl5b+CDgCwrSzSP0Y0veQiCVxPIjKhVHhL6NyLJwaV2GT9Vee/IuwjE1MA/5onEfc/MQCfAEq50m4Y6DjcS6QnjCO8PMHlKqeCtLdfcrCOkIyWX+nkLHSmzsBSob18vFjbObHNYWoYa/Af9B4wr29GH7KcKra7rxthaX1SrpLQ/pUd1EJvkc3uchW+KDzT9I5+8hVD49h1fmnMTy6urL3kM46rcNxKvlrxGSCRU7LdPfpF2bJvhMln7+XytEF5gbCTHJ6yC5y5YFIUdmqDVfwfA57SKMP9OH/4OQCGNza/iAibrkTmcBRXiRGMm4ObQ/pF2EfH/ZyWX/EUIaGDe3QmJlhnUFvydAKEJHmsyZB04n3Pfx1T099P8IdTbp9xCe1mZYati3GMdpmvmcl35ctcDXoxh3EOq2a8RTSt682ovapn2vq27Wf2OJtg8LLH4d4Z6NyMGh9VfewzVCRio2bTTNlfN0izB62LSwRyBUq2nYd1pSN+q2M5vbstGrtt/BjLBnJ9P2Uf2GP0eoDnRrpjE+X8p5HyFDJjGuqNi8NyHEV6Bexn36II34U4QcpDzpR/WipXcR4uO48pQ3RsGIkPDNngaBPM9qu0N7CLlxpsV8aqhNk95+eny7mvvxN/O/KcKxMGIatP2YQr4fInSv10JtmrsI0W+ZfNuNDzlrfEzTdn5M6+/XEW58BLqhloF7uwivDJSE+qDn9WuTxqc/TXeEN48wbX6GcNxP7iIY6S30G4SFfCX5qbSM1i+NCCfhMhlB8gMK3eCPEF5uDgyVpRuE/fV20wifvfVLFOEShp5G4fxc8XPGnyMc2b32q8YrFFZSb7S812IQrbbc8ILeWLP5Fsq1pEF0AhPEn3JRGKdwNH/wi8bR0JfVS2PNojlLH30UPfFJUvkxBNiDqySBRnby2rg+UZ51ixRjp1q3/odncbqF7Gz8f8xnLJ8yV4ZzMl0ExUoc7sDjt9YXu3yutOf9JtBTtpbJcBQti8/GJfM1YffSBH9CwjIN0XMSm9U+2fXaXIFpGnNbpDSV8wVD4ebxdRs+RUh34DmDrCbp6FugAFfqUOfLCU0yr0Gv5gpJB9r8t7q6+aLajKc4N+0A73jhWlGun6xFgz64HmpOlmgst5t0Y9B3nunWiPEQt/T/vMx7hrOy1Tfjt0NOvxj1sryads03AovqbewcgPpOdPk2lTA6QJsJCb7LCpMPG2X83c+iQ7GwRLtp3h8DUturCr9xHrGFG4WNXLZt2cvNBz3+d2xBAiRKO7+p69rvgjlOIcB5gTLUMGMVcu4u/DJ2l4+vRpk4az9/VQYdnYMgWgUV17v+O9dHC5IubEiX9HuhIkFTr56e39LtrOzbCkrTS4KVW9v0HydIuIndD9PQ7wdr+79wVl5AW8Et7XQV+vy7JUPM8sRC5/f+yhjmPzlulV+rLXUfAAAAAElFTkSuQmCC;" vertex="1" parent="1">
          <mxGeometry x="789.9" y="336" width="24" height="24" as="geometry" />
        </mxCell>
        <mxCell id="2PFUA68c3KtspT4KJn6I-20" value="" style="rounded=0;whiteSpace=wrap;html=1;" vertex="1" parent="1">
          <mxGeometry x="425.14" y="170" width="160" height="60" as="geometry" />
        </mxCell>
        <mxCell id="2PFUA68c3KtspT4KJn6I-21" value="" style="shape=image;verticalLabelPosition=bottom;labelBackgroundColor=default;verticalAlign=top;aspect=fixed;imageAspect=0;image=data:image/png,iVBORw0KGgoAAAANSUhEUgAAAQsAAAC9CAMAAACTb6i8AAAAwFBMVEX///8Abbjm5eXn5ubl5OTk4+P8/Pzq6en09PTy8fH39/fv7u7s6+v6+vr19fUAW7EAarcAZ7YAZbUAYrQAXLEAWLDZ5Onr9vsAY7UAX7PT3+fw7OllkMeBoc4hc7q1wtvHzuDY3u0seb3m8vnI2uyUtNd4o9Cfuda+y+O3yt2sxeFUjcWIqs/u8/htm8o/f78ATKt3mMpYhcLa5fK90+gAS6u0zOQAUq0ARKmUsNTO1efg4+3N2+bh6vVmlsqEqdOAEZv4AAAaMElEQVR4nO09CXviuq4mSbMSslGG1DN0ulBaKHBu6WNeZwr8/3/1vCbOBlmh593x951TD7YcWZYtWZZsAFCyJFmycEaWZWmA/tqSLCsqyhgoo+ESDZUYOKOgjI3+DlCJnADGJSYHBgy4z4F19FdVWLM6B+6LzWJgkwPjZvsiThFwhFM/jRMGlhI4SVVwAn9p8ZcWhbRQJIVUkCRJId+9kqQrAopKKC1QhnwXl2BQU0GVCUaoxGIlCvmuCEy7g0p03iz5LgKWOXDULOkOB66Kk81wUjjwKZyUDE7AQkk3TXOAM+ivaaC/Bs7wEpOX6IVVikuyzSaqDCoCJ3A6DlyiWT2JEyE7oZwSU05KjiamdnI0pXhAFD4gdDQlBhyNJh8q3CwdTQ6sCMASB7Z4SQ2cpAgnMxcnWcRJzcFJbn2WJ1eezCz/wiuPyBfsu+XHQBxapXgMeLN8DLLAxXyRxEkrh5N5Gic1B6c+SgPbtk2cQX9tA/21cMZCGZ2XmCijiyUGzvCSgQgclSSAjTRwotkscCOcBmmcrFycUsCAUC5asxXpqqwcuZIUQnZRjlyVXrMlpbQcKYcTB87IkfI4gcRE/atf/KVFQtdSKOOgv4wfUYaAogzjR+WK8iPK0Dmi8DmiMH5EJZQfBWDGj8qVzpsl30UZNkeEZm3W7FUCJ6kGTtZRnDQRJxDjhMku8wEhlDHkmHIy6QEuIbXleEBkQyS7KfMBQRnOYTLnMAJspIFJs4TDZM5hHFhiONmNcJIq4xTpF0rMRTFzFnC2FDOnwpnzNGdz+ZUFTsvUQpyOzDax2cqzjQJ/CV2rj6sCezAYqLzKpXWtOjuqlA5+bEeV0sHjHZX88j/XQvqfn/JlcNJRMnDiGT03c7wkv0rJZg3dfA96QvJ/mxfBCTDKZXdUxaNJ+GsgaM6p/XH1Xd5jghbj3zVwSmvzStld3lWEE+Az6qL6RR4tLq1rYYhoxWOgBav/QEl/ly/gORJJytJCElf/o7SQZKWsRKqAk5bFCagoGVpfs3AGbVE0Hf01NZSxWUmflKCMgf7auMREmQHKkBKLlai4ZMCBk81qtFmbN6vzZilwlhaVcFJFnDTerFUZJ6JqJjUzpYy2qDTRFpWUtii/JNfOn3I9nKyGOH0F/UJL00K7jH7xlxYx8CXmSHpH9VXmCF1QNLbUoESXGpR4CVunNLZOoUTXKVbFEoHNNLDFgek6hRJdpzS+dmqFa6fQbARcB6dMh4pwAsWczZizSKZmZHkl+VVBplbY5TWUqfm0OLeude0LybmortVIB8+cUR3Vd6/ydPDl8y1KzzjhzLIGTkkdXKmlg3e4N4szp9LARNt1fAxmkszgDDjl7c1KnJs13R+PvqH0MEIJZ0ayNHogGfbDw5WkjfgPpKQxTuZJnHI5rHv9Ar79wlYJx3GIdcLtazP+A/1F1l7+uRaq/HNxXaszGx/87opS4h5qM0/8wUW0GOfrWo1sfEoZWkgpG5/Mzbek0aydFZfk21kzwFk7q5yihXvfhzM/QQsNZvXOuFm1NZw4sJ1pNgLu/EwgRQsA5klaFNhyCrVFZfQCj+NU80yAc1GH+kU9WhRzNlw4Bzaa/7pzs5ZpYc6Dnn+/6dxHqZOz5ZpzpAinZYiB/G3u2TKfIzXOlq+KfQ7U3PP9vlroc6CKwML5vpGihQFTcqRvpddO6whO+hOFdqbgNE52AU75Pgfd+6Jk5IiWkiNy1n5R7Isi/xmyauG0EKeavihn0LVStIAlaFGME1xFrTmzM5ybteu7lqaFltYvsrTIOTfjOGmCWuZvCnAq4bvGmxV18GIXQEN0ARxkXQDL+g+aKb1T11PrhWGkz82MQpx0kY6uVwmnUx0CfNnt0Nf1jWw9cBqi/3pIjvxieWeI/n+N5Mg/jhPX+fX7CE4LkbDeSuU4VfZ1ze7yQP4sb1W/+HaD0ugBJZzZIak4whn+ww36gZagH3Y4YxfOcgB6iTTciDh1o2sJm6IsLZTTtEh7kGhkiwBkTSMwJvqBNGuhjMFLMEY2r2IIOxuBFjsnQQv3u4hTlhaVbG0dzJHIUkEziC8iwwT/ITZm4IT4IqpCStR0lWWEU1Ir6/WCZd05kuPHlz0TaORldaVoTmSqQH9//QfCN/GHa1eTp7+47YL8leSXfxyhyj8/Ze1/HaHKr4PGdlTw1UvSwvuAMU4FZwJXx84EZDrSpEOt6xdakol/wDr2i35iKnivkOGUoYW7gFn7xZc5N9MSPffStCinaxXS4keKFj1fh2QDb0Go6Q1pIbXtrVuDFtlzswwtGE5wn2gdV35dLe4nKC1WHy/fCnAquRqeDtyweEm5qA87RQs1vU9V1dQ+1bTT+1TVTNJiqrL21fQcQYWuS9p3XW88vJ8t1RqRKDSYBFAuqh71IfooJb37k5j+qLVnV6+TtIhwmmZokUiuH87zcCoVcQD4jGpP1+qMFnj+J0HzUrB4aKZr/Wv4YjfsnUqu81CTL9BMsckkslEG/e3rtmmbfZThJRYrIVVoCaqi91lJBIxLsAXmFC2y64VaYr1gOA1O8gXWRRM4FXcoLiEduoAc0dJyRCovR+SsIMkk50YpjEQ5Lkda1y/6XeoXmvacUMtykvsdVvcH70rXSmLWrt6pSfopvnA+W/RRarofGVLTBE3XfD/CjBNDx0Vz5NfQESrR/chwyE0cv6L9CAO5xvsRhpN8QpJ4B1h7P8Ip155M3XHjBLFSfGP2ix03VzygHxJVRtx+8cDtFyre7Io2D7JPZeO8O84YbgKnS9kv+HfV2AShyfSwD2VIVEQl+4XGT0Gp8QM1C+Fyuz4uVJ1R7viUOqVuiy+W35ImiKTLRcJ+UVjykC5JVHm4nf1Yh8Fxrgi3sClfVIz6yLHlzH/F/hSiccJJeFpUqJIpcXzfO7Fuuv4WNrF3Ehcd7BaEM9g/yBAzUcmJKubqpNjvPvn3D3YK7eIODbJVWjofgYtL08L13ZkpsoLoo5Q9H+nQRwmuL0kL1/WvFzNLa8GuVTfqQzBAwwtRIQhDz/cX+/k3Qzvto3QqEoWcs2Mv4T6PsMCHzyxwo5+MsOjzkBF8LM3CM/rE+XgwuQgpwrs/f9BuC/cvg1Nxh+JIlGSHmBwp9FFSiqM+Ej5KFyEF2uzouTgd8VFSUj5Kavs+ShehRfgpf0UfpfsLrJ3uGn7J2P7TZoX20/BRbu7HJ84RDen/ZKkhOwJVBSTCAqBMFGGBS6KoD1xCoj5w5InMgS+hX7hvgOKk5eNEdjZihzSxQ1EkCu8qWjtbkqmZM5zuU3gH2vf7bUHXSpmqzpHcNTiOUyc+SkVRH4IOLj+fnRbDz2Kc8uMETurguREWeiJTokR/uD6NfavJ+6GextYoWUIzIEG5CnFFaf+LUybZ1mmxzI8rSu7Zy8UVte2j9HZeQRLMz+YPXj0OMXvo22XCp2+5t80U+SiVikPEKoUlxxJYHoBYAmOrYySB5Uh820AFAzkW7Ngw+RiekxbjB3AUJ2IsRRmibKASM7dDegSMftDltuKWJfmcgiSYwbbjltv0UUqdCHWa3AWQyuB0qXMz7fZ8jOEvwZeO7Zess2kYwWNbsf0p6wwOrKCWHx5hodoqD9yIS6jlh4dnoCo8cCMqAefangVTWBYnlVrt8jrEuyoAg4QIkkSLIBdBhfflSEn59XIeSeLvoVQc2y9lZGrp2P42fZSss9g8vbUYhtmFrtXsfi1GyHPsVZGSpZe6X+vULcp5Pko4pp4cG5ksI54smXqixEwfPpkJYPMMC0a4NDNfPoZTukNGbofoIVq8Z290wzkl+yw43ZmGpPjUjuBkpZmkdGx/Bz5KHVPCHX/Cc9+jVCWOPvHdbjcl7v0OVsfpYveDf+9wt+rdqyR4srv7wUntq2ZnAlHghrLsjhb+ui9XuO/3quSZQHex/ep7V7MkfDIKOPvLnZtFE/XQjbHP2YIMTl/q/ZHc2P63DqaJ5+7OcW98YciInf/+iJ33hMhALGn/aDXcD4x6OIkhI8XA1NvdbE+O8HhpuW1ieN67WRGnEjHcKkjuMDqK7VfvW5wm7vBJ/de9PyKMgXrf2i4txBegVMapBl+Isf213yvKCT6z9VU7otUPtiZfDKyKOFXpkNVBbD9fs2U4d5ovGr4/K49TYdzyF3h/ZDdpNk/coDfTS83yr6trxd+dhvVZwwvfni2Yje0/Ay3a2o8kdf/lPqwlUNyxe9gN5AbvjxTjdHQ/kpUjFXygC+QI4OJpt6pMDS8Mvm8NKNfGqeX3zWrbL7Kzbfk6ORHmIDKEN5z8eLQ7wOlC8WZJWqjQeFlNQv8UPVwvCLzF7MYUm73Y+yMt2DvzpbMMwWa+d53A89wMSVzX88bDcPL98P5gQk2qHvWRY+88jVO+vZNoI8Q4zDLkDiL0lypRYolBNBihSqLEtNLAQrO6Odg9Tv+zXuPYuiAYj8c+DrW77q3Xr9PnDQ7I12Pg9nDKAGdKqB2cVAGJ1aVEDHfx+cjpu48BhNbo27e7u98/f//EAVTA5LdWNHplsq3zkdxZ3uGd2OQBKZM4jYB2VryOdK1G56nFZ5dZr1klz2u2ZtTH0fNUqcp5at7hs33qnN0uPNO284ATzeYCZ258bBOnXOAcnI7H9l+lbrhs/UVHqi1mbgJVKty6KeBkNcSp+3sa/z0vK/6lRQzccmx/kxcdm74y2diPTxXdIZl/J40qVwFxh5SpOyQJPFdBRV9KCqxRX8oYWOfArNkUMGiAk1wSp34WJ1DM2Yw5q7w/ct7b3lv3+82nRXe6VvuzvOtzs2pxAmV18DKRKFV2VG3HCeQGVVR6uwNta+xMjEatZk3TNmsDF5aUBm4eVwTee+HbSC4azeMclthRma9h+NQKh10otl97HPZ6bk9rQb94DXu94AlcVNdqFIeofWCLZvh47Lu82ROrPzWNgmoeqrmxkTXjEMVXyaKgTRwKD/JfJQPRq2Q09gKS2wL9277MSwgwf1jM1vJjQSlw/CoZLiEO5ROg5uMUAfMQ02KcCjokvpSWG59KZ1SDMwFKi+eCOPoKXvYDcqfWRJOaa7CXiu2PaNFwlksmo8UXseX8pUWz+y/OP0dO41RzjvQzL88K14hkXsPN3ovC106YD1x0B0nOC73R2pnzGm41nNjaWQRceC9KY5nKaKEdsVLyZk9YKRktupOppyynTXUtmKFFbV1LpMVlz81q3q8V0SKp79bRwWNaNMSprg6ejrAode+aTp5z1HGVwdQntNBTwLhK4aVt9AdSReclOqBrp5n5MjvtEoB1/Hpk3H78ZXZ2prMa+G/5i+QAo1z5/bEM4bfd+/vvGw2SkliORKPJq4z69E73nB2VBo1vd9v3u9EAstHMyBF+Pbo2+6MmcJKhMdrg5jUoJ8zxtnb7Se8mlGF/hJrfjQwolT6ZBfmzvFi/gJ9P99fD8XgcOuvZEuToF0B7WU2uQ1TF8RbzZd4st+XpwnGC8Thwevt3OsuL9IvXa//6NQH8++A6qPlgGC5m0bX5mBaPjj98wz8s57T5cOgtfgLQTNcSFvAkLTaLMLot0fWc1TJLi7kbe1y44/CQ/a79MY6dENxw/U5oMcijxYa4R14/xsDP97F/i+sFBxBLJLzgBHOwPISJ5u1K93fKqXdPyHMqeXzxNEx6DXjhfMZpQXW85Vsq0Mp3N1EEDG323U26tbnDhYpfg0zTAk2AKf2et2I4AXuR8gLzho/ky6jDd/jL3tOjl/QFCqYcOJcveFcRLSqcCQy0HN+84J50+JbGduifOXdsDrdA2FEZBydTw3V3QJAjXFt8vGdBB96HRnH6dLM+T2QGIQ1W/klrp2u4a9h+bP8ycvR23ZRXCdcvtlE/xSrOk8BhhyCniuuCrH6x4kzoBSOK00aYfXHz5NG3vqz9ToZr8ObdBWz93Gw5YV/3vfvVajUZCgPAaMHvJXZDd71aLVzeGcQZ/LuvIa/S269WbwHD39mkaAFiVh+uljLB6YHf9Tv2J6vVvscXDmeaoYU3nKDm117geeFn+++P7OmXvd4MiUpogt0h9u1lc6RHfwjWjxqqooLNnlW53uj0HPeTcoUbrO5wK2C5pV2+3olzRNK0yIva6z1ynBhf+r3tEmLgzRNbPNDaiuZITAvXf9qppMr7jx+fWtl74+nriRZ9V5G+J2DzS/ZJiUVfTzSeKXLjFXb4tm3dsvTRgg+d/6zafZNTa24SGMOyBp+UmdyJSpo16D+9yc3AsE38QcP8GLquvxj0bbp2GlZfRbLI4+yz6hsUJ2NK++rMBgbFCTfPPqmbtnrHZ5+//jOwUIdMG3svmfkdSnc1iu0v9AeKIvU02otwC+XonQkZcGIQmXpDWTj8hDEwtClcgNdPVSNKas/bG3Ls3W8+Lu4PfUGmysvvUa8mj1BmOI3YDEFiKdL/ZJNi4GPRymnhPw3kLt8fYU8i+x8wuaNi1ydhWrBnD5xPLbHy2FT2YN5X+wFlkugt5DxbDtx6EVO8xjgBYmTuhe9mcpYzxotp4a47fn/EIBf6upP0+yNLP6KFRMf8AFJjsCUoIjUAAErQYGNmoj7QFGZ88fCdrxT+BMeO8B0VNZN7T+l9wY5UD94jWvjLY+/SHPNdy42wyL5XtGRftFMhI2y0/GfbpkHL4dJMBW7QkcNviKjk5mx3D3KjPlQqj7nK6A4/VDvGyd5QOi5VspMi6xHeUNmANIpoZFNaoFzd94rKyRH5N+VuK+2jJN+QHiA5Qo067h6md3naFq95RMoTQTB+iXdUiYjGxCUz7ttDAif6poK7+Hx5xOkFJZahr1agdYbKESRC675jVU6/0LYEkxXM2nImlBYavUhp/KJldjY3ZPK4BnuaJNCO2XLitEvgBOnTwm4QhDgFQZRhunCf6xdWxz5KkEwFf65laUFIgGlBVhQ0KhlaUBKMR/IfzFzuvVGOFuFOzdKiMA1vKC3c77BjHyW4IrSYyRkfJY1cPufdypwWUsairjFaSH9COlkKTng4LVw6vu7aVmKcTtEifKRzBPFus/dHTnv9HQgttjmeiESSOkhtJLRwHnJWHjo1+Gvii3zvSGbLQRX3G6ZArUWcDif4Ysn3qUCMN6viHQk4F52wX5CVCz9KJfooke4QEgw5LcK77GxTPUaLiCh5PkpMv+iFL0i5pizivQk4Mb5w8xN+h1qgRS1foQJaZHQt8qIQvlY2f5ZfL9nAea/Z75K7D8iVtJQWu2PnZr0l3uXNqY45FnQtKrzX+0Ve+s8LyKVFGz5KmTnyhyoPu0xMJn0+CGuV7BqlLD9SBWAF2GPJ3kduJErS3jmnehNSPDlOVH1B+qVNNl0ARx1AaLOMbIPcOVIlEqXsO9x0j+ju7ZTCYtLfV2gvtCToj7eDpJJj0GeB/blhsQe4Az1ScsRAX2YHt0mJuaKUHb6ztx4NnTWvFz2lbbC1Uy/xNngcqyu+w13yfIQ9yug80lnORxMeCMrBT+yjRC+hmywTHKb06ZbF05Bko9orez07DtxjTxSJ5yOSuveZfGA4sUfqh/2k5ixp0crD5Ujt99nL2nKWbMu+EWc5pHsN997CwLdUB14kVh5Id9reD4hXHnqxZfDK1zV6ufjtbJSkBcGJ7YHDDcXJ2jj0W6Y4y9XRjB4DcFsO1gc7j+1nMg2PU7SjmoWMkWUCTB9k8dZLYUe1ZxumkYzHYMeWgYPAF7ve2L/egsy5mdljpo8lw4nug937pcAXB8e/XhXyhVLMFyoQLRK0Q+moD5scSxNrB46wsKMIC5Xb6w5LGwdvqWCzpj3zvpNoDFvdUNK43hQfx1kIo2dmawnnJmkWfFA9ary+I1VsoNLwZk+1GS1UGg8ysNUl/SAiBj0q37Hmg6lKgFXwuB6T4VExthajhSFEoiQ61E92CJtvhK4adkqOHImwkEdML/SGi9nz8/xjwqyZ7kRjeg2csu227z/Nn59nh96YmTcWkK3ZBuN8N3QPqMp0f03/7dxImXMz/kVy0TEChlvWvOfsEQa303tq4vMOkJyb5cuRxrpW3rkZnHPDguv58QNb7vBG5noNPERWSlQlMt56CytaeUY9biQVG+n5VvZ8RDLYrUz+igLDWaSmi8DBrSaej4Bm+kW5M0R7m3N1qzu50WIdLzJzi8l/M+LvysvMAQZm85d+7hkiI8bwmW+Xc1698yaG3CItyvrxbbx0P8brvpzwB5qnTtYQ+x8s8dQJ6V7pKww97x0qyoCuF1oi6mNKZdMPDrz10xgMV/wwS5wjpd8fEWP7seWRLLvcBGnIMeVk0gNcQmrL/f7KEXBxfW9m2QyYOo3JcLQWT/nc8eQRqmKzfRm+9MQYd3e4/0PEIhZDbo+yJ8fJeMId9GeQ4QT/7JMYjF8gE4saMSt5SKZGHWI4yfxlRZk8y2jzDgk44QPLWL/I+ijl+cDA3cF10EqAUhCuZ5YWOdBFp6D2Zu+HpIYXBotbPesPpJnb9ZhVGborfPkiLnm/Rv98B8moD+Mp9MY9LT4Rhpsnd8iaD9dzK9a14H7o+Z7GfZRK6RdN3x/ZzV5fXz+m7w+kSt537c+P1+nrdPq4JP5geafUy8cP3MhsQ/mOfPnz9fUOgPTucj6dLgVexd3ZEAw+UPOmuMvTt9OPpVyAU00fpVNx9FArjLzmwBrbNx3xapEh5e448ppc5Q9KRYMjYIJK7n0DBe+PnPS04eET9aM+CquUbLYRcNVmjwEDRrlGdx8rJUdT5cDl4orqe8FVjCu6VGz/l483qxOHqKS/e/aojzyv2SY4ATHCQuVRHzj2QosiLIj/MA/P0MSoD1UIGVHFqA8t0Wx+JAoHNo4D86gPkwNXxSnToSKcWntbodu45XI4NYlb/hvb/ze2v/y5Wfdz5OhLrOByc6SVderE8tdo7ezXxKnG2pnmbKUDmVrylcnCqI9zydQ0Lf7rda3/dzq4VEsH/y/bmx1rttaePbE/bnJTw1X+jiqPw86A0/8BOAQD5v7owZkAAAAASUVORK5CYII=;" vertex="1" parent="1">
          <mxGeometry x="425.14" y="208.76" width="30" height="21.24" as="geometry" />
        </mxCell>
        <mxCell id="2PFUA68c3KtspT4KJn6I-23" value="S3 bucket" style="text;html=1;strokeColor=none;fillColor=none;align=center;verticalAlign=middle;whiteSpace=wrap;rounded=0;" vertex="1" parent="1">
          <mxGeometry x="475.14" y="185" width="60" height="30" as="geometry" />
        </mxCell>
        <mxCell id="2PFUA68c3KtspT4KJn6I-25" value="" style="shape=image;verticalLabelPosition=bottom;labelBackgroundColor=default;verticalAlign=top;aspect=fixed;imageAspect=0;image=data:image/png,iVBORw0KGgoAAAANSUhEUgAAAOAAAADgCAMAAAAt85rTAAAA2FBMVEX///9GRkhDQ0VBQUM5OTs1NTiysrLT09S8vL3xRiE/P0Lz8/SEhIY7Oz6np6hzc3VhYWLc3Nzo6OjFxcaBgYHt7e0QDw3i4uL4+PhOTlAAAADa2tpXV1mrq6yhoaJcXF5ra22Ojo+ZmZrxQRiUlJXwNAB5eXouLjG7u7zySiX3mIbzaU/xPxP+9vT3oJH83NcjIyb6vbOMZmHvVjY8TVH4saXdaE+uYlSEVU3kY0hYTEvVa1a9qaX4rJ76wrj96+j2iHPzYUL71M31eF31gWryUjH0cFUlJSgQZFrcAAAMQ0lEQVR4nO2de3uayhbGmRkQM4CgaIEtIl6ipjVtenp67m3a3e7d7/+NDihzAcYEMNlm8szbvwpE5+fMWnNlLU1TUlJSUlJSUlJSev2yJpms8NLFeCaF0549ByByl/7o0mV5Do0WsYMhABA5wO1fujRPr52X0xVC0fKVtdORrTO8TFAfTy5dpqeUOXdARfri0oV6Qn38W40PAMO/dLGeTB9vPv29DojS12KGn6+vVv+IiPFxpri7dMmeRh+vr66ubv55ZMLRnCLixauows83V7k+/evgOxNz6oOCELmvob//fLM6AF79+z8Qw4Nf2elFa51PL1268/X++qrQ/r/QDQ7XJsQcY/PCpTtbt58p39Vq/7+iax+9GsDbLxTvav/9K7m8LDpF6A0vWbonEONbXb+9J1cTRDrCjeSjtbekfa6u3n0gF0cbnfb0ySVLd7ZuqX/Zf/9yS66aKR20wUhqE7x9T5rn9TdafZofYTqOwZsLFu98Eb796iOtPm0QsYEa3AYXLN7Z+nZsn6sb5lxy8+P4YO+CxTtXt4V/2b/7yi4OU27OBKPZ5Yp3tm7fro7O8z2zPs2fY55vJ/NA+8h3/f137tqMMz+AHalHoT/y9rn69J67FLoGb34b62KFO1/3uX9ZXXF9Q2Z+Lm9+YCk3X9Y+9zdfb7lrvoc4Pqcvs/nd/lxlA89v9/y1WcTxYcnHL9/3q/2fX/lLls2ZH0BjqWfx9z/2+z/e8q1TC8Z87+AspZ5A3P9Y7X/+Xro0dXnzAzL37ln7/PP6+kup+rRp2fzkXuq9369+3pcv9RBnfs5GavPTPnx/97FcfdoM8L275KugH959q1SftuT5opncfPc/v1aqT1s63H4geHU7npMxNzpDc7nNTyBrwXV/aCP15F2oEt9C6t5dqBnXPrdkO34it5vh1Wf+E4IBubrbjk2ZJ0pMQUrHLzBia0t9HRub/itwN2GCGR83OuvrmT0iV/IOMVNAGyjc8pO//mHRHsNU7iGppqWY1l9pctsvdiWQkUq9rTQxqH8pr+322bYL6klsignpIlBleM0AAcSuvO2UuFAYVxoiB5ifVpN188yMCxfjVAlKgAAakh6y6BECozpAKwNm/tSTspmSThDOq3eqgFkzlXGNZl0A4nX1Tg0QQAl3sS27ANRrJ9HqgNlTtmwzDQZYMzAKCGVeimKAtR3cPj3CxW8VOq5kdbh41AaRPRxzy/mOZMdlBqSfj6p3CCC2La0XsxVhJ5VqRWNHym1UR9Q8oGa6rJk6rkyEdCSD7cqdEqA2WhgcoURzxDCFpI1W/GgZMOsxmSE6Mh3Bn5HeAHnlowZVQK3PDiY4tjyrNRZdUcPlPq4GqPnM1cg0pllzhHwPUAfUTLa6AeQ5+TTiWh7vHwWAmkk3ECGUx5X22VgMgx51kCJAbeiRZ1EsDaG14PbNsE36QyGgZs4poTzva41SfrA5T46+RgyomfS1OyiPoxnxL9NBOF/nSCcANZ88DKE8U/whN9bMj4/oY9PanQDMRneEsLbM8XI1TXnCjEr3xugEYJjQ15k28ozZgk1lAg8JcQ1Qs9hpIXl6Qy1cGOVKBCcBNYt0LLXF1BctP+UXJ1hVutMa4ZSYIZZqgj+ZxYJ3WwHCbs+scMzITV2eviKXuQBYhOjE40FprmHZ1ETlWoUKh+MtFjRUiFDsDrhqHNKJ8vhype2mYOEBMaOz9XojYo99uu0mkSctNNrZsSN0qVAHm37hc8j4Dsm1CHWUZfY2IsCDPc7tWd45TMk0C8vlZ4hC+07kb/JqxHC+mVn0dA0EElZhpsVvb94IHc6B0dmmCZkbovTSZe2kHPDNm7utjrDYHhm8nGEgjoCZomSsO+KaJHYp00IpFQH8LQ7CYBAbjnAgV0jGMBAcYP7fYJlG6IRJyhklYXZ3xwNmftUfbCJx/wiQhFXY16G+veMAM03MmWuIqhGl8ix1Ex3WZCDavimvD1rDNcgYq5D1HeIXL7rDW18enC68qNJ31PcXX7zYDq+g9Vl+4oJS3yFfX3hq2ZBo5CeewUZzSLr37B8DzNyq5Y8R8TnyBSt5HPAg087sMWesH2N44WoImE8fl2lmj9KFY2kMmCnw17FRPyz1stUGMLPHST915ers2wHmkmxK0R5QMilA2aUAZZcClF0KUHYpQNmlAGWXApRdClB2KUDZpQBllwKUXQpQdilA2aUAZZcClF0KUHYpQNlFAGV6Z76VjoBQlzji2MM6ACKQSHiWt5kyQKinsh1Aa6G+jmP5XktqoR1eSHb4rKVMqRNNKCkpKSkpKSkpKSkpKb0GWSOiEyt89D6XyCWcELHnQvKcaK47Edy0yGecnhybs8UmzbRZzzqnEk1+GUdt58K4GbM7cj9m32HebY8qXSueE0QqtsbFt9yxgOlWWnzGnTiI+sR3DcPBCEGIEHYMfex3igE1oKGYnKXgpwxoPEL+HT/TOH0N4GXtU0IS0NlhS1EWSefniJanRr3YqEQ0Qbq367AOyQAhqK/zhWuWlKcpIKwnB6OAugCwHqZbC3upKAIGxG77vGMMEKBaUH7NjNoDZoTVttQSMNwAcdAEgKJqvOQ2gPU4YBMuKWtzQIC8asS/VoBmJIpgVsjxWobY4QFhXPFVCRfTrwUggOuyObeyQX9+ovqKXy9t51B5QIAWpZ8+4M28FWBUfie3TQ2aFT4IK7EhcLtIVyVACErbQeOugBlhqRAtAEM+lyhyDGPuedG2FOUDe50Bs0bKOeJZ6ZdrBZg5Cb6RNgcMubjxCKSzojjmYs4h6m2CkZcB+UDmQTluaDvA7IM4wuY22GOfgFL+RrCOuDRrLfYdK4BAJyYcLssdbUvAUvzQxjXI/ahoXDG1PjNO3CIIchUQkcitZsW22wLyASoaA/bYuKqe6J3vlJtXYRUQoCKLYFQZSrSuQeRRe24KOCFhHbM/FpTV5AKzN978rwHCY2D+QTUvTWtA4NDgk01t0Ke5YsSZ0BNG2Lir4Meixd/m7mFKf8uoMyCrm6Y1SNNpCwf++ciKlMoZiO4/BAjTDXEq2M9KRL7K6JMHmgLGtHHTemgKSCvwVIAZaqMwbQuI7IBUGsRhn8A6g9EDMKJraLNjId+L+w0B2YzrVLJpFi9/2xpwrA1oI7VJLhDshkFLQOhOWF6p4iRQQxvs0Ro8lUiMpkICRlMj5ADpVwIWKtrU2gLmke4WzBkkJcCHa3BJ/ux0R55Q02naUXCA2nALyson510AJyzEv2M2ByTV80CMJzrSEUyTHwdkPyEpa9gNUBuylY48dlxDwA1J5CReHsrVJ07daZoOrwRouaXh2eHXb2+DI74gh9wSDW3w+QE1nx+/6IdYWZ1qMGsM1NHApH0TPTmnpcmsujXRrFzcbMWbnAGoxTSFbTZwbAZInnpgtkCncI0DIlYArVpq3a6AE5qHAhrDZoA0cfjJboImdezUTRzLSfuiJOwECElAVNbcobch6VAftEE6FD3Z0Y9c8plGQ74aIMmlBNNiytW1BrnkGUwP16BFuik4P2GEPqBPdAYcHeeVW9LGOwOWlh8aAbIpWi3xbfGJdCDjNA4WWAM8zivZ0kV3QC2szikfA6RTGwiFxzF9OmNxWk+XGGC4hAB7dE2gsw3mBQIVwkfmgwF9EKUCK7TYfLj9hJcBaiMPcX76jBrU2Pi9WQ2GbBCrJzVCy2Zz1+Z7FAJAzf/FebGzALkyNQHkqxxW57yWzdKQtQhdLQLU+OPyZwFmw+7S2uOj66JL9rjumfzKo89yrnRaNkSnsnecY4P5ZcS30kfXRQOPPY6ctR8cGK3AX3AZupq70OcArEY+n/GN9PGle+Yo86YIUjsZDBI75fPJoLjN+zTPDhja3Ppcg82XQWnxCmKMEC7FH0eCjdpLAmbDK86uGuwPDqp9S1lo3u6Fk+e2QY1LZ9tsfzCc1cYHnJy2L9Q8fw1mkzja6hrt8Ia+MIPT4Qv11pmK/wpAbUzMsOEhhMAVJlODDhy0fl/vLwEMBTAPAWbO1I0qmQ0ggvG6w0mZZKsb+b/tqXDswzvj+AR/6OeXflD5WvGcaId5OjcO937xB4GM44dsxbPb/joFOkb5CiaECOvxZtDptFPgFzpluxZ5wGetY/LQNVM0WZ0WNxl8aPq1a5WimTM7jSMAIm+z3lVzxL0OhcWBNku97KWkpKSkpKSkpPSy9X+1jedLyFadswAAAABJRU5ErkJggg==;" vertex="1" parent="1">
          <mxGeometry x="564.14" y="208.76" width="21.24" height="21.24" as="geometry" />
        </mxCell>
        <mxCell id="2PFUA68c3KtspT4KJn6I-26" value="" style="rounded=0;whiteSpace=wrap;html=1;" vertex="1" parent="1">
          <mxGeometry x="423.9" y="440" width="160" height="60" as="geometry" />
        </mxCell>
        <mxCell id="2PFUA68c3KtspT4KJn6I-27" value="" style="shape=image;verticalLabelPosition=bottom;labelBackgroundColor=default;verticalAlign=top;aspect=fixed;imageAspect=0;image=data:image/png,iVBORw0KGgoAAAANSUhEUgAAAQsAAAC9CAMAAACTb6i8AAAAwFBMVEX///8Abbjm5eXn5ubl5OTk4+P8/Pzq6en09PTy8fH39/fv7u7s6+v6+vr19fUAW7EAarcAZ7YAZbUAYrQAXLEAWLDZ5Onr9vsAY7UAX7PT3+fw7OllkMeBoc4hc7q1wtvHzuDY3u0seb3m8vnI2uyUtNd4o9Cfuda+y+O3yt2sxeFUjcWIqs/u8/htm8o/f78ATKt3mMpYhcLa5fK90+gAS6u0zOQAUq0ARKmUsNTO1efg4+3N2+bh6vVmlsqEqdOAEZv4AAAaMElEQVR4nO09CXviuq4mSbMSslGG1DN0ulBaKHBu6WNeZwr8/3/1vCbOBlmh593x951TD7YcWZYtWZZsAFCyJFmycEaWZWmA/tqSLCsqyhgoo+ESDZUYOKOgjI3+DlCJnADGJSYHBgy4z4F19FdVWLM6B+6LzWJgkwPjZvsiThFwhFM/jRMGlhI4SVVwAn9p8ZcWhbRQJIVUkCRJId+9kqQrAopKKC1QhnwXl2BQU0GVCUaoxGIlCvmuCEy7g0p03iz5LgKWOXDULOkOB66Kk81wUjjwKZyUDE7AQkk3TXOAM+ivaaC/Bs7wEpOX6IVVikuyzSaqDCoCJ3A6DlyiWT2JEyE7oZwSU05KjiamdnI0pXhAFD4gdDQlBhyNJh8q3CwdTQ6sCMASB7Z4SQ2cpAgnMxcnWcRJzcFJbn2WJ1eezCz/wiuPyBfsu+XHQBxapXgMeLN8DLLAxXyRxEkrh5N5Gic1B6c+SgPbtk2cQX9tA/21cMZCGZ2XmCijiyUGzvCSgQgclSSAjTRwotkscCOcBmmcrFycUsCAUC5asxXpqqwcuZIUQnZRjlyVXrMlpbQcKYcTB87IkfI4gcRE/atf/KVFQtdSKOOgv4wfUYaAogzjR+WK8iPK0Dmi8DmiMH5EJZQfBWDGj8qVzpsl30UZNkeEZm3W7FUCJ6kGTtZRnDQRJxDjhMku8wEhlDHkmHIy6QEuIbXleEBkQyS7KfMBQRnOYTLnMAJspIFJs4TDZM5hHFhiONmNcJIq4xTpF0rMRTFzFnC2FDOnwpnzNGdz+ZUFTsvUQpyOzDax2cqzjQJ/CV2rj6sCezAYqLzKpXWtOjuqlA5+bEeV0sHjHZX88j/XQvqfn/JlcNJRMnDiGT03c7wkv0rJZg3dfA96QvJ/mxfBCTDKZXdUxaNJ+GsgaM6p/XH1Xd5jghbj3zVwSmvzStld3lWEE+Az6qL6RR4tLq1rYYhoxWOgBav/QEl/ly/gORJJytJCElf/o7SQZKWsRKqAk5bFCagoGVpfs3AGbVE0Hf01NZSxWUmflKCMgf7auMREmQHKkBKLlai4ZMCBk81qtFmbN6vzZilwlhaVcFJFnDTerFUZJ6JqJjUzpYy2qDTRFpWUtii/JNfOn3I9nKyGOH0F/UJL00K7jH7xlxYx8CXmSHpH9VXmCF1QNLbUoESXGpR4CVunNLZOoUTXKVbFEoHNNLDFgek6hRJdpzS+dmqFa6fQbARcB6dMh4pwAsWczZizSKZmZHkl+VVBplbY5TWUqfm0OLeude0LybmortVIB8+cUR3Vd6/ydPDl8y1KzzjhzLIGTkkdXKmlg3e4N4szp9LARNt1fAxmkszgDDjl7c1KnJs13R+PvqH0MEIJZ0ayNHogGfbDw5WkjfgPpKQxTuZJnHI5rHv9Ar79wlYJx3GIdcLtazP+A/1F1l7+uRaq/HNxXaszGx/87opS4h5qM0/8wUW0GOfrWo1sfEoZWkgpG5/Mzbek0aydFZfk21kzwFk7q5yihXvfhzM/QQsNZvXOuFm1NZw4sJ1pNgLu/EwgRQsA5klaFNhyCrVFZfQCj+NU80yAc1GH+kU9WhRzNlw4Bzaa/7pzs5ZpYc6Dnn+/6dxHqZOz5ZpzpAinZYiB/G3u2TKfIzXOlq+KfQ7U3PP9vlroc6CKwML5vpGihQFTcqRvpddO6whO+hOFdqbgNE52AU75Pgfd+6Jk5IiWkiNy1n5R7Isi/xmyauG0EKeavihn0LVStIAlaFGME1xFrTmzM5ybteu7lqaFltYvsrTIOTfjOGmCWuZvCnAq4bvGmxV18GIXQEN0ARxkXQDL+g+aKb1T11PrhWGkz82MQpx0kY6uVwmnUx0CfNnt0Nf1jWw9cBqi/3pIjvxieWeI/n+N5Mg/jhPX+fX7CE4LkbDeSuU4VfZ1ze7yQP4sb1W/+HaD0ugBJZzZIak4whn+ww36gZagH3Y4YxfOcgB6iTTciDh1o2sJm6IsLZTTtEh7kGhkiwBkTSMwJvqBNGuhjMFLMEY2r2IIOxuBFjsnQQv3u4hTlhaVbG0dzJHIUkEziC8iwwT/ITZm4IT4IqpCStR0lWWEU1Ir6/WCZd05kuPHlz0TaORldaVoTmSqQH9//QfCN/GHa1eTp7+47YL8leSXfxyhyj8/Ze1/HaHKr4PGdlTw1UvSwvuAMU4FZwJXx84EZDrSpEOt6xdakol/wDr2i35iKnivkOGUoYW7gFn7xZc5N9MSPffStCinaxXS4keKFj1fh2QDb0Go6Q1pIbXtrVuDFtlzswwtGE5wn2gdV35dLe4nKC1WHy/fCnAquRqeDtyweEm5qA87RQs1vU9V1dQ+1bTT+1TVTNJiqrL21fQcQYWuS9p3XW88vJ8t1RqRKDSYBFAuqh71IfooJb37k5j+qLVnV6+TtIhwmmZokUiuH87zcCoVcQD4jGpP1+qMFnj+J0HzUrB4aKZr/Wv4YjfsnUqu81CTL9BMsckkslEG/e3rtmmbfZThJRYrIVVoCaqi91lJBIxLsAXmFC2y64VaYr1gOA1O8gXWRRM4FXcoLiEduoAc0dJyRCovR+SsIMkk50YpjEQ5Lkda1y/6XeoXmvacUMtykvsdVvcH70rXSmLWrt6pSfopvnA+W/RRarofGVLTBE3XfD/CjBNDx0Vz5NfQESrR/chwyE0cv6L9CAO5xvsRhpN8QpJ4B1h7P8Ip155M3XHjBLFSfGP2ix03VzygHxJVRtx+8cDtFyre7Io2D7JPZeO8O84YbgKnS9kv+HfV2AShyfSwD2VIVEQl+4XGT0Gp8QM1C+Fyuz4uVJ1R7viUOqVuiy+W35ImiKTLRcJ+UVjykC5JVHm4nf1Yh8Fxrgi3sClfVIz6yLHlzH/F/hSiccJJeFpUqJIpcXzfO7Fuuv4WNrF3Ehcd7BaEM9g/yBAzUcmJKubqpNjvPvn3D3YK7eIODbJVWjofgYtL08L13ZkpsoLoo5Q9H+nQRwmuL0kL1/WvFzNLa8GuVTfqQzBAwwtRIQhDz/cX+/k3Qzvto3QqEoWcs2Mv4T6PsMCHzyxwo5+MsOjzkBF8LM3CM/rE+XgwuQgpwrs/f9BuC/cvg1Nxh+JIlGSHmBwp9FFSiqM+Ej5KFyEF2uzouTgd8VFSUj5Kavs+ShehRfgpf0UfpfsLrJ3uGn7J2P7TZoX20/BRbu7HJ84RDen/ZKkhOwJVBSTCAqBMFGGBS6KoD1xCoj5w5InMgS+hX7hvgOKk5eNEdjZihzSxQ1EkCu8qWjtbkqmZM5zuU3gH2vf7bUHXSpmqzpHcNTiOUyc+SkVRH4IOLj+fnRbDz2Kc8uMETurguREWeiJTokR/uD6NfavJ+6GextYoWUIzIEG5CnFFaf+LUybZ1mmxzI8rSu7Zy8UVte2j9HZeQRLMz+YPXj0OMXvo22XCp2+5t80U+SiVikPEKoUlxxJYHoBYAmOrYySB5Uh820AFAzkW7Ngw+RiekxbjB3AUJ2IsRRmibKASM7dDegSMftDltuKWJfmcgiSYwbbjltv0UUqdCHWa3AWQyuB0qXMz7fZ8jOEvwZeO7Zess2kYwWNbsf0p6wwOrKCWHx5hodoqD9yIS6jlh4dnoCo8cCMqAefangVTWBYnlVrt8jrEuyoAg4QIkkSLIBdBhfflSEn59XIeSeLvoVQc2y9lZGrp2P42fZSss9g8vbUYhtmFrtXsfi1GyHPsVZGSpZe6X+vULcp5Pko4pp4cG5ksI54smXqixEwfPpkJYPMMC0a4NDNfPoZTukNGbofoIVq8Z290wzkl+yw43ZmGpPjUjuBkpZmkdGx/Bz5KHVPCHX/Cc9+jVCWOPvHdbjcl7v0OVsfpYveDf+9wt+rdqyR4srv7wUntq2ZnAlHghrLsjhb+ui9XuO/3quSZQHex/ep7V7MkfDIKOPvLnZtFE/XQjbHP2YIMTl/q/ZHc2P63DqaJ5+7OcW98YciInf/+iJ33hMhALGn/aDXcD4x6OIkhI8XA1NvdbE+O8HhpuW1ieN67WRGnEjHcKkjuMDqK7VfvW5wm7vBJ/de9PyKMgXrf2i4txBegVMapBl+Isf213yvKCT6z9VU7otUPtiZfDKyKOFXpkNVBbD9fs2U4d5ovGr4/K49TYdzyF3h/ZDdpNk/coDfTS83yr6trxd+dhvVZwwvfni2Yje0/Ay3a2o8kdf/lPqwlUNyxe9gN5AbvjxTjdHQ/kpUjFXygC+QI4OJpt6pMDS8Mvm8NKNfGqeX3zWrbL7Kzbfk6ORHmIDKEN5z8eLQ7wOlC8WZJWqjQeFlNQv8UPVwvCLzF7MYUm73Y+yMt2DvzpbMMwWa+d53A89wMSVzX88bDcPL98P5gQk2qHvWRY+88jVO+vZNoI8Q4zDLkDiL0lypRYolBNBihSqLEtNLAQrO6Odg9Tv+zXuPYuiAYj8c+DrW77q3Xr9PnDQ7I12Pg9nDKAGdKqB2cVAGJ1aVEDHfx+cjpu48BhNbo27e7u98/f//EAVTA5LdWNHplsq3zkdxZ3uGd2OQBKZM4jYB2VryOdK1G56nFZ5dZr1klz2u2ZtTH0fNUqcp5at7hs33qnN0uPNO284ATzeYCZ258bBOnXOAcnI7H9l+lbrhs/UVHqi1mbgJVKty6KeBkNcSp+3sa/z0vK/6lRQzccmx/kxcdm74y2diPTxXdIZl/J40qVwFxh5SpOyQJPFdBRV9KCqxRX8oYWOfArNkUMGiAk1wSp34WJ1DM2Yw5q7w/ct7b3lv3+82nRXe6VvuzvOtzs2pxAmV18DKRKFV2VG3HCeQGVVR6uwNta+xMjEatZk3TNmsDF5aUBm4eVwTee+HbSC4azeMclthRma9h+NQKh10otl97HPZ6bk9rQb94DXu94AlcVNdqFIeofWCLZvh47Lu82ROrPzWNgmoeqrmxkTXjEMVXyaKgTRwKD/JfJQPRq2Q09gKS2wL9277MSwgwf1jM1vJjQSlw/CoZLiEO5ROg5uMUAfMQ02KcCjokvpSWG59KZ1SDMwFKi+eCOPoKXvYDcqfWRJOaa7CXiu2PaNFwlksmo8UXseX8pUWz+y/OP0dO41RzjvQzL88K14hkXsPN3ovC106YD1x0B0nOC73R2pnzGm41nNjaWQRceC9KY5nKaKEdsVLyZk9YKRktupOppyynTXUtmKFFbV1LpMVlz81q3q8V0SKp79bRwWNaNMSprg6ejrAode+aTp5z1HGVwdQntNBTwLhK4aVt9AdSReclOqBrp5n5MjvtEoB1/Hpk3H78ZXZ2prMa+G/5i+QAo1z5/bEM4bfd+/vvGw2SkliORKPJq4z69E73nB2VBo1vd9v3u9EAstHMyBF+Pbo2+6MmcJKhMdrg5jUoJ8zxtnb7Se8mlGF/hJrfjQwolT6ZBfmzvFi/gJ9P99fD8XgcOuvZEuToF0B7WU2uQ1TF8RbzZd4st+XpwnGC8Thwevt3OsuL9IvXa//6NQH8++A6qPlgGC5m0bX5mBaPjj98wz8s57T5cOgtfgLQTNcSFvAkLTaLMLot0fWc1TJLi7kbe1y44/CQ/a79MY6dENxw/U5oMcijxYa4R14/xsDP97F/i+sFBxBLJLzgBHOwPISJ5u1K93fKqXdPyHMqeXzxNEx6DXjhfMZpQXW85Vsq0Mp3N1EEDG323U26tbnDhYpfg0zTAk2AKf2et2I4AXuR8gLzho/ky6jDd/jL3tOjl/QFCqYcOJcveFcRLSqcCQy0HN+84J50+JbGduifOXdsDrdA2FEZBydTw3V3QJAjXFt8vGdBB96HRnH6dLM+T2QGIQ1W/klrp2u4a9h+bP8ycvR23ZRXCdcvtlE/xSrOk8BhhyCniuuCrH6x4kzoBSOK00aYfXHz5NG3vqz9ToZr8ObdBWz93Gw5YV/3vfvVajUZCgPAaMHvJXZDd71aLVzeGcQZ/LuvIa/S269WbwHD39mkaAFiVh+uljLB6YHf9Tv2J6vVvscXDmeaoYU3nKDm117geeFn+++P7OmXvd4MiUpogt0h9u1lc6RHfwjWjxqqooLNnlW53uj0HPeTcoUbrO5wK2C5pV2+3olzRNK0yIva6z1ynBhf+r3tEmLgzRNbPNDaiuZITAvXf9qppMr7jx+fWtl74+nriRZ9V5G+J2DzS/ZJiUVfTzSeKXLjFXb4tm3dsvTRgg+d/6zafZNTa24SGMOyBp+UmdyJSpo16D+9yc3AsE38QcP8GLquvxj0bbp2GlZfRbLI4+yz6hsUJ2NK++rMBgbFCTfPPqmbtnrHZ5+//jOwUIdMG3svmfkdSnc1iu0v9AeKIvU02otwC+XonQkZcGIQmXpDWTj8hDEwtClcgNdPVSNKas/bG3Ls3W8+Lu4PfUGmysvvUa8mj1BmOI3YDEFiKdL/ZJNi4GPRymnhPw3kLt8fYU8i+x8wuaNi1ydhWrBnD5xPLbHy2FT2YN5X+wFlkugt5DxbDtx6EVO8xjgBYmTuhe9mcpYzxotp4a47fn/EIBf6upP0+yNLP6KFRMf8AFJjsCUoIjUAAErQYGNmoj7QFGZ88fCdrxT+BMeO8B0VNZN7T+l9wY5UD94jWvjLY+/SHPNdy42wyL5XtGRftFMhI2y0/GfbpkHL4dJMBW7QkcNviKjk5mx3D3KjPlQqj7nK6A4/VDvGyd5QOi5VspMi6xHeUNmANIpoZFNaoFzd94rKyRH5N+VuK+2jJN+QHiA5Qo067h6md3naFq95RMoTQTB+iXdUiYjGxCUz7ttDAif6poK7+Hx5xOkFJZahr1agdYbKESRC675jVU6/0LYEkxXM2nImlBYavUhp/KJldjY3ZPK4BnuaJNCO2XLitEvgBOnTwm4QhDgFQZRhunCf6xdWxz5KkEwFf65laUFIgGlBVhQ0KhlaUBKMR/IfzFzuvVGOFuFOzdKiMA1vKC3c77BjHyW4IrSYyRkfJY1cPufdypwWUsairjFaSH9COlkKTng4LVw6vu7aVmKcTtEifKRzBPFus/dHTnv9HQgttjmeiESSOkhtJLRwHnJWHjo1+Gvii3zvSGbLQRX3G6ZArUWcDif4Ysn3qUCMN6viHQk4F52wX5CVCz9KJfooke4QEgw5LcK77GxTPUaLiCh5PkpMv+iFL0i5pizivQk4Mb5w8xN+h1qgRS1foQJaZHQt8qIQvlY2f5ZfL9nAea/Z75K7D8iVtJQWu2PnZr0l3uXNqY45FnQtKrzX+0Ve+s8LyKVFGz5KmTnyhyoPu0xMJn0+CGuV7BqlLD9SBWAF2GPJ3kduJErS3jmnehNSPDlOVH1B+qVNNl0ARx1AaLOMbIPcOVIlEqXsO9x0j+ju7ZTCYtLfV2gvtCToj7eDpJJj0GeB/blhsQe4Az1ScsRAX2YHt0mJuaKUHb6ztx4NnTWvFz2lbbC1Uy/xNngcqyu+w13yfIQ9yug80lnORxMeCMrBT+yjRC+hmywTHKb06ZbF05Bko9orez07DtxjTxSJ5yOSuveZfGA4sUfqh/2k5ixp0crD5Ujt99nL2nKWbMu+EWc5pHsN997CwLdUB14kVh5Id9reD4hXHnqxZfDK1zV6ufjtbJSkBcGJ7YHDDcXJ2jj0W6Y4y9XRjB4DcFsO1gc7j+1nMg2PU7SjmoWMkWUCTB9k8dZLYUe1ZxumkYzHYMeWgYPAF7ve2L/egsy5mdljpo8lw4nug937pcAXB8e/XhXyhVLMFyoQLRK0Q+moD5scSxNrB46wsKMIC5Xb6w5LGwdvqWCzpj3zvpNoDFvdUNK43hQfx1kIo2dmawnnJmkWfFA9ary+I1VsoNLwZk+1GS1UGg8ysNUl/SAiBj0q37Hmg6lKgFXwuB6T4VExthajhSFEoiQ61E92CJtvhK4adkqOHImwkEdML/SGi9nz8/xjwqyZ7kRjeg2csu227z/Nn59nh96YmTcWkK3ZBuN8N3QPqMp0f03/7dxImXMz/kVy0TEChlvWvOfsEQa303tq4vMOkJyb5cuRxrpW3rkZnHPDguv58QNb7vBG5noNPERWSlQlMt56CytaeUY9biQVG+n5VvZ8RDLYrUz+igLDWaSmi8DBrSaej4Bm+kW5M0R7m3N1qzu50WIdLzJzi8l/M+LvysvMAQZm85d+7hkiI8bwmW+Xc1698yaG3CItyvrxbbx0P8brvpzwB5qnTtYQ+x8s8dQJ6V7pKww97x0qyoCuF1oi6mNKZdMPDrz10xgMV/wwS5wjpd8fEWP7seWRLLvcBGnIMeVk0gNcQmrL/f7KEXBxfW9m2QyYOo3JcLQWT/nc8eQRqmKzfRm+9MQYd3e4/0PEIhZDbo+yJ8fJeMId9GeQ4QT/7JMYjF8gE4saMSt5SKZGHWI4yfxlRZk8y2jzDgk44QPLWL/I+ijl+cDA3cF10EqAUhCuZ5YWOdBFp6D2Zu+HpIYXBotbPesPpJnb9ZhVGborfPkiLnm/Rv98B8moD+Mp9MY9LT4Rhpsnd8iaD9dzK9a14H7o+Z7GfZRK6RdN3x/ZzV5fXz+m7w+kSt537c+P1+nrdPq4JP5geafUy8cP3MhsQ/mOfPnz9fUOgPTucj6dLgVexd3ZEAw+UPOmuMvTt9OPpVyAU00fpVNx9FArjLzmwBrbNx3xapEh5e448ppc5Q9KRYMjYIJK7n0DBe+PnPS04eET9aM+CquUbLYRcNVmjwEDRrlGdx8rJUdT5cDl4orqe8FVjCu6VGz/l483qxOHqKS/e/aojzyv2SY4ATHCQuVRHzj2QosiLIj/MA/P0MSoD1UIGVHFqA8t0Wx+JAoHNo4D86gPkwNXxSnToSKcWntbodu45XI4NYlb/hvb/ze2v/y5Wfdz5OhLrOByc6SVderE8tdo7ezXxKnG2pnmbKUDmVrylcnCqI9zydQ0Lf7rda3/dzq4VEsH/y/bmx1rttaePbE/bnJTw1X+jiqPw86A0/8BOAQD5v7owZkAAAAASUVORK5CYII=;" vertex="1" parent="1">
          <mxGeometry x="423.9" y="478.76" width="30" height="21.24" as="geometry" />
        </mxCell>
        <mxCell id="2PFUA68c3KtspT4KJn6I-28" value="Metrics&lt;br&gt;database" style="text;html=1;strokeColor=none;fillColor=none;align=center;verticalAlign=middle;whiteSpace=wrap;rounded=0;" vertex="1" parent="1">
          <mxGeometry x="473.9" y="455" width="60" height="30" as="geometry" />
        </mxCell>
        <mxCell id="2PFUA68c3KtspT4KJn6I-30" value="" style="shape=image;verticalLabelPosition=bottom;labelBackgroundColor=default;verticalAlign=top;aspect=fixed;imageAspect=0;image=data:image/png,iVBORw0KGgoAAAANSUhEUgAAAOEAAADhCAMAAAAJbSJIAAAAvVBMVEX///8zZ5EAAAAuZI8jX4wqYo4oYY0fXYsbW4ogXovr6+v8/Pz5+fnx8fGKioobXIrw9PdoaGjJycnPz8/a2tqVlZXj4+OkpKRbW1uzs7MPDw8qKio8PDz09PR7e3tsbGzj6e9QUFC4yNYXFxefn5+9vb2EhIQzMzPJ1eBmiqmrvc5SUlKXrsNHR0eXl5cdHR3X4OhQep5+m7UwMDBehKW0xNOgtciLpbw/cJh0k6+EoLnE0d1TfaBghqYAUYPh+NiFAAAas0lEQVR4nNVdaVvqPBOG05W1CMguVBQFREFEFtH3//+stzQzadKmbVL0Ee8v5+LYJdPMnskkl7s4lMrFerddHT0N+ne9Xu9f767/9nxVve/Wi+XfHtvZqLQm1au3f/EYDF/qxf9iJKVSKcttlWZ90r6uPjwMH6ov3pzUG61gVir16tMygbgAzw/1H5rM5qQ97AyWd73Ta3q95ePtqNqeNG5k7i1Oqs93ouHeDa7uJ83G9aMUcRSdrtRrpXHTao8Svq/HO5MEGalMhmrDl8PV5LtmstgdCb9+CP2rakMgIpVu5zxCevF/Wl5/h0xOVAbYe67WOe5pDhMGGIu7zklzNiuVyo0H759Kc9J9GT4LLr1qnkde5TrD+B7v8a1N5elbdu4nrfjx3NTbnTA/dc6gsVgVDaLXfxwMngeDt2X89NwNvalsRehbPneG3ux0J5Nu++Vh1Hnus3/1VGQCcQGa3RCVVxl5tRSev7urh3a91SrelEsne1GuFFutRvd62BHqoGWIvqvreqsSfsdNsdl98C8cTVSGWZmMuIdfZ9E5dW7cdw+TSqwJLJUb7Yckbd+7biTZz3Izg1Ysd9k3Lhuq99+w32hwL8k9V/0wbSfyhmcqg/gXXjGvGap9pCYzgQ8qA2x1RzyV/XYWy1yquavxfLH7WK8P6/XHbjE/rtya4HWMoe2rTGOX4fCI7KSh3GT8k64y+7nT94+v171pF3TdNHyYpq5btrl/PWynYTJbzDzeS78kUKEPGV2jYtt3n6sC6autVtPpdCWckhOmn/+zDC0vgqaZBXO/PvJPbQzocK8kvWUqgrdh8au5U491DrOvzWYzO6x32/nRrcXMUus6dHttNf/Y5G3b8WF7yG/W22OU0tXMMoQUEjINx5qNuZvalMRHKYVMCWxz/+2OT+NzPNbRDM2DoRk+82ivX+vtyk15qDuf5R09PDfeIwrOfrZdhahcbex4Ek/3Wfn1irm+9UTVmoTSGIqudRefhmXG8Y6hW9p+Np/G8sh4YxTEN59g6IX8gZ+V3DhvJtKYN6zPMXP9C53GVH2DMnjLMN/x1dbjB4h0evP5uV1FqSxvNSvt7rxWsGf8F9olfBNyi7NnaGxQEuvJBKIWvQr+633vpA4QX6o7xmHusg8szfOW5M12fsHeunrV0+5wPgNerTxLkdiMEDh9laYPXlswX4/MMCXp82FqrHiVdsnS6L9sTbm7RO1GAqOWwJA90f9Yp/GKAPoXZbdFOn+GaNQPzDweY0SfvSEffE5q/uPVzQO5YIC/3X2KvAvfucHba58qEwgw7F2gdGqfaZyaz9trqjJQifTijAZKK/59mv4Jo9D2OMBVPsGsJcDMzwOuWqdyat7c02nHcOgxhsI3XlLHqQpUBANfN43xTCTgfNEx57bpJGoa5VTgwn8jIYHgGgzh5zH90QLY+LJjBgkOxqwH0/iezuqaQy9Hf0Xko5ZJyN4Hrl5lIlDf4QxmEEEWzoFKo4yw2Au8GgNvgba5J3+ZkF+1fZYp0F5BjbpZRJiDuaeGQ4nEG7AHtxECb5bcH2YZtGg+X4BRlTN9Hx6a/k5JlNAIBSSxFWf4u5y1nDtZBmUijx7SlbwEbHycN4sSV2/h4kmMPh2wU1jLJITavnzO94nCWuPoZNSejW7qk1ASG9wUrjPxqANs5Z6pZQJYMxzfXIJEc8XR8sBTSDyePvmxysRk2is86zObpRdB/8IBLiSMBjobxAnv83EOIRuC3kOmITpTcreEAZOHSZ1cCdnWD+TStoBN66y/5mZShBr4o9nsTOqoc6VXCZvh+pe2BFafMGmH/NhmYlILvJnFt+jRAAVUNxLijQ7HW9R1I//VJT8yGnuYwkxKKgkOWrqjhIomV5JQccAIIkS+JDk2zeavgSLdffMUenDQDKQ/G9gUBJHJ9bbZuHCXaRYM8sHK36lmENpKVhRBVOrsjPkYsQYk0yDMj3NkOAXUlUgNB8wty5OB41YaMP/hZoua3DNkOBUmmsVFIflCg6ilG874eaiwtiKTOUM9c0wZQVbYGACm8KkBThAh6JpSCG4O+bHOYu5N0HeHH5nCfJA6SIk7tU+WwmpI0XSkvpIYFhlA7fv8tRAMGHqKy4y8FKawysxpLcv78dO9/xCTeihAcFRLnACkkCz0DymFHcbeZ/K6dWDS2Y/NIWWT3DbpKyKFvRCFSyZyOmZRNBDb137CGCLQ780lTSLPpQGFrAewzWLvwV6Nf45J84FrM05w3ngKaYRYJr/JKD8yMJoGOjpb1CX9FrT7CboQJzqkaYgH0CP3Z9H3mN38KVMBQGWTYLFj7GGD9Uq/MgzTJmK4+kkx9EEmoRTvOIFPUyIUviCFJDlFklAycWYENnnO/Cd8UhaosuOdX/A8WiGvrcsY/CyZTrSGP+bQUFhkEuMdC5AXcNImPIUkIq7t1d+LLtvPeN0sdJDEjziFD9ETpEzpUmmbMR5ZXJoCUePZ0jtK0PIkCo2NoqwVM2d0mfBsCiFymn5THjgJ8DFjDYZD8okPoRj/XAqNcor8fx+Mr2SlZpE/Eze0XxZSmEHRgB+RKeySe4NhmoWCZVkFHfjFFfMLDoVE9LQc4dw51CCjuWE/zqmOSLcsPVIHpfx008rvZ7vt+/h4HL/Pd4RNS5/Cx2KIv2R0Z4RCdV0KK07MnUbB2X+tF/P39/li/ZV3sk+u5ux3kXrEE8TpMjAWzXCIf6a1gMfWwO027f36na3Hqx3XGWnUnM0xppRM7OQXiLEIm8NzLT7YIF+Da1Z+t4qOp3awMzCruZ+KyTu9TSiINvmwsJwdrFsQ+/hMfogZPAmOi1/VNGZxY5qqf7nCIaFcVGiatD35I0mO3gUJYZI/hcUo9TAdkkRz2/xw44dUU3V4C7v4h8UE6qjzntlQ4oQmGx9m0PmENXbrmKpfJFFtFvU1e3PJDVUWCykEzxySo0z1IUTApOJZeekI1yUjtcK1lQfmf12Vb0eXW70Hj9d7z/IUPHjWx57GUwgrmKBousxYWMFUzkTQChOWuONuo9l+sfP+g2oelejKxrvcD90yDcNEuwp/EEbBGqdo2BLFPkOzchiLsVNA3vtMc2gJjGYGxT/yomjguuhY0zVH26x360+iW8CpEbmIOJIRK3UEZLmNLJkqRwg0B0awOuQLBtBmOY6lG3kd19fH0l/PgSl8dzybOCVjXREKybNEwmTA6hBJlvbZUVUZk5+QIoihcMY8afpqo7QZ+62nGo7bL800UKiki41hNjyGMoMKNzJvRCZEChHsfZFMYZUZFrhtb+THRpFCI6BwugkMu0ZLDNydbkHkKrs0iaVHM4PROL4hw98iowZmqxv2aHKhlRnVdCKlkHdcCkHt7knFEN6SDSHBTfIX+qgN8he5weSJPG+098NQcHgCGBCyZPquaC6QS48aN0HmlnkBFhOVJfkDnYjCScyBF1b+l0c3X3ATTvwdy5GAcp+ZV9W6SdQ0EfkNdFlNQ904kySRTJwvbMb+6D2pBhVD4OaL4kOwhpBnCzL6PkhMTJJvqjVtqBXCfGMG8rk2MF8tJ4h4NVEJXgS12RgmR4aI3W0y2d2ovc8h64Kbo6pLX2McWnNGZqJ0WvIDJS+3/KbtSzxbaHRMBeDfqChpkOCATQmhYnaiTB/VOIkOJ245wDAXK3e19T8/6g4pEUAKBR4CmFYBLwD/3vTZSIkCVi4I3aqrT/BSkQ42HdshXxucYrkAGz9aVGGiSAhmAZwdcWFirthjPDnlaoPYz8oAbYpk+FmLYQuMj6JuCdIOey4iFcKDc1QN+XhpQUkuZtBKj8SynegQcU2DUNKLbA0dMX6banZed2WY2y4riACkrqN6CaysYBLgFnDZOmECQdU8q3xnClBvKQlhiHrkRKBAHIRo8h5y3tE/oHK6F9qKHC0Ey7TQDSKeEv3h2KQ8JnBPSpE/WHHmEB2agcBl83HDBsGKCxCOFIXAX3KBPtq2iI0FCqNhGNRKgP85yEVxx4SIinlvJyHqDgDpaEl/AqL1COfrcQKaZ6VNuCdoyKoatYyiHftWbsxx7qv4mWSuIgmHOAqRSZ/ZGIIHIf6O/FDLt0lSCLGNXPgJuj+y5h5HIYwBvO6wQ+OjyUqoWvGWnBxicC5pECHQDbsRYBPC6TK8HJj0JSdAiQ2MV0rKVE6Xop8iGWDDQ8Oq1xLnEnH1O4FJcSsNJDfkyctLUwhRrWQ+Fkt0QmILDnxY25tuKpOiP5clvJDzaXDPjmTSFN3MkDbFAJi3+JhmAJ+UbwZBATb/RmUY8Hy5ydGVKMTvFvLPQAOV+f/FnNAyztz7KLI+uXjtKg4ysUWgBiWTJJjn4TUTWlX+M0Gw1YjzSQFESmHdVCVXkxAfiiiU1NOoHvndHxiEceKJxvCK1ZYCEJsPGxAV1ti0V7mSP8U5RLXJux80AmbHB6oOPM9/cQTCOiksKypUjuBL00w5Uij7ZEzPcZOuCRgGBxDaix5Fi3W+FXZyayLGEUBNl3rQYdWOe7DAYXVAzwxYAoRYMv5AWZpA+q3T+BrsoTx3oBnn7gCOZCYWI8NGojH0MWI1kXwULFbgAsipXAZQ4FRmKYyafPwQV3Gxb4AuZxGltalF4vH0zUSqny5fAL9mwXwUgcknXw6sXS+pNxlnEV1pZooNu3lgbKEQmdEtjcxYMCtJiTbBQr6k6ZkTeoxFlF9GlLRzaMmk6csHlYjMvsPIygy8Hlbqk/RMDmsWYdFGuu5ei1+UZYEfX6lcAewAk3SAhGkZA0f8cCBiovQFgwkriPIVC3JVKpZKJgrhRPYWYwYHmR03kD+m+DMEFfaqmvRQyM1pXhCoebWEOpXE4H9gWmFLAV4ApmKZ1nTvlhVW2cIJyeyECbOhmKkESZzjhwmtcuMkQ8+W1M6JJL5akh+yWVM5CoVFqOlADZwL/gOSIQZLb1PCVPhoZHLcuI8aB8hiKxd3wn25d4cnmVAIwo1L98mm4oTKkp1r2UHEl38wsKBUQXWTMc4ZCg1S6H9Q/GNRylT4uGIjKMmcUVzylgMqdfWd8BY4NlBewGkacKdwCmNDXwbcPgWZFgZ5anKTrQs6YFn2HEG5CckdseuQOJ8V+SnECArshdxo2BLhtGHGlNgnAhcGSf4b0hh+SIUbEmF3xVNOBm+sxMpl3HAESVyK6ZVMXUGgyIHscUbXiJlClEK5PsLQtI4IsFxKBfkmKWiAVHW2dg0YgPp7cEF7npgBM2xVlSnkmylJlilCYiGh8BDVQ7aeIvT7nDgAlmO9l+FSD05hSt9SCnI1VDLIRTqwupYgtigwinUsCMyTeG/AtJdHLGaqwu0s0wCKl/yQy6lgMi92yxwKjJu1dQ11wE0U6I2GZKtOIaa+ieKVq8pAuxsbNqCpyNy6Bp0zVwPFXbZoq5GR4hTmbkgYDCs0cuYLljPjQ0oiqJm6NcAbYBLXGvmYUwdD+6bqFKJbAys0ctka3DIXk6rBGph59t36lM9BINamASYEgopol8R4TDg2lctHYWH9Vng55hnO2USLgS7RM2UTi47rSraQoMKxqVx2n5Z6bwSXo6nI1g8VYHyxY3x3cAcELIle5VRA5v2RPEKyuh41t5uPzhOudarWj4vf4OMT5RKbc6udL8Gzqdz76a6SVbTVKDhd2ZozBW9gdnUcbeQZIDA9LuRQ4u6SLMug3UMjrUbRqTu3UZ1Du5l6UwhqBns/q57gMGKNvmzVN24BiTRIRmudqXURCw2L9t//B2oGe7HKn2sBqHMWRlIDanTXgLvnZkuDDS9n98ygux7GGPaDpeinJdiiINpUsYmi9klf9MF0YsedOrEunTxow2f4lqAwghxpudV9GT3d3g7vEw/uyVFflkT60vW0TG3+akOb8YObdYY/E8Dg9t+WoS6hczpUqVXnj/S6Sz49psmxt/RiEe3D6WE6s+GgEfLBJTMiyQjavZ+AambwNBAeUZSY/uZ2mcrXYursLrbafGbqlg2W+nu6ETBsQtVMPJIUEKyIgyskrQUZhU7grqbAWJZ5bucBH0Fj8twgmbwTEhZLIeaCWkxZj9nZxj5wNftYb8xz+tD7MK0N8ulLMnEECefqwIoxkVZJLeEs4p9HnjPfn2UyDGvn0ocJD71bjl4mjWajfQu/E3wdSNdA+ZCUO1IAs5ArvcR/uvkZvKpvWD2Tu2kzJ9rdvXWuu0x8gSFHgrMD2gk+vsSnDxSpN//D2GBmlTmE4nevE1SaDQ/N6Jl8qEkSJJG/Ir2BuYm7BCHRM6jGHMAqij5kYMyEj4sDbMAP7w1iABVUEOqnxgWBpQrkozcYtbtRo5TtVAlmK6kciCgmrWTASGGEKT5XQGBYxdEGKmXqR2XKR+lUT7vb13idHYA7JkAIMKiQSE7ZJQG1oNyhez6wB075oL1uYU9pJgfOxvhz4+ia9RnX06WEA4k2jogCDAbojMQPj0kUqsIQAyCq9KnnNeu1JvEsMXAFeUr8Xe9Zi3BfntrquJjtcXs18FJiXAXOKR4HkbQoMeZvCYBmY+bThMckZeiQCs3CgyIfzbQMv7fSu9/HaPaaNzwX8TU0hSkJKjglAsJEcRrNJxDFIuIp4vM/wCnCsgN1iwHxNe8ia5pp+q2oTONkZjU9cDkgzFgmEohWH5PJccOilr4SPhMdk7T0aArMtai74U5qVZJmb4LYCs8niylpD08i2MSYdaPghK7QicsdZFHGPGTvIJlSK8Cfo4cE9tneHwmTuITrhGY/aN3CHf/br9JNHbVgHzZSqNrTICgxEfKRpuvsWYjBIXrpaWL4FmDTRD2CtLwL1waHug5GXSZ9WWZX6KyMc4gURvPTnsbRPxds7N+g5z1f51KBqgPmQxAK0z45sHWzc10v8qZqxlCDKUf1Nkaw9jTXbN3UCDzdWbCNzW7scu97oF9aKg8OE4OewSJMIj2dx08KdaInM5fZs++oyCqXnNB0cGk13x02n6+fm9l6+z51w4a/EeQz5Ba9yyGdFDrqxUL1fDKEI0HMNGVPzzOoa6fcjFnS7S4yZwPLrmTgObTApyXuJC96PMppN78g77PiurkEIqtuLQxB5BSljw2Kq+nXAyAbggXw5U1g+AsYEZYHAgLd7SeX39c0SqA6hWZa+sBjI+b86uRy9vCNcAvNB6whE6rZaOlPdoLnidpxt9f59Qv9lXEjlfsNM2cFClFsc3mpgdRB6Qg8FZK6B+O9Y2qms+cOVaRrzGV3/rG3w0cHa84HqxOUKQTPVxRQ3BS7D6F0qYSV4IBfJ8idHz8OH2P6Nl9UwQBOD3s72rBUs1/5borKRSdglLq31XqzRXIH5WKrWW8PO5FkcEf5rHrqT4trAUhECN5DbWcXQgRqpr0fhz6+cmtGiD9JSHTX77/1+8temDTyR4WKBQpcABGKbzfEGKXjYZ+3Cvrp6G7D8/yNPdvss5WRQkhhCDOILN4UNAwL+uBoPIlSym3bdFfvi/XBw247ddmrG/+yUYiFUFdiuhC3KYX6CaBP7vBWvRh42zIexP2/rBSCM/SYQF7/Wln+WASBUTVwzMrX7Bue04rIi6eHZKQQLG8seU9tJfsgwlPwtOGkWLmpFLuj8Gu6SauSFcLq2SjETieiqXsedlVqaWJR4kVArMceu3FJ9BaKMlCoaC24Ds9Xw9FodDUaDattz3SkxbgKeBASdQLjTtyNJlH/u9gNOID8j+oRGlBLQ5T62fwYi0mYMsAwlEPsje4nzZuSj6Jnk5fsH7NRqLPHASSsmJ2LYkTyTpx5srANMdcKQJ6krGlc/zZfsy1Tt8Wcg8ZTaMDLNtEulfAfvpdCyEP5uqCvWh2kiCbrVnQmgfYMp/OTKcy298kX+Mdv1C0xaE3uPW1WjejodjhdymPQCyhUjC0wwvefMFAvD/o+NIZxTsfbQ5NUv5ALVSkkkShJqSRtRv8PUG61o1Re3TfL2CKVXKZIIWcOJXdV/Cxak/Z9dejb5G4dFUOJpVBN03Bni8rs3volPAYUKuZpbNYcqlUD/6fwNWGm1v02Gx2Okt7xu/ApJOZaMSOskwcQ1zih9uC34UdgxOVSoxBT+qT2QLla9r+DTyFxm9XWLbDHAHew9iXCnwISh6v11oR0MNe14yLRCShUW10Dcwg5v28Jd38Go2B8amcqF7ijts/KxvwshgGPqR0Swh+X/oPh4bnwzRnJ96kdV2uwh8WlVFf8KtoBhUqd+7G3N4m/H3+ThBR0A12vtPcCY6fnS3dLSZ6HrGAp9SzkYieFlc//Hj6FZH1Dqe8A9E+EOq4LNvhE28P5fCoUWtxhcRds8EkAC5GBEoUkdgJj8aOZtjNRZCJ0JWtBjAUskvwiAek4DRDKABXa8GBk0bmELE0KGHOm0JWOS7RdtColbVOWyqebY8OGy1elwGfKITC0EWpdvFeaA8dUOXyCEwHIulBqwejvoh2ETwrBhU6Iur70NNQJE8YxlTaIfJImrar5l1EMlKH8STaoaMgq5M+tjn4LSgGflaQNIrRNIRl9+Q4tv4SnwGRLryAaZKmp/QesYQ6UKXEsZfOJWFjaufQsFEE9MBeyqgaYlIROvd8cvBR8VQM5azm/DYuhyKKM8FyOy8JJEKEqXi6hiB3Zbv+AQ+OjHYwzepJTwhS2Lj5Fg2gxClGmAxXsdoI028XrmRP8fBmUGqRvYMM+dmQKVXpd/R7ajOuV2imDtjLpXHyGJoCv9bGdzDrRJmo2tqAgYcVFVChI4JaZxNJngmNj7bF4GlbVLtwlpZiwCbPaPoZETc9vaWHQ899w2BBlP92C9RS1T5FCNZz8Nth+Qlbv336zEkoN13y6ZaHze0803dIO7OYMqIe84FXDMKCjHx2x+7F3dMPQNMMwC9b+a8HtPanwG3X/BsiukGXggZVX2/Xs62u2XoxXoS32uB30zwihj1IvTGLslbgb7cKzMxHAEkuaE1aCfbfKLQMvAFgTnxQMta5pYfXfYlEC7HE0iHHEKhNm5/ufUjKICi3ff46Ov9lmOxeo7ZW8HFSYHQqddrNyUy6VyjeVVvc6VBF/wUVsKajccoT03gaDt+iOhuEfCOpjUYrfgoN4+KMMStEQ9ToM5C9xm9hfQTemsn/ZOX+v3YWgVI/uM+pUG5dcjKCOUrP9cNv3lEyv/zy6737nZjuK/wPXFkgcthKiJgAAAABJRU5ErkJggg==;" vertex="1" parent="1">
          <mxGeometry x="564.14" y="479.76" width="20" height="20" as="geometry" />
        </mxCell>
        <mxCell id="2PFUA68c3KtspT4KJn6I-41" value="" style="endArrow=classic;startArrow=classic;html=1;rounded=0;entryX=0;entryY=0.5;entryDx=0;entryDy=0;exitX=1;exitY=0.5;exitDx=0;exitDy=0;fillColor=#1ba1e2;strokeColor=#006EAF;" edge="1" parent="1" source="2PFUA68c3KtspT4KJn6I-6" target="2PFUA68c3KtspT4KJn6I-10">
          <mxGeometry width="50" height="50" relative="1" as="geometry">
            <mxPoint x="343.9" y="338" as="sourcePoint" />
            <mxPoint x="393.9" y="288" as="targetPoint" />
          </mxGeometry>
        </mxCell>
        <mxCell id="2PFUA68c3KtspT4KJn6I-42" value="Data &amp;amp; Code" style="text;html=1;align=center;verticalAlign=middle;resizable=0;points=[];autosize=1;strokeColor=#006EAF;fillColor=#1ba1e2;fontColor=#ffffff;" vertex="1" parent="1">
          <mxGeometry x="305.14" y="270" width="90" height="30" as="geometry" />
        </mxCell>
        <mxCell id="2PFUA68c3KtspT4KJn6I-51" value="Models &amp;amp; Code" style="text;html=1;align=center;verticalAlign=middle;resizable=0;points=[];autosize=1;strokeColor=#2D7600;fillColor=#60a917;fontColor=#ffffff;" vertex="1" parent="1">
          <mxGeometry x="459.14" y="250" width="110" height="30" as="geometry" />
        </mxCell>
        <mxCell id="2PFUA68c3KtspT4KJn6I-53" value="Metrics, Tags &amp;amp; Runs" style="text;html=1;align=center;verticalAlign=middle;resizable=0;points=[];autosize=1;strokeColor=#005700;fillColor=#008a00;fontColor=#ffffff;" vertex="1" parent="1">
          <mxGeometry x="445.14" y="383.5" width="140" height="30" as="geometry" />
        </mxCell>
        <mxCell id="2PFUA68c3KtspT4KJn6I-56" value="Artifacts" style="text;html=1;align=center;verticalAlign=middle;resizable=0;points=[];autosize=1;strokeColor=#001DBC;fillColor=#0050ef;fontColor=#ffffff;" vertex="1" parent="1">
          <mxGeometry x="583.9" y="280" width="70" height="30" as="geometry" />
        </mxCell>
        <mxCell id="2PFUA68c3KtspT4KJn6I-57" value="" style="rounded=0;whiteSpace=wrap;html=1;" vertex="1" parent="1">
          <mxGeometry x="653.9" y="440" width="160" height="60" as="geometry" />
        </mxCell>
        <mxCell id="2PFUA68c3KtspT4KJn6I-58" value="" style="shape=image;verticalLabelPosition=bottom;labelBackgroundColor=default;verticalAlign=top;aspect=fixed;imageAspect=0;image=data:image/png,iVBORw0KGgoAAAANSUhEUgAAAQsAAAC9CAMAAACTb6i8AAAAwFBMVEX///8Abbjm5eXn5ubl5OTk4+P8/Pzq6en09PTy8fH39/fv7u7s6+v6+vr19fUAW7EAarcAZ7YAZbUAYrQAXLEAWLDZ5Onr9vsAY7UAX7PT3+fw7OllkMeBoc4hc7q1wtvHzuDY3u0seb3m8vnI2uyUtNd4o9Cfuda+y+O3yt2sxeFUjcWIqs/u8/htm8o/f78ATKt3mMpYhcLa5fK90+gAS6u0zOQAUq0ARKmUsNTO1efg4+3N2+bh6vVmlsqEqdOAEZv4AAAaMElEQVR4nO09CXviuq4mSbMSslGG1DN0ulBaKHBu6WNeZwr8/3/1vCbOBlmh593x951TD7YcWZYtWZZsAFCyJFmycEaWZWmA/tqSLCsqyhgoo+ESDZUYOKOgjI3+DlCJnADGJSYHBgy4z4F19FdVWLM6B+6LzWJgkwPjZvsiThFwhFM/jRMGlhI4SVVwAn9p8ZcWhbRQJIVUkCRJId+9kqQrAopKKC1QhnwXl2BQU0GVCUaoxGIlCvmuCEy7g0p03iz5LgKWOXDULOkOB66Kk81wUjjwKZyUDE7AQkk3TXOAM+ivaaC/Bs7wEpOX6IVVikuyzSaqDCoCJ3A6DlyiWT2JEyE7oZwSU05KjiamdnI0pXhAFD4gdDQlBhyNJh8q3CwdTQ6sCMASB7Z4SQ2cpAgnMxcnWcRJzcFJbn2WJ1eezCz/wiuPyBfsu+XHQBxapXgMeLN8DLLAxXyRxEkrh5N5Gic1B6c+SgPbtk2cQX9tA/21cMZCGZ2XmCijiyUGzvCSgQgclSSAjTRwotkscCOcBmmcrFycUsCAUC5asxXpqqwcuZIUQnZRjlyVXrMlpbQcKYcTB87IkfI4gcRE/atf/KVFQtdSKOOgv4wfUYaAogzjR+WK8iPK0Dmi8DmiMH5EJZQfBWDGj8qVzpsl30UZNkeEZm3W7FUCJ6kGTtZRnDQRJxDjhMku8wEhlDHkmHIy6QEuIbXleEBkQyS7KfMBQRnOYTLnMAJspIFJs4TDZM5hHFhiONmNcJIq4xTpF0rMRTFzFnC2FDOnwpnzNGdz+ZUFTsvUQpyOzDax2cqzjQJ/CV2rj6sCezAYqLzKpXWtOjuqlA5+bEeV0sHjHZX88j/XQvqfn/JlcNJRMnDiGT03c7wkv0rJZg3dfA96QvJ/mxfBCTDKZXdUxaNJ+GsgaM6p/XH1Xd5jghbj3zVwSmvzStld3lWEE+Az6qL6RR4tLq1rYYhoxWOgBav/QEl/ly/gORJJytJCElf/o7SQZKWsRKqAk5bFCagoGVpfs3AGbVE0Hf01NZSxWUmflKCMgf7auMREmQHKkBKLlai4ZMCBk81qtFmbN6vzZilwlhaVcFJFnDTerFUZJ6JqJjUzpYy2qDTRFpWUtii/JNfOn3I9nKyGOH0F/UJL00K7jH7xlxYx8CXmSHpH9VXmCF1QNLbUoESXGpR4CVunNLZOoUTXKVbFEoHNNLDFgek6hRJdpzS+dmqFa6fQbARcB6dMh4pwAsWczZizSKZmZHkl+VVBplbY5TWUqfm0OLeude0LybmortVIB8+cUR3Vd6/ydPDl8y1KzzjhzLIGTkkdXKmlg3e4N4szp9LARNt1fAxmkszgDDjl7c1KnJs13R+PvqH0MEIJZ0ayNHogGfbDw5WkjfgPpKQxTuZJnHI5rHv9Ar79wlYJx3GIdcLtazP+A/1F1l7+uRaq/HNxXaszGx/87opS4h5qM0/8wUW0GOfrWo1sfEoZWkgpG5/Mzbek0aydFZfk21kzwFk7q5yihXvfhzM/QQsNZvXOuFm1NZw4sJ1pNgLu/EwgRQsA5klaFNhyCrVFZfQCj+NU80yAc1GH+kU9WhRzNlw4Bzaa/7pzs5ZpYc6Dnn+/6dxHqZOz5ZpzpAinZYiB/G3u2TKfIzXOlq+KfQ7U3PP9vlroc6CKwML5vpGihQFTcqRvpddO6whO+hOFdqbgNE52AU75Pgfd+6Jk5IiWkiNy1n5R7Isi/xmyauG0EKeavihn0LVStIAlaFGME1xFrTmzM5ybteu7lqaFltYvsrTIOTfjOGmCWuZvCnAq4bvGmxV18GIXQEN0ARxkXQDL+g+aKb1T11PrhWGkz82MQpx0kY6uVwmnUx0CfNnt0Nf1jWw9cBqi/3pIjvxieWeI/n+N5Mg/jhPX+fX7CE4LkbDeSuU4VfZ1ze7yQP4sb1W/+HaD0ugBJZzZIak4whn+ww36gZagH3Y4YxfOcgB6iTTciDh1o2sJm6IsLZTTtEh7kGhkiwBkTSMwJvqBNGuhjMFLMEY2r2IIOxuBFjsnQQv3u4hTlhaVbG0dzJHIUkEziC8iwwT/ITZm4IT4IqpCStR0lWWEU1Ir6/WCZd05kuPHlz0TaORldaVoTmSqQH9//QfCN/GHa1eTp7+47YL8leSXfxyhyj8/Ze1/HaHKr4PGdlTw1UvSwvuAMU4FZwJXx84EZDrSpEOt6xdakol/wDr2i35iKnivkOGUoYW7gFn7xZc5N9MSPffStCinaxXS4keKFj1fh2QDb0Go6Q1pIbXtrVuDFtlzswwtGE5wn2gdV35dLe4nKC1WHy/fCnAquRqeDtyweEm5qA87RQs1vU9V1dQ+1bTT+1TVTNJiqrL21fQcQYWuS9p3XW88vJ8t1RqRKDSYBFAuqh71IfooJb37k5j+qLVnV6+TtIhwmmZokUiuH87zcCoVcQD4jGpP1+qMFnj+J0HzUrB4aKZr/Wv4YjfsnUqu81CTL9BMsckkslEG/e3rtmmbfZThJRYrIVVoCaqi91lJBIxLsAXmFC2y64VaYr1gOA1O8gXWRRM4FXcoLiEduoAc0dJyRCovR+SsIMkk50YpjEQ5Lkda1y/6XeoXmvacUMtykvsdVvcH70rXSmLWrt6pSfopvnA+W/RRarofGVLTBE3XfD/CjBNDx0Vz5NfQESrR/chwyE0cv6L9CAO5xvsRhpN8QpJ4B1h7P8Ip155M3XHjBLFSfGP2ix03VzygHxJVRtx+8cDtFyre7Io2D7JPZeO8O84YbgKnS9kv+HfV2AShyfSwD2VIVEQl+4XGT0Gp8QM1C+Fyuz4uVJ1R7viUOqVuiy+W35ImiKTLRcJ+UVjykC5JVHm4nf1Yh8Fxrgi3sClfVIz6yLHlzH/F/hSiccJJeFpUqJIpcXzfO7Fuuv4WNrF3Ehcd7BaEM9g/yBAzUcmJKubqpNjvPvn3D3YK7eIODbJVWjofgYtL08L13ZkpsoLoo5Q9H+nQRwmuL0kL1/WvFzNLa8GuVTfqQzBAwwtRIQhDz/cX+/k3Qzvto3QqEoWcs2Mv4T6PsMCHzyxwo5+MsOjzkBF8LM3CM/rE+XgwuQgpwrs/f9BuC/cvg1Nxh+JIlGSHmBwp9FFSiqM+Ej5KFyEF2uzouTgd8VFSUj5Kavs+ShehRfgpf0UfpfsLrJ3uGn7J2P7TZoX20/BRbu7HJ84RDen/ZKkhOwJVBSTCAqBMFGGBS6KoD1xCoj5w5InMgS+hX7hvgOKk5eNEdjZihzSxQ1EkCu8qWjtbkqmZM5zuU3gH2vf7bUHXSpmqzpHcNTiOUyc+SkVRH4IOLj+fnRbDz2Kc8uMETurguREWeiJTokR/uD6NfavJ+6GextYoWUIzIEG5CnFFaf+LUybZ1mmxzI8rSu7Zy8UVte2j9HZeQRLMz+YPXj0OMXvo22XCp2+5t80U+SiVikPEKoUlxxJYHoBYAmOrYySB5Uh820AFAzkW7Ngw+RiekxbjB3AUJ2IsRRmibKASM7dDegSMftDltuKWJfmcgiSYwbbjltv0UUqdCHWa3AWQyuB0qXMz7fZ8jOEvwZeO7Zess2kYwWNbsf0p6wwOrKCWHx5hodoqD9yIS6jlh4dnoCo8cCMqAefangVTWBYnlVrt8jrEuyoAg4QIkkSLIBdBhfflSEn59XIeSeLvoVQc2y9lZGrp2P42fZSss9g8vbUYhtmFrtXsfi1GyHPsVZGSpZe6X+vULcp5Pko4pp4cG5ksI54smXqixEwfPpkJYPMMC0a4NDNfPoZTukNGbofoIVq8Z290wzkl+yw43ZmGpPjUjuBkpZmkdGx/Bz5KHVPCHX/Cc9+jVCWOPvHdbjcl7v0OVsfpYveDf+9wt+rdqyR4srv7wUntq2ZnAlHghrLsjhb+ui9XuO/3quSZQHex/ep7V7MkfDIKOPvLnZtFE/XQjbHP2YIMTl/q/ZHc2P63DqaJ5+7OcW98YciInf/+iJ33hMhALGn/aDXcD4x6OIkhI8XA1NvdbE+O8HhpuW1ieN67WRGnEjHcKkjuMDqK7VfvW5wm7vBJ/de9PyKMgXrf2i4txBegVMapBl+Isf213yvKCT6z9VU7otUPtiZfDKyKOFXpkNVBbD9fs2U4d5ovGr4/K49TYdzyF3h/ZDdpNk/coDfTS83yr6trxd+dhvVZwwvfni2Yje0/Ay3a2o8kdf/lPqwlUNyxe9gN5AbvjxTjdHQ/kpUjFXygC+QI4OJpt6pMDS8Mvm8NKNfGqeX3zWrbL7Kzbfk6ORHmIDKEN5z8eLQ7wOlC8WZJWqjQeFlNQv8UPVwvCLzF7MYUm73Y+yMt2DvzpbMMwWa+d53A89wMSVzX88bDcPL98P5gQk2qHvWRY+88jVO+vZNoI8Q4zDLkDiL0lypRYolBNBihSqLEtNLAQrO6Odg9Tv+zXuPYuiAYj8c+DrW77q3Xr9PnDQ7I12Pg9nDKAGdKqB2cVAGJ1aVEDHfx+cjpu48BhNbo27e7u98/f//EAVTA5LdWNHplsq3zkdxZ3uGd2OQBKZM4jYB2VryOdK1G56nFZ5dZr1klz2u2ZtTH0fNUqcp5at7hs33qnN0uPNO284ATzeYCZ258bBOnXOAcnI7H9l+lbrhs/UVHqi1mbgJVKty6KeBkNcSp+3sa/z0vK/6lRQzccmx/kxcdm74y2diPTxXdIZl/J40qVwFxh5SpOyQJPFdBRV9KCqxRX8oYWOfArNkUMGiAk1wSp34WJ1DM2Yw5q7w/ct7b3lv3+82nRXe6VvuzvOtzs2pxAmV18DKRKFV2VG3HCeQGVVR6uwNta+xMjEatZk3TNmsDF5aUBm4eVwTee+HbSC4azeMclthRma9h+NQKh10otl97HPZ6bk9rQb94DXu94AlcVNdqFIeofWCLZvh47Lu82ROrPzWNgmoeqrmxkTXjEMVXyaKgTRwKD/JfJQPRq2Q09gKS2wL9277MSwgwf1jM1vJjQSlw/CoZLiEO5ROg5uMUAfMQ02KcCjokvpSWG59KZ1SDMwFKi+eCOPoKXvYDcqfWRJOaa7CXiu2PaNFwlksmo8UXseX8pUWz+y/OP0dO41RzjvQzL88K14hkXsPN3ovC106YD1x0B0nOC73R2pnzGm41nNjaWQRceC9KY5nKaKEdsVLyZk9YKRktupOppyynTXUtmKFFbV1LpMVlz81q3q8V0SKp79bRwWNaNMSprg6ejrAode+aTp5z1HGVwdQntNBTwLhK4aVt9AdSReclOqBrp5n5MjvtEoB1/Hpk3H78ZXZ2prMa+G/5i+QAo1z5/bEM4bfd+/vvGw2SkliORKPJq4z69E73nB2VBo1vd9v3u9EAstHMyBF+Pbo2+6MmcJKhMdrg5jUoJ8zxtnb7Se8mlGF/hJrfjQwolT6ZBfmzvFi/gJ9P99fD8XgcOuvZEuToF0B7WU2uQ1TF8RbzZd4st+XpwnGC8Thwevt3OsuL9IvXa//6NQH8++A6qPlgGC5m0bX5mBaPjj98wz8s57T5cOgtfgLQTNcSFvAkLTaLMLot0fWc1TJLi7kbe1y44/CQ/a79MY6dENxw/U5oMcijxYa4R14/xsDP97F/i+sFBxBLJLzgBHOwPISJ5u1K93fKqXdPyHMqeXzxNEx6DXjhfMZpQXW85Vsq0Mp3N1EEDG323U26tbnDhYpfg0zTAk2AKf2et2I4AXuR8gLzho/ky6jDd/jL3tOjl/QFCqYcOJcveFcRLSqcCQy0HN+84J50+JbGduifOXdsDrdA2FEZBydTw3V3QJAjXFt8vGdBB96HRnH6dLM+T2QGIQ1W/klrp2u4a9h+bP8ycvR23ZRXCdcvtlE/xSrOk8BhhyCniuuCrH6x4kzoBSOK00aYfXHz5NG3vqz9ToZr8ObdBWz93Gw5YV/3vfvVajUZCgPAaMHvJXZDd71aLVzeGcQZ/LuvIa/S269WbwHD39mkaAFiVh+uljLB6YHf9Tv2J6vVvscXDmeaoYU3nKDm117geeFn+++P7OmXvd4MiUpogt0h9u1lc6RHfwjWjxqqooLNnlW53uj0HPeTcoUbrO5wK2C5pV2+3olzRNK0yIva6z1ynBhf+r3tEmLgzRNbPNDaiuZITAvXf9qppMr7jx+fWtl74+nriRZ9V5G+J2DzS/ZJiUVfTzSeKXLjFXb4tm3dsvTRgg+d/6zafZNTa24SGMOyBp+UmdyJSpo16D+9yc3AsE38QcP8GLquvxj0bbp2GlZfRbLI4+yz6hsUJ2NK++rMBgbFCTfPPqmbtnrHZ5+//jOwUIdMG3svmfkdSnc1iu0v9AeKIvU02otwC+XonQkZcGIQmXpDWTj8hDEwtClcgNdPVSNKas/bG3Ls3W8+Lu4PfUGmysvvUa8mj1BmOI3YDEFiKdL/ZJNi4GPRymnhPw3kLt8fYU8i+x8wuaNi1ydhWrBnD5xPLbHy2FT2YN5X+wFlkugt5DxbDtx6EVO8xjgBYmTuhe9mcpYzxotp4a47fn/EIBf6upP0+yNLP6KFRMf8AFJjsCUoIjUAAErQYGNmoj7QFGZ88fCdrxT+BMeO8B0VNZN7T+l9wY5UD94jWvjLY+/SHPNdy42wyL5XtGRftFMhI2y0/GfbpkHL4dJMBW7QkcNviKjk5mx3D3KjPlQqj7nK6A4/VDvGyd5QOi5VspMi6xHeUNmANIpoZFNaoFzd94rKyRH5N+VuK+2jJN+QHiA5Qo067h6md3naFq95RMoTQTB+iXdUiYjGxCUz7ttDAif6poK7+Hx5xOkFJZahr1agdYbKESRC675jVU6/0LYEkxXM2nImlBYavUhp/KJldjY3ZPK4BnuaJNCO2XLitEvgBOnTwm4QhDgFQZRhunCf6xdWxz5KkEwFf65laUFIgGlBVhQ0KhlaUBKMR/IfzFzuvVGOFuFOzdKiMA1vKC3c77BjHyW4IrSYyRkfJY1cPufdypwWUsairjFaSH9COlkKTng4LVw6vu7aVmKcTtEifKRzBPFus/dHTnv9HQgttjmeiESSOkhtJLRwHnJWHjo1+Gvii3zvSGbLQRX3G6ZArUWcDif4Ysn3qUCMN6viHQk4F52wX5CVCz9KJfooke4QEgw5LcK77GxTPUaLiCh5PkpMv+iFL0i5pizivQk4Mb5w8xN+h1qgRS1foQJaZHQt8qIQvlY2f5ZfL9nAea/Z75K7D8iVtJQWu2PnZr0l3uXNqY45FnQtKrzX+0Ve+s8LyKVFGz5KmTnyhyoPu0xMJn0+CGuV7BqlLD9SBWAF2GPJ3kduJErS3jmnehNSPDlOVH1B+qVNNl0ARx1AaLOMbIPcOVIlEqXsO9x0j+ju7ZTCYtLfV2gvtCToj7eDpJJj0GeB/blhsQe4Az1ScsRAX2YHt0mJuaKUHb6ztx4NnTWvFz2lbbC1Uy/xNngcqyu+w13yfIQ9yug80lnORxMeCMrBT+yjRC+hmywTHKb06ZbF05Bko9orez07DtxjTxSJ5yOSuveZfGA4sUfqh/2k5ixp0crD5Ujt99nL2nKWbMu+EWc5pHsN997CwLdUB14kVh5Id9reD4hXHnqxZfDK1zV6ufjtbJSkBcGJ7YHDDcXJ2jj0W6Y4y9XRjB4DcFsO1gc7j+1nMg2PU7SjmoWMkWUCTB9k8dZLYUe1ZxumkYzHYMeWgYPAF7ve2L/egsy5mdljpo8lw4nug937pcAXB8e/XhXyhVLMFyoQLRK0Q+moD5scSxNrB46wsKMIC5Xb6w5LGwdvqWCzpj3zvpNoDFvdUNK43hQfx1kIo2dmawnnJmkWfFA9ary+I1VsoNLwZk+1GS1UGg8ysNUl/SAiBj0q37Hmg6lKgFXwuB6T4VExthajhSFEoiQ61E92CJtvhK4adkqOHImwkEdML/SGi9nz8/xjwqyZ7kRjeg2csu227z/Nn59nh96YmTcWkK3ZBuN8N3QPqMp0f03/7dxImXMz/kVy0TEChlvWvOfsEQa303tq4vMOkJyb5cuRxrpW3rkZnHPDguv58QNb7vBG5noNPERWSlQlMt56CytaeUY9biQVG+n5VvZ8RDLYrUz+igLDWaSmi8DBrSaej4Bm+kW5M0R7m3N1qzu50WIdLzJzi8l/M+LvysvMAQZm85d+7hkiI8bwmW+Xc1698yaG3CItyvrxbbx0P8brvpzwB5qnTtYQ+x8s8dQJ6V7pKww97x0qyoCuF1oi6mNKZdMPDrz10xgMV/wwS5wjpd8fEWP7seWRLLvcBGnIMeVk0gNcQmrL/f7KEXBxfW9m2QyYOo3JcLQWT/nc8eQRqmKzfRm+9MQYd3e4/0PEIhZDbo+yJ8fJeMId9GeQ4QT/7JMYjF8gE4saMSt5SKZGHWI4yfxlRZk8y2jzDgk44QPLWL/I+ijl+cDA3cF10EqAUhCuZ5YWOdBFp6D2Zu+HpIYXBotbPesPpJnb9ZhVGborfPkiLnm/Rv98B8moD+Mp9MY9LT4Rhpsnd8iaD9dzK9a14H7o+Z7GfZRK6RdN3x/ZzV5fXz+m7w+kSt537c+P1+nrdPq4JP5geafUy8cP3MhsQ/mOfPnz9fUOgPTucj6dLgVexd3ZEAw+UPOmuMvTt9OPpVyAU00fpVNx9FArjLzmwBrbNx3xapEh5e448ppc5Q9KRYMjYIJK7n0DBe+PnPS04eET9aM+CquUbLYRcNVmjwEDRrlGdx8rJUdT5cDl4orqe8FVjCu6VGz/l483qxOHqKS/e/aojzyv2SY4ATHCQuVRHzj2QosiLIj/MA/P0MSoD1UIGVHFqA8t0Wx+JAoHNo4D86gPkwNXxSnToSKcWntbodu45XI4NYlb/hvb/ze2v/y5Wfdz5OhLrOByc6SVderE8tdo7ezXxKnG2pnmbKUDmVrylcnCqI9zydQ0Lf7rda3/dzq4VEsH/y/bmx1rttaePbE/bnJTw1X+jiqPw86A0/8BOAQD5v7owZkAAAAASUVORK5CYII=;" vertex="1" parent="1">
          <mxGeometry x="653.9" y="478.76" width="30" height="21.24" as="geometry" />
        </mxCell>
        <mxCell id="2PFUA68c3KtspT4KJn6I-59" value="Prediction database" style="text;html=1;strokeColor=none;fillColor=none;align=center;verticalAlign=middle;whiteSpace=wrap;rounded=0;" vertex="1" parent="1">
          <mxGeometry x="703.9" y="455" width="60" height="30" as="geometry" />
        </mxCell>
        <mxCell id="2PFUA68c3KtspT4KJn6I-64" value="" style="shape=image;verticalLabelPosition=bottom;labelBackgroundColor=default;verticalAlign=top;aspect=fixed;imageAspect=0;image=data:image/png,iVBORw0KGgoAAAANSUhEUgAAAOEAAADhCAMAAAAJbSJIAAAAwFBMVEX///9PqkHl5eXk5OTm5ubj4+P19fXu7u74+Pjw8PD39/ft7e3r6+v6+vry8vJFpzVKqDs8pCo7pClBpTD//P/q5+ru6u5Rq0T59fldr1LU59Li6OE2oiL69/qs0qd+vHZYrUyFv36Qw4putWV2uW3c59tlslvu9e3O5cux063f7d6+2LuLwoSfzJrO3My827jg5d/2+/WaxpSlzKHX39axza7I3Mbk7+LD38Annwi3z7WQv4rK3MjJ18eYw5SrzKjtYV7UAAAaLUlEQVR4nOVd6XriOpA1tsOOdwsDJhDCEiCQtUn63p7p93+rUUmy8SLjBZnu+41+dJoTRVCUVHV0tFiSJKkrq3IX/1RUuYV/tGRVwT/aDMU/eplo5xI6YKhaEG1eQNV+JqpdROGf/wcWthVZaYOFMrNFvmNoNw/tUHTAUDkHVXJRVZb7cbSZh2p8VGGo1O22m71Wr9nutnutloZ/aK1Wr92uhLZarU4FtCsC7WJU46D4q1SIixTqojv5Dtx5l0K7KXTAUIWinRxUyUbxZ+gXQamLLqBaAlUAVbmDT7l68GUMyU9VzJDMGXxR9LY+dLenm/sQxiHuusmxdUZb5dDORdTZzpw02u12OXWzUNJucsThuj0e2u3dOpbO/Il841gq3TIfygPLWKI/kA/vFDr4lDtiC/6ZiQ7wj24e2omjiqIwFB30hnWUA7TPrZtA4VPLJVA6+CQtQIO37ykJs1hMSRhQHD2bFUF3VqNhLAuY1b3SrCh6y2zxZjRwsXa3zhbMwuLhpRUPJHlBJwgD07chsdB4zCdwueGlRNBpAddpt7VehFK1271yaCeNtpJoZ9IgBjYa5lMzp24S7WahXfaRSIrgozTSVE7zJZL/zmYG4lI2zZdK/ko8+YOFN8kWOzO0r2HMqg2+K7JFbT4M6DYaRwxsNOxDjT5MEDjpTL9abUaTulFSVgrtZqDO2GrEirX14nU73BYKoRpGO9noDWIpRsd+I1H8fS2xVOGgt8iHaQOxiU+3yocKJVq9q6laK8VTGKdxeQZiE8cCOY18gdNIWVStCoELzIqhO66B2MR/UKpuaIDCNUvhGcBHtQCV4l2zhmwxMPgGEi8W7ppyfrZQbqu1nUnZMtPChvVV4/wwQCVCk3qUfvUYKev1iqCdIqjzYWcaiFP/ZpBooRVroZtGu5dQjYPWrdPwo0xo4VwVpNMkqNrttLY3/ZKBMM9wLg2+v1Vriyijj9mDkBbgb/VpbTLV2mJEC7/kkDKG8utmo977pUFIi7X3kqQs3W4nhWqF0bpiKaDO3so1EM8WP+UrYymPqt1Ga9uY+fbhoThSiw6+v0Jri8pPo7xBSIv+EGmhAlXL09pKRRqFG2kUbrZw33Pi6Lmf7t1E9IgTuBBtZqKpbHELrW1yMRPGiv2aXK8pTOAyqFpdWluUfqGHYn0UijFDNWptEVI2CMnTgEvVBlyqloGuisTRoOCUkaJqAy6BI+jgEnomcLQFKX/wVdJp0Ky4C8GLbaWCTpMckrfU2txTGRfiePqM/nqtLb6IjdalXIj76S+3Tq0tRZO6V6LT73y6Fi/GyEm2yyVl5dGatLZhSQNxxvguF0svU7W6tTbnpawLwYt/s9amxFFFKzkIqRO3Xo1aW6lIo+RGmkNRvhY3saZIE++aQjrsW6E5Rarohwtdk0/V5Jtobemlzm0lF2IG/laz1kao2qA9SBO4zkU0QeAGTsFZU9qJH06i3S733eJULYpqHFS8TqMcy9GZqIlqAZ2mEFWrVWtz3yu6EFv4240PvqoErrLWlkPVKNqvOAqhDFG+D6tpbR1KvzqMfnVaV6BPFbJ9UMwnrcPoV9guoV+l0E4MvT6WJrQ2r8TMN1XwVFgQVatPa1P71ZIhK/7nX6S1KVzU/X3FMMSx5t2tW2tjHfYuhXIijcKLNGUnhokyj3Z5MZFGcLbYFFfYuMUcZ2WLHKqWTeCqzQ8VbtBRqpLuczEWtWhtISkbEPo1SFA1PtrmodJVcQaK7XTT7QZULRPlELgApZFGlNYmH6+3cJ9YquMK3X9Ma3Ov7aS4mz4gqYZsIWoGjHJXRPOL2eT48JoZMOY4hH51EvSrOHpuoTOtPK04F/vUCelX4t2ipKwwKlRrc3dXD0OIpm4BqvaHtDb3/uphCKWI/F2b1sanagFaZr0pu5hHWbjWVoKqtblULeiwQlyo38fajXdNDqpdRqV417yuwxZbuM8rxmMWVatE4KI+rEzVAh9eM/mNFFO01laGql1EHTGBpmHuGP0a8KjaoCQqUmtzhQQaUBVd7k6FP6+1oZEQA0HL+ANaW/5iRUe5RmWLlSG6lqoltTZMbjikjKGdwqiYUIqL/RZpl0PgzmgnHy0TS/O0NhGcjRTzi5/j/rjWVnppO6vY33xSVpvWdpmqndGqa06pom+bQrU2UXMLdyEmWeBg+jzN65p/ZG6BLuzKL2nhkrM3ujKBy/Mhh6plEDhUdd0wXeaOlEPVymltncFg0AH6NWD0azBgqFYG9cpvMcks0/i7haSsOKoFKI00YrQ2YS5sGHmbSv+M1vYmKlngYNpTb6O1KWW0tvabABmKFXsi16G1dbikrDg6EUVpMKmZcN9NK48K1do+BVq4iWW+6wicuHwo0sJJOh9Wnj1laW1Fqdr5CIJoH9agtSlhhy2e5iM6TcXNXlwLJ6o4nSbeNa/psANx2QJbWLPWVsmHAjO+UB9eSdUiqCPMQJwPq1E1HipOa2shcbwUdikWPRV0Q61NlNSGiy7lZYtrzpDyljCKaG0tcfNDPLeQatHariRwU2Fz/MZoehVVi6HRWHp3pdYmTKcxZl65taf/nNZmLLy6tLYoKStP4L5EkRo9ejDhaq0tjKUsoavxrqly0E4cDY83v4ryob6Pam1hfIwnfx4apnnmTtHr+EiQgQ3z2E1nCwFaW2GqlkBDH4pZxm8ApRG8r02Q1tZDglZIGw0v/W6VCRyNNIL2tQlamjEeSh3gvum+NjEW6vfC97Xxd5uU1NoAFbCtrQGLazXta7tWa8M/xAxEw7uaqkVQofva5C8Rkqnx4OZTtRIETuw+bxFTRP2HK/RU0OU7aMvta7uTCt+FcaFYr+LPkCrcWKpw3alw3clQ9ySAuA2lokRG5hIZmaNEidrXJsno+mBqLApbeHOtDVvo/nu1ieZYEkDV+FpbPyRwfS5Vy0bPNKnUhR/cYk957fLfLUS5BK4vfF+biFNB0ElF3MBT4xnSayf61q7m+9ouEricfW0Uvc5CY1TLGVIxWhtFvesOlehbTQRVo2hTtNZG0etOr9lqFap2icCBhYJv4Hm+5pjsAtV7hvTSHbSFCdzXFU60PmXhZ0gzY2m2O3Nubyl5RVTMhbOYMy5ckZFyXDa9EX8/jbuq7ETrGP98f5vWFpAnVHUBw3hEnPAiTmsjpKzf63MIXJ9LnjLRfsWcaI17F9uthNJII/i+too5EZ5eUoGq5RA4sFD8fW1upbm+ubtqYl9ea1PKa20BgXP3FXRF40Gq5RYlkVrbGXUqZAx7cpl+VUTrejZCeQJu35dZFi1B4Oq6v/SlbD8d1ndf2yWtjf+4gCIEriyzgWckVb+v7dLznorG0ouO46KlLNQx5WZfO99xVd0pS1IeGa3cYS9fOJ/so/zjzQK1trJU7dJ9bQF6Xzza+Cs1vM870a4QrS2LqnHQbhzV4micPDmFtxCZLw63BX675dD6no0A8WdY9EZv1E+38Nffdg3oplA/NUa9jJng7bQ2pYTWFkOTz3nil9dan43QbDKi1aQkpxmnX9VR0q63zTfRXk0DohVroSkGlWKOE6G1STFK5dzncRv75MajsTCt7S7MFvU+WW5xeSxae1R48NWstRUhcNxHcz5cMhEMrErVCmttKnGcmnBGgMpxlBhQBFVDFM2yTbS2jhQlZXLcGdmolkL7WajwbMFZJJ5liRrWFnXTXfPv19rS6JLvRX+LqlK1Ulpbn5CyfoKqRdFuEVTrc8kTQSVuR/VfPE5dfgtV0ZZorY3/uBJF8Q7pvOjvvXTd/4rWFidwZEBtE3Mpwzi6ZanabbS2ygTuKZb69ceJy6tbgaoV0toCotUk9KuZoF8XUC2ONi+g3qpxnmnYi2b5FqqhArW2uJPlFDp9WwdZQ39HvLj739LauGiwO9PopwdqbbMncc9WL0Dg2FVZ+g/3hs9Wl86xNJOqAVqSqvHRVxpt7EGqbpKqFUSJWZdRKd41q3ZY7n6+NIGjh7+4Dz1UuB32L9fa0ii9WJFezsKvW7fWdi1Vy0NbZCDqB3qxB5/sCUBbUVSE1pZF1TgoOdGuv2h5VO0/o7WlUBd8GLsGqmK2qH5fWxmtTcmnakkUzcHCsZZH1cRqbQEpY1ynGaE+fFSrjk5hw5S5Et7uBVSKOa681pZ0Zx6Bg2BqvvKp2n9Va4sPKDhJa09qGXw1aW38Z6tnEzjYYEstFPbI+OJamyylCJwQqhZQKoLCcQXzLY+UqbmolkL7WegV2aIgVYui7pFaWJCqCSFwavIYSf454AQa0q+g9QuoCnv5oxbGqVqIxqhacVTjof0+I2V9qrX1KdGKod0iqFYE7a1MuF8nifLrlkNbGSiNNOWpWqlHA0dQON1mfgqlan+L1sZQ2EBs/7p5trheaytO4Ba2bZ7YxR75Whs/4/OpmnJBa6uZqsVQr/O93jcL1dXg3y4tzWYbxLmm43larK7Whjrt7gDqdOEBJdPp9Nyg1qyktZWlauVRcAZa+6auG40hLg1dt03LtI31w8cqKpXLR9/WoYKhN3Rbx9Ua68W37P4prY0zzLKH5Okn2Ee1Od2GT2+AVK5bo+9zXXeGLTRYpaCKrR9QHVpbQQLHoWp89O7znwNVWI3H7enpnx/vD3OL6Dz2fOwF73Z3PB2GtNL9/ce/jzqR8+wR+eZCrQ3bmtbaEmhAyhiaoGp8VOahg0w0TdUcRI6nmCvkwmfw0HFhE6XH/zjX1dCKzKuPyIUItjeo2oWqam0VqBofLaS1ueThQ+ZnSNXcwTNZxTIXEapG59VH2rnd/pxUOLnRbMFIWdKWwhe5XKZqpWhdAgUO1LBeo2T0m6ximR9nqkbu4LL/h1E19xO+A+MBRbW2ylTtCgKXQesS6AQ+raX2Iijb9OjvWgFVIxaaR6a19T2ytXXuldDarqVqeegFAjcAa/xujMAhuv94KIUosXAXpvkXEp/+jNZWJlsQlFoYQ3EGINK5/R2ioYW0BXKOdZittaWpWimtLcjirsolZTIXVZiknULPFkapGjnjaIxCFCy0NjEfwiGxmNamNbtTTwOuM/W6rea0S1FMgTT6KkGpNG/axPQJc6gE0fKmnS5ux9NWvyZTLUHKtCn+K/wOU/by3C7GcOWuQz9D+G5aj4zDVoCyd/OIE/0VI3AesfArqOR9YAutkxbV2lTXkTbfszXCX/DT0rDMxx1xnPN2mFuWPtuk3Pn5vrZ9yx4tjijiOKSe/h0+Sx30a2abpjXao6jjXPQLp3DLHM72ENXxy03ozqcZfiPLWP5W3RjzfiUW3iVOlro/YKTpv13KsUmksVaBkyF56DMU1drUXx+zoWXra+Q9zU2DplRHdifPFuUU1nd8SH4tfWwBTr6GYa03FG2/fR/Wtm3oC2mztCiRsv6NrDJ5p5GFKRb+FaZVD/fb+4efK5rjpHv8pZomplyYnm296JCksVRJzp5eWUKIZAtrxQYqwi60H7XgBlSwcPr7p23Qv5iRTw4vrBe0x1SWkT5/3AlJmTI9WLr9/ms1vjegw/tjQrQGpkXqGoexzhgiHv7bcwDFX9caR4OvZ5ORSMMHH965x7ltPu6Px/2MpHc4ZRkSOGrhXfJkaY/yNOrvO5otVgjB9zn5124Y90mtbfxAPDds+A/71df3iNrrW7Pt6Z8FMXjI9p9B3F3ajeEb/mMV9Z8havlHQuuOM+q5kek/3r98LCn3mDBah2Y2Dg0utECDvWn7CwRUbWzh9A2O09CJdL4ZOhO4LrTiD+DdYrSOrJePApTeujlaL9ejIbZE33tuSmvbQCV9uUGujPMhGcjmbOO5rittgNiS2ypoBljYuEfQ4Ss7C/KZNLBQRa/01Rp+i0eZTccKpV9bs2E/sRYgI+u7084BqraxoPPQbOEShmlu3TBbkGvQSSyNq2okqesBOgrmFgYhpQ27cUhpbRB/jMeAPLUtGm7p4Nvh2Gy8S4yqYUZBn8JICRyhhFuJLV+Cd+aoTcKLu7fJc3+ohXPypCoadGAVEYI7fD5nbWDeGS6hfpPlt344u4taGJ3ukxOOeoCOSJ9bPMxmy5FPQoduPCW0Nu23DsfjGHmCrwhbyEgZuBSsJ0QL+oe97wVEy2HZlRI4sNBYIEbKvDmxl5CnFf5e1hKjavAFmmPSQu+E/2TohaRMghFib6cBrduQcdhOqmoOsXDOPi/N+F8w+UBec2sQG/0XKaa1OThLGjOXJXQXXq1R8BRjeFr6kG2fOPrk+w8JHLlbN3jcHQKvHYKoTo7o2STStMb4NyPE4gSEc/ukkujxYJAbaQKqRvKAsQyOsSUiTYAqLsyqjDXLLGRuAZ+BMm+0IAPdP0pRrY1aiBiBc6EfzenWSPZYw2GHRF8HllasCClz4eIkuNoptHARRHUHTjxbAxgIHRiUep/Feoh91solLTTow/JCUka2axheTrYgWx7w543MnsxjOFDpKV3cZ6JaW8KH47OFdzKzkPjQgSt29AiBI1+6fnCVqIXMh/BFW4R+ER+aR4XSLzgJrbukhTcf7sKIUDVyvaTdl+MZP7ks2oKeo3/EfeieaR2Z9UMywj7UNEJ9vHsYh8CcCHOD5YU58DKgPlPgecMBJWUkDnaZzgVkb2eT3RWkrkPGoUfIk6ZN/1cnjAvqTiBaHabk3bp40offi7QAFxHq26bG/qTTJF3bmnTJS61Lx6EWvBtF8Quf5PguRafEwl2XfV5qDVwSCnUDra3zQSJNQMr+xyaPyGZU7VuncxUcSwkjNNUIx4bPACOJfMHw/2eXUbUOWQ69C2Npw5BcEktxJzJfaXz8ZRJfRPg4WSUOn42wOcfSqHT6xGYPDJ3HZ08D+WhTH0eyRWAhm88EFtKO/8IsxL/0HsgydWQdDa7T1w9skJhnC9XAQiKXkLPPxnoCgsuX3fD3Lh1QR/IX0es+IKyxTVMY3YQZPyZpw6cgnZuijfjsiQ1ffetGtDZ0oBYyrS30oRL1IQ6g5FPrP2Qp1MQgY8FUjdQ9+xC3i6iFdOggOJRgGP/uTx+mbu6DsKpCYBmiCCmD8ESeFURmwOQWPzoDjiyLktmT/RaiRmBhjOzZJzeitUGMZLG0g1/uSKRhmpj7QmMpmDX9xybnytVQgSMrgiuqn/VNGmmYUkbGYTMgWgcgdbrpW9bzRgrp15xMfM6kDKKk/u7hl8T1gU4TLIsSlJzAtb5RgBKWah8jtI7cM2oRaimx7gbPn4xki0gsVQIL6a4vclmwNQin5RBLjRFik3Uzli2YhSyzeJ8Lw5w/LraT6BEECOw4hYZaGwK/j8PuRizEX2B00dDZW8Bez1pbn1l4pnVkDvwYyRaqQi10OfkQW7iNWEgykX5A4dW6uFeZe5cpZXwLaV1PXZqYSjluTGvbkWA5OC+hmjA+wsx35FgIZ/5ggh9qbT0iavyK0DpgRuyiFInRr+kBeBpi+lkPRh7mW5R+tYiFGlO/yIE7a9ViWlsH2I8TUCqTdGGmlE3JXLvDqJq0tQxbcpJamwezBOMhaAEmd/7YCbU2YqG+RecFUOkLvuJRO7Is2rFZJUbrPDifax1QTGvzsCtIpKFa2289mi2IdiUFWhuZQBhvLNIsIPLTWK8oJNI8IhZpSFaicXdwp84hzT8fVZgnea4aqmokapgH2oK7wVOQBTprbVQ2w+/mMErQf8f1/Wcv0HQg0pCAC7GQZQs4EgiqeExr25Gu/CWxAQX3yuEA6ZGJ8oC8wtTKpUOHLCZYLw5CqL0wDXPlMpGiT66+NI5keRChCaX8pLPIr0TkNEzLXM+e37enVynQ2ojCay832G50MgxrER7rRt64QYv/fFr1XW/ztDDxBL7xFFmxR9MvevTfWH9/qW7/62Vk44D2HWYWoFR4KkE371rzJSZwz6OfOsyzbHP9KsvjtU8a0P31D3qAoEmmurY9W8xsPDt/ZccKTg2qeeDfrAeSu9DpIRJsFA4kd+57cBoBz+F03fZHp4CqPdlEKlg/PI9MHX+vzFuqutTDozaGbVmm79u6bg5fpDOBU44j3zQidSxLN3TrWaV3noda208T/8Y38b9+t+nhedbDI54tG/rPr+b0A37pg47y855wM01znta4HUPHLT7uvSbjaHvfDsrPiTZdWsErawY8bvAePzZj+B9T+pfe5mDa+HPZpmX8bz/gfNp0CwZFC/4+14edM2VMk1Sa+Ykq+Pu930wZu8OVSCxVPz83uLxOJhOcQlquCxNcB/X6kLdePz8nm80b/t1kcNbajh+L58XhCXOUkMC9fT/t9/vTEy4nPMx239/4Jbzar2gsHRvwLWPD2YKfvzo7Y3x4fl5sdzAQQo69+97/+H2/3d7ff3wcDvfb/f44SV2zNMaVfvzGdXClj+3++/vXK8l5qX1t5HbPlPxNJusst8eFbtd1PS5K6ro0W+CX0FnY8NWW1sP47W1zPP1+JpPU6E2lQd24/B22QL90jfu8uSZILbF3u8G+Nh76NfS31AOu69D7FuZSalm01n1twG+656XOgMBloull0Qso2psQjUMUkUmql1wWJaRMLYBqBVHerq/Cy6JlFkudrY/nTlF0gueIS5S1WHqDfW38xdKkhYUXQPFUHm7yiqDIgPnb7fe1XbEsenGxdGwSqS2CYqblT/KWUDl71fho7r62rEhTdQNGEpWPZDubG0Fxml946brhYik3pii8mMJHtQAFC+vf16Z6QK9HfTdEBw1j3s9aFuWgf+m+tnDLk4K2ZMYDFNXBkzPna6QPJ5cWSwWeIY0wIPYj8VII2vTIao+53J52x1/bpW8t29w/bQpHKfPmrGfLHHdes69NfQSCDOTTxPRyuEcX6v5Hz5Ci/aNtEnKM6XrfLbhToeLgq+cMaV5YHUiD8cf7+/347RzobnWGtBpVq0jgHLd2qhZDJSlGWSoSuNr2tQk7Q5phYWECV9++tqpULWIhIzldkVTtut1uhalaEbTdFxBpLk0Ki6FpUlaRwGkc9P8Ah+MN2hmMvpsAAAAASUVORK5CYII=;" vertex="1" parent="1">
          <mxGeometry x="793.9" y="480" width="20" height="20" as="geometry" />
        </mxCell>
        <mxCell id="2PFUA68c3KtspT4KJn6I-65" style="edgeStyle=orthogonalEdgeStyle;rounded=0;orthogonalLoop=1;jettySize=auto;html=1;entryX=0.5;entryY=0;entryDx=0;entryDy=0;" edge="1" parent="1" source="2PFUA68c3KtspT4KJn6I-66" target="2PFUA68c3KtspT4KJn6I-70">
          <mxGeometry relative="1" as="geometry" />
        </mxCell>
        <mxCell id="2PFUA68c3KtspT4KJn6I-66" value="" style="rounded=0;whiteSpace=wrap;html=1;" vertex="1" parent="1">
          <mxGeometry x="873.9" y="170.62" width="160" height="60" as="geometry" />
        </mxCell>
        <mxCell id="2PFUA68c3KtspT4KJn6I-67" value="" style="shape=image;verticalLabelPosition=bottom;labelBackgroundColor=default;verticalAlign=top;aspect=fixed;imageAspect=0;image=data:image/png,iVBORw0KGgoAAAANSUhEUgAAAQsAAAC9CAMAAACTb6i8AAAAwFBMVEX///8Abbjm5eXn5ubl5OTk4+P8/Pzq6en09PTy8fH39/fv7u7s6+v6+vr19fUAW7EAarcAZ7YAZbUAYrQAXLEAWLDZ5Onr9vsAY7UAX7PT3+fw7OllkMeBoc4hc7q1wtvHzuDY3u0seb3m8vnI2uyUtNd4o9Cfuda+y+O3yt2sxeFUjcWIqs/u8/htm8o/f78ATKt3mMpYhcLa5fK90+gAS6u0zOQAUq0ARKmUsNTO1efg4+3N2+bh6vVmlsqEqdOAEZv4AAAaMElEQVR4nO09CXviuq4mSbMSslGG1DN0ulBaKHBu6WNeZwr8/3/1vCbOBlmh593x951TD7YcWZYtWZZsAFCyJFmycEaWZWmA/tqSLCsqyhgoo+ESDZUYOKOgjI3+DlCJnADGJSYHBgy4z4F19FdVWLM6B+6LzWJgkwPjZvsiThFwhFM/jRMGlhI4SVVwAn9p8ZcWhbRQJIVUkCRJId+9kqQrAopKKC1QhnwXl2BQU0GVCUaoxGIlCvmuCEy7g0p03iz5LgKWOXDULOkOB66Kk81wUjjwKZyUDE7AQkk3TXOAM+ivaaC/Bs7wEpOX6IVVikuyzSaqDCoCJ3A6DlyiWT2JEyE7oZwSU05KjiamdnI0pXhAFD4gdDQlBhyNJh8q3CwdTQ6sCMASB7Z4SQ2cpAgnMxcnWcRJzcFJbn2WJ1eezCz/wiuPyBfsu+XHQBxapXgMeLN8DLLAxXyRxEkrh5N5Gic1B6c+SgPbtk2cQX9tA/21cMZCGZ2XmCijiyUGzvCSgQgclSSAjTRwotkscCOcBmmcrFycUsCAUC5asxXpqqwcuZIUQnZRjlyVXrMlpbQcKYcTB87IkfI4gcRE/atf/KVFQtdSKOOgv4wfUYaAogzjR+WK8iPK0Dmi8DmiMH5EJZQfBWDGj8qVzpsl30UZNkeEZm3W7FUCJ6kGTtZRnDQRJxDjhMku8wEhlDHkmHIy6QEuIbXleEBkQyS7KfMBQRnOYTLnMAJspIFJs4TDZM5hHFhiONmNcJIq4xTpF0rMRTFzFnC2FDOnwpnzNGdz+ZUFTsvUQpyOzDax2cqzjQJ/CV2rj6sCezAYqLzKpXWtOjuqlA5+bEeV0sHjHZX88j/XQvqfn/JlcNJRMnDiGT03c7wkv0rJZg3dfA96QvJ/mxfBCTDKZXdUxaNJ+GsgaM6p/XH1Xd5jghbj3zVwSmvzStld3lWEE+Az6qL6RR4tLq1rYYhoxWOgBav/QEl/ly/gORJJytJCElf/o7SQZKWsRKqAk5bFCagoGVpfs3AGbVE0Hf01NZSxWUmflKCMgf7auMREmQHKkBKLlai4ZMCBk81qtFmbN6vzZilwlhaVcFJFnDTerFUZJ6JqJjUzpYy2qDTRFpWUtii/JNfOn3I9nKyGOH0F/UJL00K7jH7xlxYx8CXmSHpH9VXmCF1QNLbUoESXGpR4CVunNLZOoUTXKVbFEoHNNLDFgek6hRJdpzS+dmqFa6fQbARcB6dMh4pwAsWczZizSKZmZHkl+VVBplbY5TWUqfm0OLeude0LybmortVIB8+cUR3Vd6/ydPDl8y1KzzjhzLIGTkkdXKmlg3e4N4szp9LARNt1fAxmkszgDDjl7c1KnJs13R+PvqH0MEIJZ0ayNHogGfbDw5WkjfgPpKQxTuZJnHI5rHv9Ar79wlYJx3GIdcLtazP+A/1F1l7+uRaq/HNxXaszGx/87opS4h5qM0/8wUW0GOfrWo1sfEoZWkgpG5/Mzbek0aydFZfk21kzwFk7q5yihXvfhzM/QQsNZvXOuFm1NZw4sJ1pNgLu/EwgRQsA5klaFNhyCrVFZfQCj+NU80yAc1GH+kU9WhRzNlw4Bzaa/7pzs5ZpYc6Dnn+/6dxHqZOz5ZpzpAinZYiB/G3u2TKfIzXOlq+KfQ7U3PP9vlroc6CKwML5vpGihQFTcqRvpddO6whO+hOFdqbgNE52AU75Pgfd+6Jk5IiWkiNy1n5R7Isi/xmyauG0EKeavihn0LVStIAlaFGME1xFrTmzM5ybteu7lqaFltYvsrTIOTfjOGmCWuZvCnAq4bvGmxV18GIXQEN0ARxkXQDL+g+aKb1T11PrhWGkz82MQpx0kY6uVwmnUx0CfNnt0Nf1jWw9cBqi/3pIjvxieWeI/n+N5Mg/jhPX+fX7CE4LkbDeSuU4VfZ1ze7yQP4sb1W/+HaD0ugBJZzZIak4whn+ww36gZagH3Y4YxfOcgB6iTTciDh1o2sJm6IsLZTTtEh7kGhkiwBkTSMwJvqBNGuhjMFLMEY2r2IIOxuBFjsnQQv3u4hTlhaVbG0dzJHIUkEziC8iwwT/ITZm4IT4IqpCStR0lWWEU1Ir6/WCZd05kuPHlz0TaORldaVoTmSqQH9//QfCN/GHa1eTp7+47YL8leSXfxyhyj8/Ze1/HaHKr4PGdlTw1UvSwvuAMU4FZwJXx84EZDrSpEOt6xdakol/wDr2i35iKnivkOGUoYW7gFn7xZc5N9MSPffStCinaxXS4keKFj1fh2QDb0Go6Q1pIbXtrVuDFtlzswwtGE5wn2gdV35dLe4nKC1WHy/fCnAquRqeDtyweEm5qA87RQs1vU9V1dQ+1bTT+1TVTNJiqrL21fQcQYWuS9p3XW88vJ8t1RqRKDSYBFAuqh71IfooJb37k5j+qLVnV6+TtIhwmmZokUiuH87zcCoVcQD4jGpP1+qMFnj+J0HzUrB4aKZr/Wv4YjfsnUqu81CTL9BMsckkslEG/e3rtmmbfZThJRYrIVVoCaqi91lJBIxLsAXmFC2y64VaYr1gOA1O8gXWRRM4FXcoLiEduoAc0dJyRCovR+SsIMkk50YpjEQ5Lkda1y/6XeoXmvacUMtykvsdVvcH70rXSmLWrt6pSfopvnA+W/RRarofGVLTBE3XfD/CjBNDx0Vz5NfQESrR/chwyE0cv6L9CAO5xvsRhpN8QpJ4B1h7P8Ip155M3XHjBLFSfGP2ix03VzygHxJVRtx+8cDtFyre7Io2D7JPZeO8O84YbgKnS9kv+HfV2AShyfSwD2VIVEQl+4XGT0Gp8QM1C+Fyuz4uVJ1R7viUOqVuiy+W35ImiKTLRcJ+UVjykC5JVHm4nf1Yh8Fxrgi3sClfVIz6yLHlzH/F/hSiccJJeFpUqJIpcXzfO7Fuuv4WNrF3Ehcd7BaEM9g/yBAzUcmJKubqpNjvPvn3D3YK7eIODbJVWjofgYtL08L13ZkpsoLoo5Q9H+nQRwmuL0kL1/WvFzNLa8GuVTfqQzBAwwtRIQhDz/cX+/k3Qzvto3QqEoWcs2Mv4T6PsMCHzyxwo5+MsOjzkBF8LM3CM/rE+XgwuQgpwrs/f9BuC/cvg1Nxh+JIlGSHmBwp9FFSiqM+Ej5KFyEF2uzouTgd8VFSUj5Kavs+ShehRfgpf0UfpfsLrJ3uGn7J2P7TZoX20/BRbu7HJ84RDen/ZKkhOwJVBSTCAqBMFGGBS6KoD1xCoj5w5InMgS+hX7hvgOKk5eNEdjZihzSxQ1EkCu8qWjtbkqmZM5zuU3gH2vf7bUHXSpmqzpHcNTiOUyc+SkVRH4IOLj+fnRbDz2Kc8uMETurguREWeiJTokR/uD6NfavJ+6GextYoWUIzIEG5CnFFaf+LUybZ1mmxzI8rSu7Zy8UVte2j9HZeQRLMz+YPXj0OMXvo22XCp2+5t80U+SiVikPEKoUlxxJYHoBYAmOrYySB5Uh820AFAzkW7Ngw+RiekxbjB3AUJ2IsRRmibKASM7dDegSMftDltuKWJfmcgiSYwbbjltv0UUqdCHWa3AWQyuB0qXMz7fZ8jOEvwZeO7Zess2kYwWNbsf0p6wwOrKCWHx5hodoqD9yIS6jlh4dnoCo8cCMqAefangVTWBYnlVrt8jrEuyoAg4QIkkSLIBdBhfflSEn59XIeSeLvoVQc2y9lZGrp2P42fZSss9g8vbUYhtmFrtXsfi1GyHPsVZGSpZe6X+vULcp5Pko4pp4cG5ksI54smXqixEwfPpkJYPMMC0a4NDNfPoZTukNGbofoIVq8Z290wzkl+yw43ZmGpPjUjuBkpZmkdGx/Bz5KHVPCHX/Cc9+jVCWOPvHdbjcl7v0OVsfpYveDf+9wt+rdqyR4srv7wUntq2ZnAlHghrLsjhb+ui9XuO/3quSZQHex/ep7V7MkfDIKOPvLnZtFE/XQjbHP2YIMTl/q/ZHc2P63DqaJ5+7OcW98YciInf/+iJ33hMhALGn/aDXcD4x6OIkhI8XA1NvdbE+O8HhpuW1ieN67WRGnEjHcKkjuMDqK7VfvW5wm7vBJ/de9PyKMgXrf2i4txBegVMapBl+Isf213yvKCT6z9VU7otUPtiZfDKyKOFXpkNVBbD9fs2U4d5ovGr4/K49TYdzyF3h/ZDdpNk/coDfTS83yr6trxd+dhvVZwwvfni2Yje0/Ay3a2o8kdf/lPqwlUNyxe9gN5AbvjxTjdHQ/kpUjFXygC+QI4OJpt6pMDS8Mvm8NKNfGqeX3zWrbL7Kzbfk6ORHmIDKEN5z8eLQ7wOlC8WZJWqjQeFlNQv8UPVwvCLzF7MYUm73Y+yMt2DvzpbMMwWa+d53A89wMSVzX88bDcPL98P5gQk2qHvWRY+88jVO+vZNoI8Q4zDLkDiL0lypRYolBNBihSqLEtNLAQrO6Odg9Tv+zXuPYuiAYj8c+DrW77q3Xr9PnDQ7I12Pg9nDKAGdKqB2cVAGJ1aVEDHfx+cjpu48BhNbo27e7u98/f//EAVTA5LdWNHplsq3zkdxZ3uGd2OQBKZM4jYB2VryOdK1G56nFZ5dZr1klz2u2ZtTH0fNUqcp5at7hs33qnN0uPNO284ATzeYCZ258bBOnXOAcnI7H9l+lbrhs/UVHqi1mbgJVKty6KeBkNcSp+3sa/z0vK/6lRQzccmx/kxcdm74y2diPTxXdIZl/J40qVwFxh5SpOyQJPFdBRV9KCqxRX8oYWOfArNkUMGiAk1wSp34WJ1DM2Yw5q7w/ct7b3lv3+82nRXe6VvuzvOtzs2pxAmV18DKRKFV2VG3HCeQGVVR6uwNta+xMjEatZk3TNmsDF5aUBm4eVwTee+HbSC4azeMclthRma9h+NQKh10otl97HPZ6bk9rQb94DXu94AlcVNdqFIeofWCLZvh47Lu82ROrPzWNgmoeqrmxkTXjEMVXyaKgTRwKD/JfJQPRq2Q09gKS2wL9277MSwgwf1jM1vJjQSlw/CoZLiEO5ROg5uMUAfMQ02KcCjokvpSWG59KZ1SDMwFKi+eCOPoKXvYDcqfWRJOaa7CXiu2PaNFwlksmo8UXseX8pUWz+y/OP0dO41RzjvQzL88K14hkXsPN3ovC106YD1x0B0nOC73R2pnzGm41nNjaWQRceC9KY5nKaKEdsVLyZk9YKRktupOppyynTXUtmKFFbV1LpMVlz81q3q8V0SKp79bRwWNaNMSprg6ejrAode+aTp5z1HGVwdQntNBTwLhK4aVt9AdSReclOqBrp5n5MjvtEoB1/Hpk3H78ZXZ2prMa+G/5i+QAo1z5/bEM4bfd+/vvGw2SkliORKPJq4z69E73nB2VBo1vd9v3u9EAstHMyBF+Pbo2+6MmcJKhMdrg5jUoJ8zxtnb7Se8mlGF/hJrfjQwolT6ZBfmzvFi/gJ9P99fD8XgcOuvZEuToF0B7WU2uQ1TF8RbzZd4st+XpwnGC8Thwevt3OsuL9IvXa//6NQH8++A6qPlgGC5m0bX5mBaPjj98wz8s57T5cOgtfgLQTNcSFvAkLTaLMLot0fWc1TJLi7kbe1y44/CQ/a79MY6dENxw/U5oMcijxYa4R14/xsDP97F/i+sFBxBLJLzgBHOwPISJ5u1K93fKqXdPyHMqeXzxNEx6DXjhfMZpQXW85Vsq0Mp3N1EEDG323U26tbnDhYpfg0zTAk2AKf2et2I4AXuR8gLzho/ky6jDd/jL3tOjl/QFCqYcOJcveFcRLSqcCQy0HN+84J50+JbGduifOXdsDrdA2FEZBydTw3V3QJAjXFt8vGdBB96HRnH6dLM+T2QGIQ1W/klrp2u4a9h+bP8ycvR23ZRXCdcvtlE/xSrOk8BhhyCniuuCrH6x4kzoBSOK00aYfXHz5NG3vqz9ToZr8ObdBWz93Gw5YV/3vfvVajUZCgPAaMHvJXZDd71aLVzeGcQZ/LuvIa/S269WbwHD39mkaAFiVh+uljLB6YHf9Tv2J6vVvscXDmeaoYU3nKDm117geeFn+++P7OmXvd4MiUpogt0h9u1lc6RHfwjWjxqqooLNnlW53uj0HPeTcoUbrO5wK2C5pV2+3olzRNK0yIva6z1ynBhf+r3tEmLgzRNbPNDaiuZITAvXf9qppMr7jx+fWtl74+nriRZ9V5G+J2DzS/ZJiUVfTzSeKXLjFXb4tm3dsvTRgg+d/6zafZNTa24SGMOyBp+UmdyJSpo16D+9yc3AsE38QcP8GLquvxj0bbp2GlZfRbLI4+yz6hsUJ2NK++rMBgbFCTfPPqmbtnrHZ5+//jOwUIdMG3svmfkdSnc1iu0v9AeKIvU02otwC+XonQkZcGIQmXpDWTj8hDEwtClcgNdPVSNKas/bG3Ls3W8+Lu4PfUGmysvvUa8mj1BmOI3YDEFiKdL/ZJNi4GPRymnhPw3kLt8fYU8i+x8wuaNi1ydhWrBnD5xPLbHy2FT2YN5X+wFlkugt5DxbDtx6EVO8xjgBYmTuhe9mcpYzxotp4a47fn/EIBf6upP0+yNLP6KFRMf8AFJjsCUoIjUAAErQYGNmoj7QFGZ88fCdrxT+BMeO8B0VNZN7T+l9wY5UD94jWvjLY+/SHPNdy42wyL5XtGRftFMhI2y0/GfbpkHL4dJMBW7QkcNviKjk5mx3D3KjPlQqj7nK6A4/VDvGyd5QOi5VspMi6xHeUNmANIpoZFNaoFzd94rKyRH5N+VuK+2jJN+QHiA5Qo067h6md3naFq95RMoTQTB+iXdUiYjGxCUz7ttDAif6poK7+Hx5xOkFJZahr1agdYbKESRC675jVU6/0LYEkxXM2nImlBYavUhp/KJldjY3ZPK4BnuaJNCO2XLitEvgBOnTwm4QhDgFQZRhunCf6xdWxz5KkEwFf65laUFIgGlBVhQ0KhlaUBKMR/IfzFzuvVGOFuFOzdKiMA1vKC3c77BjHyW4IrSYyRkfJY1cPufdypwWUsairjFaSH9COlkKTng4LVw6vu7aVmKcTtEifKRzBPFus/dHTnv9HQgttjmeiESSOkhtJLRwHnJWHjo1+Gvii3zvSGbLQRX3G6ZArUWcDif4Ysn3qUCMN6viHQk4F52wX5CVCz9KJfooke4QEgw5LcK77GxTPUaLiCh5PkpMv+iFL0i5pizivQk4Mb5w8xN+h1qgRS1foQJaZHQt8qIQvlY2f5ZfL9nAea/Z75K7D8iVtJQWu2PnZr0l3uXNqY45FnQtKrzX+0Ve+s8LyKVFGz5KmTnyhyoPu0xMJn0+CGuV7BqlLD9SBWAF2GPJ3kduJErS3jmnehNSPDlOVH1B+qVNNl0ARx1AaLOMbIPcOVIlEqXsO9x0j+ju7ZTCYtLfV2gvtCToj7eDpJJj0GeB/blhsQe4Az1ScsRAX2YHt0mJuaKUHb6ztx4NnTWvFz2lbbC1Uy/xNngcqyu+w13yfIQ9yug80lnORxMeCMrBT+yjRC+hmywTHKb06ZbF05Bko9orez07DtxjTxSJ5yOSuveZfGA4sUfqh/2k5ixp0crD5Ujt99nL2nKWbMu+EWc5pHsN997CwLdUB14kVh5Id9reD4hXHnqxZfDK1zV6ufjtbJSkBcGJ7YHDDcXJ2jj0W6Y4y9XRjB4DcFsO1gc7j+1nMg2PU7SjmoWMkWUCTB9k8dZLYUe1ZxumkYzHYMeWgYPAF7ve2L/egsy5mdljpo8lw4nug937pcAXB8e/XhXyhVLMFyoQLRK0Q+moD5scSxNrB46wsKMIC5Xb6w5LGwdvqWCzpj3zvpNoDFvdUNK43hQfx1kIo2dmawnnJmkWfFA9ary+I1VsoNLwZk+1GS1UGg8ysNUl/SAiBj0q37Hmg6lKgFXwuB6T4VExthajhSFEoiQ61E92CJtvhK4adkqOHImwkEdML/SGi9nz8/xjwqyZ7kRjeg2csu227z/Nn59nh96YmTcWkK3ZBuN8N3QPqMp0f03/7dxImXMz/kVy0TEChlvWvOfsEQa303tq4vMOkJyb5cuRxrpW3rkZnHPDguv58QNb7vBG5noNPERWSlQlMt56CytaeUY9biQVG+n5VvZ8RDLYrUz+igLDWaSmi8DBrSaej4Bm+kW5M0R7m3N1qzu50WIdLzJzi8l/M+LvysvMAQZm85d+7hkiI8bwmW+Xc1698yaG3CItyvrxbbx0P8brvpzwB5qnTtYQ+x8s8dQJ6V7pKww97x0qyoCuF1oi6mNKZdMPDrz10xgMV/wwS5wjpd8fEWP7seWRLLvcBGnIMeVk0gNcQmrL/f7KEXBxfW9m2QyYOo3JcLQWT/nc8eQRqmKzfRm+9MQYd3e4/0PEIhZDbo+yJ8fJeMId9GeQ4QT/7JMYjF8gE4saMSt5SKZGHWI4yfxlRZk8y2jzDgk44QPLWL/I+ijl+cDA3cF10EqAUhCuZ5YWOdBFp6D2Zu+HpIYXBotbPesPpJnb9ZhVGborfPkiLnm/Rv98B8moD+Mp9MY9LT4Rhpsnd8iaD9dzK9a14H7o+Z7GfZRK6RdN3x/ZzV5fXz+m7w+kSt537c+P1+nrdPq4JP5geafUy8cP3MhsQ/mOfPnz9fUOgPTucj6dLgVexd3ZEAw+UPOmuMvTt9OPpVyAU00fpVNx9FArjLzmwBrbNx3xapEh5e448ppc5Q9KRYMjYIJK7n0DBe+PnPS04eET9aM+CquUbLYRcNVmjwEDRrlGdx8rJUdT5cDl4orqe8FVjCu6VGz/l483qxOHqKS/e/aojzyv2SY4ATHCQuVRHzj2QosiLIj/MA/P0MSoD1UIGVHFqA8t0Wx+JAoHNo4D86gPkwNXxSnToSKcWntbodu45XI4NYlb/hvb/ze2v/y5Wfdz5OhLrOByc6SVderE8tdo7ezXxKnG2pnmbKUDmVrylcnCqI9zydQ0Lf7rda3/dzq4VEsH/y/bmx1rttaePbE/bnJTw1X+jiqPw86A0/8BOAQD5v7owZkAAAAASUVORK5CYII=;" vertex="1" parent="1">
          <mxGeometry x="873.9" y="209.38" width="30" height="21.24" as="geometry" />
        </mxCell>
        <mxCell id="2PFUA68c3KtspT4KJn6I-68" value="Evidently" style="text;html=1;strokeColor=none;fillColor=none;align=center;verticalAlign=middle;whiteSpace=wrap;rounded=0;" vertex="1" parent="1">
          <mxGeometry x="923.9" y="185.62" width="60" height="30" as="geometry" />
        </mxCell>
        <mxCell id="2PFUA68c3KtspT4KJn6I-70" value="" style="rounded=0;whiteSpace=wrap;html=1;" vertex="1" parent="1">
          <mxGeometry x="873.9" y="310.62" width="160" height="60" as="geometry" />
        </mxCell>
        <mxCell id="2PFUA68c3KtspT4KJn6I-71" value="" style="shape=image;verticalLabelPosition=bottom;labelBackgroundColor=default;verticalAlign=top;aspect=fixed;imageAspect=0;image=data:image/png,iVBORw0KGgoAAAANSUhEUgAAAQsAAAC9CAMAAACTb6i8AAAAwFBMVEX///8Abbjm5eXn5ubl5OTk4+P8/Pzq6en09PTy8fH39/fv7u7s6+v6+vr19fUAW7EAarcAZ7YAZbUAYrQAXLEAWLDZ5Onr9vsAY7UAX7PT3+fw7OllkMeBoc4hc7q1wtvHzuDY3u0seb3m8vnI2uyUtNd4o9Cfuda+y+O3yt2sxeFUjcWIqs/u8/htm8o/f78ATKt3mMpYhcLa5fK90+gAS6u0zOQAUq0ARKmUsNTO1efg4+3N2+bh6vVmlsqEqdOAEZv4AAAaMElEQVR4nO09CXviuq4mSbMSslGG1DN0ulBaKHBu6WNeZwr8/3/1vCbOBlmh593x951TD7YcWZYtWZZsAFCyJFmycEaWZWmA/tqSLCsqyhgoo+ESDZUYOKOgjI3+DlCJnADGJSYHBgy4z4F19FdVWLM6B+6LzWJgkwPjZvsiThFwhFM/jRMGlhI4SVVwAn9p8ZcWhbRQJIVUkCRJId+9kqQrAopKKC1QhnwXl2BQU0GVCUaoxGIlCvmuCEy7g0p03iz5LgKWOXDULOkOB66Kk81wUjjwKZyUDE7AQkk3TXOAM+ivaaC/Bs7wEpOX6IVVikuyzSaqDCoCJ3A6DlyiWT2JEyE7oZwSU05KjiamdnI0pXhAFD4gdDQlBhyNJh8q3CwdTQ6sCMASB7Z4SQ2cpAgnMxcnWcRJzcFJbn2WJ1eezCz/wiuPyBfsu+XHQBxapXgMeLN8DLLAxXyRxEkrh5N5Gic1B6c+SgPbtk2cQX9tA/21cMZCGZ2XmCijiyUGzvCSgQgclSSAjTRwotkscCOcBmmcrFycUsCAUC5asxXpqqwcuZIUQnZRjlyVXrMlpbQcKYcTB87IkfI4gcRE/atf/KVFQtdSKOOgv4wfUYaAogzjR+WK8iPK0Dmi8DmiMH5EJZQfBWDGj8qVzpsl30UZNkeEZm3W7FUCJ6kGTtZRnDQRJxDjhMku8wEhlDHkmHIy6QEuIbXleEBkQyS7KfMBQRnOYTLnMAJspIFJs4TDZM5hHFhiONmNcJIq4xTpF0rMRTFzFnC2FDOnwpnzNGdz+ZUFTsvUQpyOzDax2cqzjQJ/CV2rj6sCezAYqLzKpXWtOjuqlA5+bEeV0sHjHZX88j/XQvqfn/JlcNJRMnDiGT03c7wkv0rJZg3dfA96QvJ/mxfBCTDKZXdUxaNJ+GsgaM6p/XH1Xd5jghbj3zVwSmvzStld3lWEE+Az6qL6RR4tLq1rYYhoxWOgBav/QEl/ly/gORJJytJCElf/o7SQZKWsRKqAk5bFCagoGVpfs3AGbVE0Hf01NZSxWUmflKCMgf7auMREmQHKkBKLlai4ZMCBk81qtFmbN6vzZilwlhaVcFJFnDTerFUZJ6JqJjUzpYy2qDTRFpWUtii/JNfOn3I9nKyGOH0F/UJL00K7jH7xlxYx8CXmSHpH9VXmCF1QNLbUoESXGpR4CVunNLZOoUTXKVbFEoHNNLDFgek6hRJdpzS+dmqFa6fQbARcB6dMh4pwAsWczZizSKZmZHkl+VVBplbY5TWUqfm0OLeude0LybmortVIB8+cUR3Vd6/ydPDl8y1KzzjhzLIGTkkdXKmlg3e4N4szp9LARNt1fAxmkszgDDjl7c1KnJs13R+PvqH0MEIJZ0ayNHogGfbDw5WkjfgPpKQxTuZJnHI5rHv9Ar79wlYJx3GIdcLtazP+A/1F1l7+uRaq/HNxXaszGx/87opS4h5qM0/8wUW0GOfrWo1sfEoZWkgpG5/Mzbek0aydFZfk21kzwFk7q5yihXvfhzM/QQsNZvXOuFm1NZw4sJ1pNgLu/EwgRQsA5klaFNhyCrVFZfQCj+NU80yAc1GH+kU9WhRzNlw4Bzaa/7pzs5ZpYc6Dnn+/6dxHqZOz5ZpzpAinZYiB/G3u2TKfIzXOlq+KfQ7U3PP9vlroc6CKwML5vpGihQFTcqRvpddO6whO+hOFdqbgNE52AU75Pgfd+6Jk5IiWkiNy1n5R7Isi/xmyauG0EKeavihn0LVStIAlaFGME1xFrTmzM5ybteu7lqaFltYvsrTIOTfjOGmCWuZvCnAq4bvGmxV18GIXQEN0ARxkXQDL+g+aKb1T11PrhWGkz82MQpx0kY6uVwmnUx0CfNnt0Nf1jWw9cBqi/3pIjvxieWeI/n+N5Mg/jhPX+fX7CE4LkbDeSuU4VfZ1ze7yQP4sb1W/+HaD0ugBJZzZIak4whn+ww36gZagH3Y4YxfOcgB6iTTciDh1o2sJm6IsLZTTtEh7kGhkiwBkTSMwJvqBNGuhjMFLMEY2r2IIOxuBFjsnQQv3u4hTlhaVbG0dzJHIUkEziC8iwwT/ITZm4IT4IqpCStR0lWWEU1Ir6/WCZd05kuPHlz0TaORldaVoTmSqQH9//QfCN/GHa1eTp7+47YL8leSXfxyhyj8/Ze1/HaHKr4PGdlTw1UvSwvuAMU4FZwJXx84EZDrSpEOt6xdakol/wDr2i35iKnivkOGUoYW7gFn7xZc5N9MSPffStCinaxXS4keKFj1fh2QDb0Go6Q1pIbXtrVuDFtlzswwtGE5wn2gdV35dLe4nKC1WHy/fCnAquRqeDtyweEm5qA87RQs1vU9V1dQ+1bTT+1TVTNJiqrL21fQcQYWuS9p3XW88vJ8t1RqRKDSYBFAuqh71IfooJb37k5j+qLVnV6+TtIhwmmZokUiuH87zcCoVcQD4jGpP1+qMFnj+J0HzUrB4aKZr/Wv4YjfsnUqu81CTL9BMsckkslEG/e3rtmmbfZThJRYrIVVoCaqi91lJBIxLsAXmFC2y64VaYr1gOA1O8gXWRRM4FXcoLiEduoAc0dJyRCovR+SsIMkk50YpjEQ5Lkda1y/6XeoXmvacUMtykvsdVvcH70rXSmLWrt6pSfopvnA+W/RRarofGVLTBE3XfD/CjBNDx0Vz5NfQESrR/chwyE0cv6L9CAO5xvsRhpN8QpJ4B1h7P8Ip155M3XHjBLFSfGP2ix03VzygHxJVRtx+8cDtFyre7Io2D7JPZeO8O84YbgKnS9kv+HfV2AShyfSwD2VIVEQl+4XGT0Gp8QM1C+Fyuz4uVJ1R7viUOqVuiy+W35ImiKTLRcJ+UVjykC5JVHm4nf1Yh8Fxrgi3sClfVIz6yLHlzH/F/hSiccJJeFpUqJIpcXzfO7Fuuv4WNrF3Ehcd7BaEM9g/yBAzUcmJKubqpNjvPvn3D3YK7eIODbJVWjofgYtL08L13ZkpsoLoo5Q9H+nQRwmuL0kL1/WvFzNLa8GuVTfqQzBAwwtRIQhDz/cX+/k3Qzvto3QqEoWcs2Mv4T6PsMCHzyxwo5+MsOjzkBF8LM3CM/rE+XgwuQgpwrs/f9BuC/cvg1Nxh+JIlGSHmBwp9FFSiqM+Ej5KFyEF2uzouTgd8VFSUj5Kavs+ShehRfgpf0UfpfsLrJ3uGn7J2P7TZoX20/BRbu7HJ84RDen/ZKkhOwJVBSTCAqBMFGGBS6KoD1xCoj5w5InMgS+hX7hvgOKk5eNEdjZihzSxQ1EkCu8qWjtbkqmZM5zuU3gH2vf7bUHXSpmqzpHcNTiOUyc+SkVRH4IOLj+fnRbDz2Kc8uMETurguREWeiJTokR/uD6NfavJ+6GextYoWUIzIEG5CnFFaf+LUybZ1mmxzI8rSu7Zy8UVte2j9HZeQRLMz+YPXj0OMXvo22XCp2+5t80U+SiVikPEKoUlxxJYHoBYAmOrYySB5Uh820AFAzkW7Ngw+RiekxbjB3AUJ2IsRRmibKASM7dDegSMftDltuKWJfmcgiSYwbbjltv0UUqdCHWa3AWQyuB0qXMz7fZ8jOEvwZeO7Zess2kYwWNbsf0p6wwOrKCWHx5hodoqD9yIS6jlh4dnoCo8cCMqAefangVTWBYnlVrt8jrEuyoAg4QIkkSLIBdBhfflSEn59XIeSeLvoVQc2y9lZGrp2P42fZSss9g8vbUYhtmFrtXsfi1GyHPsVZGSpZe6X+vULcp5Pko4pp4cG5ksI54smXqixEwfPpkJYPMMC0a4NDNfPoZTukNGbofoIVq8Z290wzkl+yw43ZmGpPjUjuBkpZmkdGx/Bz5KHVPCHX/Cc9+jVCWOPvHdbjcl7v0OVsfpYveDf+9wt+rdqyR4srv7wUntq2ZnAlHghrLsjhb+ui9XuO/3quSZQHex/ep7V7MkfDIKOPvLnZtFE/XQjbHP2YIMTl/q/ZHc2P63DqaJ5+7OcW98YciInf/+iJ33hMhALGn/aDXcD4x6OIkhI8XA1NvdbE+O8HhpuW1ieN67WRGnEjHcKkjuMDqK7VfvW5wm7vBJ/de9PyKMgXrf2i4txBegVMapBl+Isf213yvKCT6z9VU7otUPtiZfDKyKOFXpkNVBbD9fs2U4d5ovGr4/K49TYdzyF3h/ZDdpNk/coDfTS83yr6trxd+dhvVZwwvfni2Yje0/Ay3a2o8kdf/lPqwlUNyxe9gN5AbvjxTjdHQ/kpUjFXygC+QI4OJpt6pMDS8Mvm8NKNfGqeX3zWrbL7Kzbfk6ORHmIDKEN5z8eLQ7wOlC8WZJWqjQeFlNQv8UPVwvCLzF7MYUm73Y+yMt2DvzpbMMwWa+d53A89wMSVzX88bDcPL98P5gQk2qHvWRY+88jVO+vZNoI8Q4zDLkDiL0lypRYolBNBihSqLEtNLAQrO6Odg9Tv+zXuPYuiAYj8c+DrW77q3Xr9PnDQ7I12Pg9nDKAGdKqB2cVAGJ1aVEDHfx+cjpu48BhNbo27e7u98/f//EAVTA5LdWNHplsq3zkdxZ3uGd2OQBKZM4jYB2VryOdK1G56nFZ5dZr1klz2u2ZtTH0fNUqcp5at7hs33qnN0uPNO284ATzeYCZ258bBOnXOAcnI7H9l+lbrhs/UVHqi1mbgJVKty6KeBkNcSp+3sa/z0vK/6lRQzccmx/kxcdm74y2diPTxXdIZl/J40qVwFxh5SpOyQJPFdBRV9KCqxRX8oYWOfArNkUMGiAk1wSp34WJ1DM2Yw5q7w/ct7b3lv3+82nRXe6VvuzvOtzs2pxAmV18DKRKFV2VG3HCeQGVVR6uwNta+xMjEatZk3TNmsDF5aUBm4eVwTee+HbSC4azeMclthRma9h+NQKh10otl97HPZ6bk9rQb94DXu94AlcVNdqFIeofWCLZvh47Lu82ROrPzWNgmoeqrmxkTXjEMVXyaKgTRwKD/JfJQPRq2Q09gKS2wL9277MSwgwf1jM1vJjQSlw/CoZLiEO5ROg5uMUAfMQ02KcCjokvpSWG59KZ1SDMwFKi+eCOPoKXvYDcqfWRJOaa7CXiu2PaNFwlksmo8UXseX8pUWz+y/OP0dO41RzjvQzL88K14hkXsPN3ovC106YD1x0B0nOC73R2pnzGm41nNjaWQRceC9KY5nKaKEdsVLyZk9YKRktupOppyynTXUtmKFFbV1LpMVlz81q3q8V0SKp79bRwWNaNMSprg6ejrAode+aTp5z1HGVwdQntNBTwLhK4aVt9AdSReclOqBrp5n5MjvtEoB1/Hpk3H78ZXZ2prMa+G/5i+QAo1z5/bEM4bfd+/vvGw2SkliORKPJq4z69E73nB2VBo1vd9v3u9EAstHMyBF+Pbo2+6MmcJKhMdrg5jUoJ8zxtnb7Se8mlGF/hJrfjQwolT6ZBfmzvFi/gJ9P99fD8XgcOuvZEuToF0B7WU2uQ1TF8RbzZd4st+XpwnGC8Thwevt3OsuL9IvXa//6NQH8++A6qPlgGC5m0bX5mBaPjj98wz8s57T5cOgtfgLQTNcSFvAkLTaLMLot0fWc1TJLi7kbe1y44/CQ/a79MY6dENxw/U5oMcijxYa4R14/xsDP97F/i+sFBxBLJLzgBHOwPISJ5u1K93fKqXdPyHMqeXzxNEx6DXjhfMZpQXW85Vsq0Mp3N1EEDG323U26tbnDhYpfg0zTAk2AKf2et2I4AXuR8gLzho/ky6jDd/jL3tOjl/QFCqYcOJcveFcRLSqcCQy0HN+84J50+JbGduifOXdsDrdA2FEZBydTw3V3QJAjXFt8vGdBB96HRnH6dLM+T2QGIQ1W/klrp2u4a9h+bP8ycvR23ZRXCdcvtlE/xSrOk8BhhyCniuuCrH6x4kzoBSOK00aYfXHz5NG3vqz9ToZr8ObdBWz93Gw5YV/3vfvVajUZCgPAaMHvJXZDd71aLVzeGcQZ/LuvIa/S269WbwHD39mkaAFiVh+uljLB6YHf9Tv2J6vVvscXDmeaoYU3nKDm117geeFn+++P7OmXvd4MiUpogt0h9u1lc6RHfwjWjxqqooLNnlW53uj0HPeTcoUbrO5wK2C5pV2+3olzRNK0yIva6z1ynBhf+r3tEmLgzRNbPNDaiuZITAvXf9qppMr7jx+fWtl74+nriRZ9V5G+J2DzS/ZJiUVfTzSeKXLjFXb4tm3dsvTRgg+d/6zafZNTa24SGMOyBp+UmdyJSpo16D+9yc3AsE38QcP8GLquvxj0bbp2GlZfRbLI4+yz6hsUJ2NK++rMBgbFCTfPPqmbtnrHZ5+//jOwUIdMG3svmfkdSnc1iu0v9AeKIvU02otwC+XonQkZcGIQmXpDWTj8hDEwtClcgNdPVSNKas/bG3Ls3W8+Lu4PfUGmysvvUa8mj1BmOI3YDEFiKdL/ZJNi4GPRymnhPw3kLt8fYU8i+x8wuaNi1ydhWrBnD5xPLbHy2FT2YN5X+wFlkugt5DxbDtx6EVO8xjgBYmTuhe9mcpYzxotp4a47fn/EIBf6upP0+yNLP6KFRMf8AFJjsCUoIjUAAErQYGNmoj7QFGZ88fCdrxT+BMeO8B0VNZN7T+l9wY5UD94jWvjLY+/SHPNdy42wyL5XtGRftFMhI2y0/GfbpkHL4dJMBW7QkcNviKjk5mx3D3KjPlQqj7nK6A4/VDvGyd5QOi5VspMi6xHeUNmANIpoZFNaoFzd94rKyRH5N+VuK+2jJN+QHiA5Qo067h6md3naFq95RMoTQTB+iXdUiYjGxCUz7ttDAif6poK7+Hx5xOkFJZahr1agdYbKESRC675jVU6/0LYEkxXM2nImlBYavUhp/KJldjY3ZPK4BnuaJNCO2XLitEvgBOnTwm4QhDgFQZRhunCf6xdWxz5KkEwFf65laUFIgGlBVhQ0KhlaUBKMR/IfzFzuvVGOFuFOzdKiMA1vKC3c77BjHyW4IrSYyRkfJY1cPufdypwWUsairjFaSH9COlkKTng4LVw6vu7aVmKcTtEifKRzBPFus/dHTnv9HQgttjmeiESSOkhtJLRwHnJWHjo1+Gvii3zvSGbLQRX3G6ZArUWcDif4Ysn3qUCMN6viHQk4F52wX5CVCz9KJfooke4QEgw5LcK77GxTPUaLiCh5PkpMv+iFL0i5pizivQk4Mb5w8xN+h1qgRS1foQJaZHQt8qIQvlY2f5ZfL9nAea/Z75K7D8iVtJQWu2PnZr0l3uXNqY45FnQtKrzX+0Ve+s8LyKVFGz5KmTnyhyoPu0xMJn0+CGuV7BqlLD9SBWAF2GPJ3kduJErS3jmnehNSPDlOVH1B+qVNNl0ARx1AaLOMbIPcOVIlEqXsO9x0j+ju7ZTCYtLfV2gvtCToj7eDpJJj0GeB/blhsQe4Az1ScsRAX2YHt0mJuaKUHb6ztx4NnTWvFz2lbbC1Uy/xNngcqyu+w13yfIQ9yug80lnORxMeCMrBT+yjRC+hmywTHKb06ZbF05Bko9orez07DtxjTxSJ5yOSuveZfGA4sUfqh/2k5ixp0crD5Ujt99nL2nKWbMu+EWc5pHsN997CwLdUB14kVh5Id9reD4hXHnqxZfDK1zV6ufjtbJSkBcGJ7YHDDcXJ2jj0W6Y4y9XRjB4DcFsO1gc7j+1nMg2PU7SjmoWMkWUCTB9k8dZLYUe1ZxumkYzHYMeWgYPAF7ve2L/egsy5mdljpo8lw4nug937pcAXB8e/XhXyhVLMFyoQLRK0Q+moD5scSxNrB46wsKMIC5Xb6w5LGwdvqWCzpj3zvpNoDFvdUNK43hQfx1kIo2dmawnnJmkWfFA9ary+I1VsoNLwZk+1GS1UGg8ysNUl/SAiBj0q37Hmg6lKgFXwuB6T4VExthajhSFEoiQ61E92CJtvhK4adkqOHImwkEdML/SGi9nz8/xjwqyZ7kRjeg2csu227z/Nn59nh96YmTcWkK3ZBuN8N3QPqMp0f03/7dxImXMz/kVy0TEChlvWvOfsEQa303tq4vMOkJyb5cuRxrpW3rkZnHPDguv58QNb7vBG5noNPERWSlQlMt56CytaeUY9biQVG+n5VvZ8RDLYrUz+igLDWaSmi8DBrSaej4Bm+kW5M0R7m3N1qzu50WIdLzJzi8l/M+LvysvMAQZm85d+7hkiI8bwmW+Xc1698yaG3CItyvrxbbx0P8brvpzwB5qnTtYQ+x8s8dQJ6V7pKww97x0qyoCuF1oi6mNKZdMPDrz10xgMV/wwS5wjpd8fEWP7seWRLLvcBGnIMeVk0gNcQmrL/f7KEXBxfW9m2QyYOo3JcLQWT/nc8eQRqmKzfRm+9MQYd3e4/0PEIhZDbo+yJ8fJeMId9GeQ4QT/7JMYjF8gE4saMSt5SKZGHWI4yfxlRZk8y2jzDgk44QPLWL/I+ijl+cDA3cF10EqAUhCuZ5YWOdBFp6D2Zu+HpIYXBotbPesPpJnb9ZhVGborfPkiLnm/Rv98B8moD+Mp9MY9LT4Rhpsnd8iaD9dzK9a14H7o+Z7GfZRK6RdN3x/ZzV5fXz+m7w+kSt537c+P1+nrdPq4JP5geafUy8cP3MhsQ/mOfPnz9fUOgPTucj6dLgVexd3ZEAw+UPOmuMvTt9OPpVyAU00fpVNx9FArjLzmwBrbNx3xapEh5e448ppc5Q9KRYMjYIJK7n0DBe+PnPS04eET9aM+CquUbLYRcNVmjwEDRrlGdx8rJUdT5cDl4orqe8FVjCu6VGz/l483qxOHqKS/e/aojzyv2SY4ATHCQuVRHzj2QosiLIj/MA/P0MSoD1UIGVHFqA8t0Wx+JAoHNo4D86gPkwNXxSnToSKcWntbodu45XI4NYlb/hvb/ze2v/y5Wfdz5OhLrOByc6SVderE8tdo7ezXxKnG2pnmbKUDmVrylcnCqI9zydQ0Lf7rda3/dzq4VEsH/y/bmx1rttaePbE/bnJTw1X+jiqPw86A0/8BOAQD5v7owZkAAAAASUVORK5CYII=;" vertex="1" parent="1">
          <mxGeometry x="873.9" y="349.38" width="30" height="21.24" as="geometry" />
        </mxCell>
        <mxCell id="2PFUA68c3KtspT4KJn6I-90" style="edgeStyle=orthogonalEdgeStyle;rounded=0;orthogonalLoop=1;jettySize=auto;html=1;entryX=0.5;entryY=0;entryDx=0;entryDy=0;" edge="1" parent="1" target="2PFUA68c3KtspT4KJn6I-85">
          <mxGeometry relative="1" as="geometry">
            <mxPoint x="953.9" y="375.62" as="sourcePoint" />
          </mxGeometry>
        </mxCell>
        <mxCell id="2PFUA68c3KtspT4KJn6I-72" value="Prometheus" style="text;html=1;strokeColor=none;fillColor=none;align=center;verticalAlign=middle;whiteSpace=wrap;rounded=0;" vertex="1" parent="1">
          <mxGeometry x="923.9" y="325.62" width="60" height="30" as="geometry" />
        </mxCell>
        <mxCell id="2PFUA68c3KtspT4KJn6I-83" value="" style="shape=image;verticalLabelPosition=bottom;labelBackgroundColor=default;verticalAlign=top;aspect=fixed;imageAspect=0;image=data:image/png,iVBORw0KGgoAAAANSUhEUgAAAZsAAAB6CAMAAABeKQ5ZAAAAt1BMVEX////tBABNTU1FRUVKSkqrq6uWlpZBQUFGRkb73NzxYWDLy8vZ2dn2iok8PDz2n5709PT+8/JRUVFeXl7u7u5mZmaBgYH6urnl5eXyWVe7u7uhoaH5xcWxsbGQkJDybm12dnbR0dH2kZBYWFh/f3+dnZ3ExMRxcXGJiYn0fHr96enwPDr3pqXyZmXvNTQwMDD60tLxSkj4ra3vJCLuGBX0hITwQUDyUlDvLSv95OT6wMD7zc33nJv4Z/qxAAAIC0lEQVR4nO2bbV+bOhiHM0BhKzL6uNraam2tnXNucw+es7Pv/7kOue8QAqSCrR7T3/lfL1YMDwn3RUISMiEAAAAAAAAAAAAAAAAAAAAAAAAAAAAAAAAAAAAAAADa0/19ZvD1tYsDDN6+MTl97eIAg7Kbd69dHGAAN+4CN+4CN+4CN+4CN+4CN+4CN+4CN+4CN+4CN+4CN+4CN+4CN6/Ph9N3Bae3Oh1uXp8/JQcnOr3RTXpsZTaR/05tWS3m2Z75eErHUUpcOflotkgruVxZc5nKw2RO886WXLYUT+5bixn9FlnFc8q9fo9U1pntZt6eXF5envwuJ3YvCdvxu/B+VzeDwLcQbo4T+Tu2ZNUPsx3L8VD++JTSSaqnJ+HFbGDmsrTm0pdxpZy8ak4TmfolTq3FkyRTsZJFSIx8qEzJpFriqbxWGNvi9o3ictctJXY5Wrbjd2F3Nz3PQrCZ+tmPf1w/YSF3hEdiGMjjKKkTWa7gJ/MiaoN+YMtlKN1cyQsG/UpNm4RZahKn1uJJ/KkYyYuGhpuYytSrXGpMh1nbgDw896VUt91Eo7GMjRemtRNWUoQ/SBvcyIN6a51Lkxsvui5no93YTtzmRkzlWdG8fKmLyOKe+agC86uU6piboIy/Ehd047VGeqDu3uJGnxz6HNDAv8rPYjeVXCLDjRdelfIp3OR45YKGNjcp5ZOUmq9OIpPWwsKNjkzpjeOUm6A/jsuM+Zbqjxu1ddnN19xE8/zcxfq477OuUDWK5KaeC8VQuamET7kRxbHH8pLhWv89sLgRayr1hZGSLmXWlVqpuNSR+WYmu+VmaLmkR49gpQNFbYw8vObGLzXo8SqhBz3hisdubLkUbjx/YaTmbgqO6Kkw+wwWN+JalsXsDlAzF9o6NaL7nbRQaN6a6c67mdE7elVJlHfqdxrdZIn8puCotHITLI0I7uqGXvzBUifGvqVsCgra95sf8ufcSHffDb+Go1LbnV5T2yRauBExVbxoRLm0cePx+4fZ1Y2odDBl1yUYWjsC3U8yJh/V2PDG2OG8G3FMd7kxkzp+3kFodsMHezSuaHZDlczIbGc3qmDqzImv6rmFD6oxYxXGUPMA3IwpZj0zGrLzxg1GCzdiQ+myR9voZjmMjNeT2MON6ITFHVHd56pb51MeknO58aOoOAfgRoyoZ2TEnMZ23F60ccNyZYPS6KYXD7nvkD/iu7vhR4J7/3N5TmTtCIgzConsPH+lrfd6zyG4iekJ7BUJdNd8q23ciGuKd9ymTRunNIIJdGO0u5sxVUE/eyTixLON0ZhTGZE72nyQm5/0xI1TbrzeZmSSN/s0/vR1hzSlcSfvbOWGwh4u8rFnJZeVcZA3FouIrjjkWO/hRhyFqnrrnouFvykiPGP/m7Y/5LvccuNFJn5eVXgkp8dtHB0ehbRyQwGWz62aFyjlEiV8UO6GO+2ef1GcuqMbsaRnKqZrRPaOgPhJEeG60v1FFSfftaOb2xODn8X/p3nW+bRgme/tlaZAekbD1MrNuuKmTNWNmPMcHk3e7OWGChQM+490BHi65qP6i7vRZ+qvHd08lGKta+HzuFGzYIYbikc+dzih1lu1cLu6CfRPUHMjLmiTRvV7uREjGjfLTHq23SKfrslnA9jGQ+mvJ7s5fSE3vRK6iaY3jKc+41AHOm/untCmTbSbci788cd0Q3Nf2cOw2NfNYKmegW0dgZu/ZDyK/yt2Yqpyyk3Wzy2jd8+LKY9FaBpo5ea41Beo5qKCargRY5+nXMZ7uuG5pa1znNm7odSI5T0D1cQ55mZbfvy1imajZQe6GIk+ex+a/5hQ/ze63tdNylnbP3Zm0Mv/101XwzOePP48EDfqM07WLI3lgZGeVGnjhsW2Gnvqb9JTbkU36/3ccC0PtnQEVKfZhCY81cTNobjRMyA8u6aD1cbNBaXLaYT2bsSG5ET1j2RPczNOvPoXUM1dzY0yRBXnUNxwuxQt+MNN8cWghZuJrzsST3CT0hcY7s+9lJt/tqh58+aP3H0wbngAN6JAG1/amt10aJzPU8tPcJM1nnos9FJuzre6oYmbg3HD/dqgGtxGNxOP58daflszYr6IXtgNjzsfbsu80yE9GDf8scqrruxocNO5DrlV4qHqk9zwfFhrN9bvZo+64cHMWSWVQyUnP91y0190KhQxGCT5Y+wb59XcBJv8GuvZyGcz+gODWsthzaXuRlyF7d1EE2vJH3HD1eZHLf1zrswpN9ldVFdNGlVko9oY31ylVF8DVazADNUJgZ9fJZ/rrOYi18da3IiV39pN9aIJr7l9xA1Pnt3X0rmH8M05N1VCY6VKrD7oB2ZcmtcOBuFQL5yxrx30/G1u1PGt3FRL3uSmSx3o7936HvoQqj9SH4QbNbyPSktumtxEfu+oeBM81Y2avNnFjd/k5p5C8dOy51btccZNEFpXgptzhGtai56Yy8dEKpeshyFtV9eqh2ESrtbmO3qwtOci4yjXqoe1VfFrXqtupBxRinncqrpG3mzTvsjt0kIUxZ2qHRY4SjeuuEmP7JhRSWcypbw8n9NUHCrnTtbVSKuja0jdHdqq9YQnMtW8zkImTE3j663XzJ6Gqdy2rLT9+vn8/Pzzn/qOjFvady/OCeshj/DsbsCzATfuAjfuAjfuAjfuAjfuAjfuAjfuAjfuAjfuAjfuAjfuAjfuAjfuAjfu0i2xLX3rjv++wAAAAAAAAAAAAAAAAAAAAAAAAAAAAAAAAAAAgP8l/wKE5b18tn4YyAAAAABJRU5ErkJggg==;" vertex="1" parent="1">
          <mxGeometry x="963.9" y="210.38" width="70" height="20.78" as="geometry" />
        </mxCell>
        <mxCell id="2PFUA68c3KtspT4KJn6I-84" value="" style="shape=image;verticalLabelPosition=bottom;labelBackgroundColor=default;verticalAlign=top;aspect=fixed;imageAspect=0;image=data:image/png,iVBORw0KGgoAAAANSUhEUgAAAOEAAADgCAMAAADCMfHtAAAAk1BMVEXmUiz////kPgDmTiXlRhfqeGHlSh7woZPmUCnkPADlTCHlRRTlSx/mTiblSBrlQw7rfWf2x7/86+j3zsftjnz99PL++vnulIP529b649/wpZfshnLqclnoYkPnWDXsgm31wrnpa0/xrKDztqz30szys6jvm4v53dj87+3nWznoYULpb1T0vbPti3joZ0rmVTHiJgADktzHAAAPy0lEQVR4nN1d6WKCOBAOASmHEG29ag+PevRQu+//dMstRwKZTLDufj9tRT6SzD0DMf7vIDf4jenj4um03z4c5pPJZD4/LLcf66fj4+wGP230zPBz93EYfTPKmG+FoT0cehGGQzsMLZ8xGl5eHk6LaZ93YPTH8HF9ePUpC4emQ4RwTNti1Bstnz57ug2jH4bH/chilh2IqdV5+pScT4893Iqhn+HnacVYaEqSK9H0LOrMxz2cTa0Mn7dv1IKzu7L03cGH7nOpj+Hj9p2GLYdODmbo/py0rqQmhrPTRQO9FIHlrp703FYMLQyPE2rJyhUpmMxb6hKvGhiOL9TTSS+BY7urBf7eDA0M9wHTunxXmPQy/nOGs6VvaTp9PATsff23DJcsBN5yaMO+4Pi/WI4IhnsfyM9hm9MWSDH60hdOsCozHDsW8F49Z2cY3/BN7bCf59szfN4w6K2Gr9H3dgxMMELgTtSNADWGcxcsP+1B/MUXRb0yZB+3ZDj2oIcpEv2X5KtKS5iAXRS3KpzhbEQVzpKfGNSP6gyjrbq8DcMxU9loNNXdascwh/WlsoxQhi9U5d7MUfZ4fAzDaBm3fTM8OvATGMPNzOgnHENC/B+w+whiuHXVTLThPLvAArVLY5j+rkeGA9X7y5fQeFTa4xU4UIEjz/CRqPpI5qq4CJ5htFMH/TB8UtARGdh1Yw3UozhXDH8hYTlZhltX+YYcu3QZoLHOR0ABh1GS4RkhIgo5E+EZLWpSuCfNDF+hfkQZftn7cTQ5zFRa3sgwnL2pacH8Zsoq7EF8KRh3NtHHcPqOEg/Oe/liR6E0tX9gFP2V6IahDKcOTv6Z58rlvgQ8/PkJKIVCOa3RyfDTRIbS7OqJ2fN5hCvjTcmnRjOcethYoVUVe1Ou2oncR/4f8BQ7GE4ddDDUrwU9V7xNz6ZKfofMRm1nOPvF2yB+LVTG8xHZulXKtlDsFjftDN80GFkNZ6CpEs14t3HXtvvqnUqjleHrEE+wbJWmaFpubmxnggVNdvku1d/G8AVqRH4xToyf1RMsDZHiJeug+jRphwHXwnAJtSHNifHRTAGzRnBlVPuf1H1Udqzc9hyVmOEYLr1pJJsudS+SNRKBT9VHZ74YKIZO8xekGD4ruEvJkbvUVog2w9VeZS/TY/KheggneG/8ggTDWaBw8MN9/M1h9Zu0efFlWTE4b+mH7+pehz1SYPiqErLwEk9wV1l956t58Uq4Jszi9a8I24K1RBkFDJdKeyYLi57LT8fkmR2bEpt8F58xqfIWacNnuFCLWQQ/yben5SXy5pzrn64edfEEUAEOxxYmp7gM60dJmuEm/X7ZAAt5G2h2fQZWnuPFxcM9oYXKZThS3DDZGlYWsW54p3gpBG4RAUDGUoXpNx7DtWq4qAiMls5UU+HHKML7+bJHUNw4OVxBiJHDcKr8MHnRe46yiJH/Q2kTo0RN9Kwu0gzVo7bX2y38h1zb1THJ6JSs1jUmoBfB56uMJkPlPVp2BQtZ4wm8m3ybsutHCk5+FS7XemswnCFEGi2OQrFNLZHln/5DRVtukPEEkxvUaDA8I3xCv05AJGiM3OGt6JIPbMif8aqL6gwVdX0Cs2Qe5h47MwRIlX4lAIDepk4owVChoqdAYnhX18MU2sRpBqMSD1cMZJTv4NDJ8ITJnJR35JE1SNcQ6ySn+vO4QoYYHKVYY4ip83XM8pXSHUfF1ROXoJI7TSAKiEuDY+dXGS4xZ31YsbGTwJLTEiSJNWLdaF1jKxkIbTgZlVuYoUzDalAtUen2g5hh7Es0jFZ08q1p2VQYHlBZNL9y4cQZYkcxw9iXaOgSlBxIwOq1mmWGOGlds15iAm2bNJFFbuNT9El0vlsY4pawFvmNCXB9wxyflDi/jU936GqN+iKWGOKW0BlWLxx7KHxDMYfL1ZavWJ0Y1Gz9EkOl1EgBu65saUMX1GA6Q46CVoliVlHbTCWGuENO60IlcBofVXEJuPbABJssqRngV4Z7lHvWDBq+eR35y5HJjXCoO+A5qmbGleEvSoo1hcqr276ExtzjKxPcaSF1qV4wfMJt0qZQGXQlL5c25UoinN0Ro5JIKBjiKs6C5o5cdVWCfoRNdZgAvYiV850z/MSJMKvpe3ZW1419j/8H9CJW9GzOcIl7bpwEUyd2TBAdM+ZYcVrOyuYMcSav9wInGGk+kXv8iNWJZVlD8ueJumLD3JXB1BVWGaDLUEtR2ozhBBeN9fk32gFX6FshBXvFLcsY4q4oCop2wBMb5sgIf9niJTqeWaOgRA4bcS8Tzs0hZdGXMkRuUmHIsB1ncZ0Ium3hqr5ShrjwiHcW3mkrli1tvuhtWlhURMMT46cIu7FukcDIXVXaVwlDpJlEFQc9HFuO7xiZiLrKhoQhLjhSSnLCMGtxPj6xllvhkRP81Wy1vsCYYsvfsHHFwmGNGSJTk4q6ogMvaLPm88oQeapVrO5uoLtrcn0RMwR2OtQgymMjgW5VzJMMBH0Mh7ySIDzQ/UP5QSTo1lVhHhsHfCzDneYMkdqwUQOsCegMRpZfJriiQKKu77uAyUYnyMJ/BP2wBCVBaKC94Mw0Jdh6skauRxfQCjHLfBGsWObWj+rAHD2aKVXUBKtaVV2nThzQzR5pSJ1gLZqe1KGGuHBm1RBsrRUvQ6YFyAguyV0CgvTvW4sR/phh2ttJsLbDHa9hWpdBsPYft1JdB/DnkCRlbmSH3KWmSkBfBnhtkaoLgq3MzavXtQNdxhepizj/RQSdx9Jwgp4YXvDDChOngCyxilWQ5kQDXeKWVWUT9HYXVgHjgC9YyFxXgjZwOelfHcCPI8qy3WSA3e49KUSsfIiRGDUEOI2iCV77nQag9xbJ7C2i2EJdAr9mBAsdo3oSr4B8oa/TSyhKy6ieJHNLftHX6cUH1jJuKfFdNVynl1gUupI2RmJRarhO0cmrEc86xp7pY9iDNMWHMGKkDPHnsI/sk56RYClDvCwVNY0h8IHNAKdIJQ06tByjoxoYDE0zzxLvnGykL+ZZQ5GFp3kRTy1+hRn60nZmYlDK26XeYX3YuCz0eI+EanyZgWHY3KfuROSoPVrupG85tUulXem0IOF4mvxS365/idM5oY5m91VEjlFntd0lBqK0GEpyM2QibeEWPbDT3XLAmFVZzFC5XKGBau2l40Xkfs/7XWFWyKchUv/wQVrzVGsunk+T92gxiw3janOEixB1Qu5rsq+9MEne60hKmYj8oPtmRGb6tHzNF1Ob2t8mSxS/P+h78rFoVkEAArxpnAYwy49fJxst5lcsgCy1EszG5dxgaDE2WO4EJR6AfugkwEIAyTWxEzFb7M9f/4g7YuUxpe7msG7b8YBJPYlLQI4AA4m21t/PdNhuu67jDKnXTqr3CCSmpVgLrBWAqoNUNBDQjK32drtbQDz/tIm0FJqAah7+fhEh9QtpeSKB5QdEQ2BuBcgSZp45geXpeqtLkAQoYZ26rQRYewmZpK0fsJ6CNMxJgHE7rSY2GLAqyrTPhUAHFlr6TGwwYCMfshNFwIND/07YABu+shoKAu6Fq3eD3w7AupisSYJUBuDJffOP9ukeGIDLbEyikCLoamHuB+CmxGzgUFy/B80n/408/QYmOvMikZhhfeptJ+y+KkxaMIemavJcQ8wQnm5l/dR2t2ANTmTk9QUxQ4Vcnb6ojBwUMjX53K+kjhbeCuc4NyU44wZpW1HUvSYMFUpMu4Ze6IXCbPiiRCRhqNJx4fdVk8jBQKGIz81DkAnDmUr/e9csdH0Az4Yn5ZbBtJ5dqfLfH9wGG6WXJuyrDKGGWwrzNlAqabqGBVOG6JmM94ZSQ102cUDL28LuCKX5LRlD/Di/+0Ip7JnPNtFS3XE3KA8Eyhmi+9/vCv66yVBHOef9oDzGopgTpaXM6k5QKXktGMJLWALrNoBbNBXPp2A4A79VRvLNbnhA76w6eOw6kQ5aSiYegvzXDKu56itDaKTnbhnWwkilyZDAJpW7ZVirWS4xBGWu7pdhfWx5eQYtzDi9V4b1kaFlhrBFvFOGjlX7dmWWMWjC7Z0ytOo1LxWGoAm398mwPs64PpMdIk7vk6HfiB5VGUJ04l0y5KRUajPFAbPu7pIhp5K3xhDwDpZ7ZMirxq7Phf+Qvtw9MuRl4BuT799kg3d3yJD3ipImQ2mNcX8M+U3XzbcXyKYi748hv2GA834GyXaOu2Po8V1yDsOd3D69N4aOzy+b5r1jQ3KfmvRGkLobQgUzRrlvEcGN2P8bCKsnuAzx75i4OcRpd/6bYLb/ufiwuIpJ8K4bpZfl/iFaXpcrYKhQ/PCXGLaULoveV3T8Lx3F1rcuCf92Usu3mTYKakM6WjtdxOznKrl987x8QGCpNIfEbZ223bK+rwod4z6y0F1lwBdrr3dt28Hv8AeqOrw8h8I8oLCjULKN4RT+NsSWNzpKAV4xMewqP2tjaDxTKEVs21AA/UGzs7GzlSH8vavIaabg4VAB6Ry13c7QeIJSxM05gZYQBl73z3UwBFPEzcUCvprbCSW6BbsYGmMYRc6rrQCA5tFkmls6GUIpYlpqYAWEwVCq37ObIXCjYqQpyPM2A7mGVgmGxgKkNNQXsW3gR/NJvkvKNBmGxrMFsG6U55zMIAaGfZF9I4MUQ2P6CxByqs0YLwA72JcP9MkxNIwfQGVSe9u+CJCeEQooo5dlaJzlJXnwrkAQEP1yXMhwMWmGxt6Vn0YEn0v7KX8ITQv0NgZ5hsYilDb8bai0+ZSvVw8vMMMQwNCYbaTFub0B3cVzKE2QQmdPQxhGLrj0TjUJQNyMpRWuycAuNoyhsTBlRTpAHEykpai/gbsuQIaR1pJ+3uxHahl3RDY2E7htbzIXAczQeApll9F0D52Gx+NA+on5b0p6Fs7QmJ2lb8qmh1bz+LhyZeWzSVUWUI1hdBp/pd0c2x2IZMP0443K8nPYQHU0jhJDw9hSaUPV9Onoo9FUu9huqLyKCB31mX6KDI3piyvvb8QT8zbz7elpt1jsxqfl+YsyeXpkSDEzDlQZRlr6h0IixoEXWj5jzPdD2wR5uu4EFd1SZxjJ+TeGn+7fyW+FnDSCYRhpjp45eu4K3RaPYxit44+8zIHCds8a2v6xDCOd9uLy543i4FjsQcvsNDzDSK4uh0xzD6pHv3W1iutgGOFp4MITVSJEGnSib0CMJobRQu7fACq8hZ7lDrS+MUMbwwiP2zdqYbar4/l0cNI8w14nwwifpxFjavUGkeFjT8b630urmWGM3fInMsogdovjWYyN9v1MhOmBYYzF/oVQZg27eDqmbTH3e3Lqb95NTwxjTBenw8BxGbNC2zODojDXcQLTHNqhzyj9Wj2se56r1SPDDI+L8cf2cB69br7ffwn5/frevK4mh8jTON5kGuq/JNAM5+heQ0wAAAAASUVORK5CYII=;" vertex="1" parent="1">
          <mxGeometry x="1013.8099999999998" y="350.62" width="20.09" height="20" as="geometry" />
        </mxCell>
        <mxCell id="2PFUA68c3KtspT4KJn6I-85" value="" style="rounded=0;whiteSpace=wrap;html=1;" vertex="1" parent="1">
          <mxGeometry x="873.9" y="445.62" width="160" height="60" as="geometry" />
        </mxCell>
        <mxCell id="2PFUA68c3KtspT4KJn6I-86" value="" style="shape=image;verticalLabelPosition=bottom;labelBackgroundColor=default;verticalAlign=top;aspect=fixed;imageAspect=0;image=data:image/png,iVBORw0KGgoAAAANSUhEUgAAAQsAAAC9CAMAAACTb6i8AAAAwFBMVEX///8Abbjm5eXn5ubl5OTk4+P8/Pzq6en09PTy8fH39/fv7u7s6+v6+vr19fUAW7EAarcAZ7YAZbUAYrQAXLEAWLDZ5Onr9vsAY7UAX7PT3+fw7OllkMeBoc4hc7q1wtvHzuDY3u0seb3m8vnI2uyUtNd4o9Cfuda+y+O3yt2sxeFUjcWIqs/u8/htm8o/f78ATKt3mMpYhcLa5fK90+gAS6u0zOQAUq0ARKmUsNTO1efg4+3N2+bh6vVmlsqEqdOAEZv4AAAaMElEQVR4nO09CXviuq4mSbMSslGG1DN0ulBaKHBu6WNeZwr8/3/1vCbOBlmh593x951TD7YcWZYtWZZsAFCyJFmycEaWZWmA/tqSLCsqyhgoo+ESDZUYOKOgjI3+DlCJnADGJSYHBgy4z4F19FdVWLM6B+6LzWJgkwPjZvsiThFwhFM/jRMGlhI4SVVwAn9p8ZcWhbRQJIVUkCRJId+9kqQrAopKKC1QhnwXl2BQU0GVCUaoxGIlCvmuCEy7g0p03iz5LgKWOXDULOkOB66Kk81wUjjwKZyUDE7AQkk3TXOAM+ivaaC/Bs7wEpOX6IVVikuyzSaqDCoCJ3A6DlyiWT2JEyE7oZwSU05KjiamdnI0pXhAFD4gdDQlBhyNJh8q3CwdTQ6sCMASB7Z4SQ2cpAgnMxcnWcRJzcFJbn2WJ1eezCz/wiuPyBfsu+XHQBxapXgMeLN8DLLAxXyRxEkrh5N5Gic1B6c+SgPbtk2cQX9tA/21cMZCGZ2XmCijiyUGzvCSgQgclSSAjTRwotkscCOcBmmcrFycUsCAUC5asxXpqqwcuZIUQnZRjlyVXrMlpbQcKYcTB87IkfI4gcRE/atf/KVFQtdSKOOgv4wfUYaAogzjR+WK8iPK0Dmi8DmiMH5EJZQfBWDGj8qVzpsl30UZNkeEZm3W7FUCJ6kGTtZRnDQRJxDjhMku8wEhlDHkmHIy6QEuIbXleEBkQyS7KfMBQRnOYTLnMAJspIFJs4TDZM5hHFhiONmNcJIq4xTpF0rMRTFzFnC2FDOnwpnzNGdz+ZUFTsvUQpyOzDax2cqzjQJ/CV2rj6sCezAYqLzKpXWtOjuqlA5+bEeV0sHjHZX88j/XQvqfn/JlcNJRMnDiGT03c7wkv0rJZg3dfA96QvJ/mxfBCTDKZXdUxaNJ+GsgaM6p/XH1Xd5jghbj3zVwSmvzStld3lWEE+Az6qL6RR4tLq1rYYhoxWOgBav/QEl/ly/gORJJytJCElf/o7SQZKWsRKqAk5bFCagoGVpfs3AGbVE0Hf01NZSxWUmflKCMgf7auMREmQHKkBKLlai4ZMCBk81qtFmbN6vzZilwlhaVcFJFnDTerFUZJ6JqJjUzpYy2qDTRFpWUtii/JNfOn3I9nKyGOH0F/UJL00K7jH7xlxYx8CXmSHpH9VXmCF1QNLbUoESXGpR4CVunNLZOoUTXKVbFEoHNNLDFgek6hRJdpzS+dmqFa6fQbARcB6dMh4pwAsWczZizSKZmZHkl+VVBplbY5TWUqfm0OLeude0LybmortVIB8+cUR3Vd6/ydPDl8y1KzzjhzLIGTkkdXKmlg3e4N4szp9LARNt1fAxmkszgDDjl7c1KnJs13R+PvqH0MEIJZ0ayNHogGfbDw5WkjfgPpKQxTuZJnHI5rHv9Ar79wlYJx3GIdcLtazP+A/1F1l7+uRaq/HNxXaszGx/87opS4h5qM0/8wUW0GOfrWo1sfEoZWkgpG5/Mzbek0aydFZfk21kzwFk7q5yihXvfhzM/QQsNZvXOuFm1NZw4sJ1pNgLu/EwgRQsA5klaFNhyCrVFZfQCj+NU80yAc1GH+kU9WhRzNlw4Bzaa/7pzs5ZpYc6Dnn+/6dxHqZOz5ZpzpAinZYiB/G3u2TKfIzXOlq+KfQ7U3PP9vlroc6CKwML5vpGihQFTcqRvpddO6whO+hOFdqbgNE52AU75Pgfd+6Jk5IiWkiNy1n5R7Isi/xmyauG0EKeavihn0LVStIAlaFGME1xFrTmzM5ybteu7lqaFltYvsrTIOTfjOGmCWuZvCnAq4bvGmxV18GIXQEN0ARxkXQDL+g+aKb1T11PrhWGkz82MQpx0kY6uVwmnUx0CfNnt0Nf1jWw9cBqi/3pIjvxieWeI/n+N5Mg/jhPX+fX7CE4LkbDeSuU4VfZ1ze7yQP4sb1W/+HaD0ugBJZzZIak4whn+ww36gZagH3Y4YxfOcgB6iTTciDh1o2sJm6IsLZTTtEh7kGhkiwBkTSMwJvqBNGuhjMFLMEY2r2IIOxuBFjsnQQv3u4hTlhaVbG0dzJHIUkEziC8iwwT/ITZm4IT4IqpCStR0lWWEU1Ir6/WCZd05kuPHlz0TaORldaVoTmSqQH9//QfCN/GHa1eTp7+47YL8leSXfxyhyj8/Ze1/HaHKr4PGdlTw1UvSwvuAMU4FZwJXx84EZDrSpEOt6xdakol/wDr2i35iKnivkOGUoYW7gFn7xZc5N9MSPffStCinaxXS4keKFj1fh2QDb0Go6Q1pIbXtrVuDFtlzswwtGE5wn2gdV35dLe4nKC1WHy/fCnAquRqeDtyweEm5qA87RQs1vU9V1dQ+1bTT+1TVTNJiqrL21fQcQYWuS9p3XW88vJ8t1RqRKDSYBFAuqh71IfooJb37k5j+qLVnV6+TtIhwmmZokUiuH87zcCoVcQD4jGpP1+qMFnj+J0HzUrB4aKZr/Wv4YjfsnUqu81CTL9BMsckkslEG/e3rtmmbfZThJRYrIVVoCaqi91lJBIxLsAXmFC2y64VaYr1gOA1O8gXWRRM4FXcoLiEduoAc0dJyRCovR+SsIMkk50YpjEQ5Lkda1y/6XeoXmvacUMtykvsdVvcH70rXSmLWrt6pSfopvnA+W/RRarofGVLTBE3XfD/CjBNDx0Vz5NfQESrR/chwyE0cv6L9CAO5xvsRhpN8QpJ4B1h7P8Ip155M3XHjBLFSfGP2ix03VzygHxJVRtx+8cDtFyre7Io2D7JPZeO8O84YbgKnS9kv+HfV2AShyfSwD2VIVEQl+4XGT0Gp8QM1C+Fyuz4uVJ1R7viUOqVuiy+W35ImiKTLRcJ+UVjykC5JVHm4nf1Yh8Fxrgi3sClfVIz6yLHlzH/F/hSiccJJeFpUqJIpcXzfO7Fuuv4WNrF3Ehcd7BaEM9g/yBAzUcmJKubqpNjvPvn3D3YK7eIODbJVWjofgYtL08L13ZkpsoLoo5Q9H+nQRwmuL0kL1/WvFzNLa8GuVTfqQzBAwwtRIQhDz/cX+/k3Qzvto3QqEoWcs2Mv4T6PsMCHzyxwo5+MsOjzkBF8LM3CM/rE+XgwuQgpwrs/f9BuC/cvg1Nxh+JIlGSHmBwp9FFSiqM+Ej5KFyEF2uzouTgd8VFSUj5Kavs+ShehRfgpf0UfpfsLrJ3uGn7J2P7TZoX20/BRbu7HJ84RDen/ZKkhOwJVBSTCAqBMFGGBS6KoD1xCoj5w5InMgS+hX7hvgOKk5eNEdjZihzSxQ1EkCu8qWjtbkqmZM5zuU3gH2vf7bUHXSpmqzpHcNTiOUyc+SkVRH4IOLj+fnRbDz2Kc8uMETurguREWeiJTokR/uD6NfavJ+6GextYoWUIzIEG5CnFFaf+LUybZ1mmxzI8rSu7Zy8UVte2j9HZeQRLMz+YPXj0OMXvo22XCp2+5t80U+SiVikPEKoUlxxJYHoBYAmOrYySB5Uh820AFAzkW7Ngw+RiekxbjB3AUJ2IsRRmibKASM7dDegSMftDltuKWJfmcgiSYwbbjltv0UUqdCHWa3AWQyuB0qXMz7fZ8jOEvwZeO7Zess2kYwWNbsf0p6wwOrKCWHx5hodoqD9yIS6jlh4dnoCo8cCMqAefangVTWBYnlVrt8jrEuyoAg4QIkkSLIBdBhfflSEn59XIeSeLvoVQc2y9lZGrp2P42fZSss9g8vbUYhtmFrtXsfi1GyHPsVZGSpZe6X+vULcp5Pko4pp4cG5ksI54smXqixEwfPpkJYPMMC0a4NDNfPoZTukNGbofoIVq8Z290wzkl+yw43ZmGpPjUjuBkpZmkdGx/Bz5KHVPCHX/Cc9+jVCWOPvHdbjcl7v0OVsfpYveDf+9wt+rdqyR4srv7wUntq2ZnAlHghrLsjhb+ui9XuO/3quSZQHex/ep7V7MkfDIKOPvLnZtFE/XQjbHP2YIMTl/q/ZHc2P63DqaJ5+7OcW98YciInf/+iJ33hMhALGn/aDXcD4x6OIkhI8XA1NvdbE+O8HhpuW1ieN67WRGnEjHcKkjuMDqK7VfvW5wm7vBJ/de9PyKMgXrf2i4txBegVMapBl+Isf213yvKCT6z9VU7otUPtiZfDKyKOFXpkNVBbD9fs2U4d5ovGr4/K49TYdzyF3h/ZDdpNk/coDfTS83yr6trxd+dhvVZwwvfni2Yje0/Ay3a2o8kdf/lPqwlUNyxe9gN5AbvjxTjdHQ/kpUjFXygC+QI4OJpt6pMDS8Mvm8NKNfGqeX3zWrbL7Kzbfk6ORHmIDKEN5z8eLQ7wOlC8WZJWqjQeFlNQv8UPVwvCLzF7MYUm73Y+yMt2DvzpbMMwWa+d53A89wMSVzX88bDcPL98P5gQk2qHvWRY+88jVO+vZNoI8Q4zDLkDiL0lypRYolBNBihSqLEtNLAQrO6Odg9Tv+zXuPYuiAYj8c+DrW77q3Xr9PnDQ7I12Pg9nDKAGdKqB2cVAGJ1aVEDHfx+cjpu48BhNbo27e7u98/f//EAVTA5LdWNHplsq3zkdxZ3uGd2OQBKZM4jYB2VryOdK1G56nFZ5dZr1klz2u2ZtTH0fNUqcp5at7hs33qnN0uPNO284ATzeYCZ258bBOnXOAcnI7H9l+lbrhs/UVHqi1mbgJVKty6KeBkNcSp+3sa/z0vK/6lRQzccmx/kxcdm74y2diPTxXdIZl/J40qVwFxh5SpOyQJPFdBRV9KCqxRX8oYWOfArNkUMGiAk1wSp34WJ1DM2Yw5q7w/ct7b3lv3+82nRXe6VvuzvOtzs2pxAmV18DKRKFV2VG3HCeQGVVR6uwNta+xMjEatZk3TNmsDF5aUBm4eVwTee+HbSC4azeMclthRma9h+NQKh10otl97HPZ6bk9rQb94DXu94AlcVNdqFIeofWCLZvh47Lu82ROrPzWNgmoeqrmxkTXjEMVXyaKgTRwKD/JfJQPRq2Q09gKS2wL9277MSwgwf1jM1vJjQSlw/CoZLiEO5ROg5uMUAfMQ02KcCjokvpSWG59KZ1SDMwFKi+eCOPoKXvYDcqfWRJOaa7CXiu2PaNFwlksmo8UXseX8pUWz+y/OP0dO41RzjvQzL88K14hkXsPN3ovC106YD1x0B0nOC73R2pnzGm41nNjaWQRceC9KY5nKaKEdsVLyZk9YKRktupOppyynTXUtmKFFbV1LpMVlz81q3q8V0SKp79bRwWNaNMSprg6ejrAode+aTp5z1HGVwdQntNBTwLhK4aVt9AdSReclOqBrp5n5MjvtEoB1/Hpk3H78ZXZ2prMa+G/5i+QAo1z5/bEM4bfd+/vvGw2SkliORKPJq4z69E73nB2VBo1vd9v3u9EAstHMyBF+Pbo2+6MmcJKhMdrg5jUoJ8zxtnb7Se8mlGF/hJrfjQwolT6ZBfmzvFi/gJ9P99fD8XgcOuvZEuToF0B7WU2uQ1TF8RbzZd4st+XpwnGC8Thwevt3OsuL9IvXa//6NQH8++A6qPlgGC5m0bX5mBaPjj98wz8s57T5cOgtfgLQTNcSFvAkLTaLMLot0fWc1TJLi7kbe1y44/CQ/a79MY6dENxw/U5oMcijxYa4R14/xsDP97F/i+sFBxBLJLzgBHOwPISJ5u1K93fKqXdPyHMqeXzxNEx6DXjhfMZpQXW85Vsq0Mp3N1EEDG323U26tbnDhYpfg0zTAk2AKf2et2I4AXuR8gLzho/ky6jDd/jL3tOjl/QFCqYcOJcveFcRLSqcCQy0HN+84J50+JbGduifOXdsDrdA2FEZBydTw3V3QJAjXFt8vGdBB96HRnH6dLM+T2QGIQ1W/klrp2u4a9h+bP8ycvR23ZRXCdcvtlE/xSrOk8BhhyCniuuCrH6x4kzoBSOK00aYfXHz5NG3vqz9ToZr8ObdBWz93Gw5YV/3vfvVajUZCgPAaMHvJXZDd71aLVzeGcQZ/LuvIa/S269WbwHD39mkaAFiVh+uljLB6YHf9Tv2J6vVvscXDmeaoYU3nKDm117geeFn+++P7OmXvd4MiUpogt0h9u1lc6RHfwjWjxqqooLNnlW53uj0HPeTcoUbrO5wK2C5pV2+3olzRNK0yIva6z1ynBhf+r3tEmLgzRNbPNDaiuZITAvXf9qppMr7jx+fWtl74+nriRZ9V5G+J2DzS/ZJiUVfTzSeKXLjFXb4tm3dsvTRgg+d/6zafZNTa24SGMOyBp+UmdyJSpo16D+9yc3AsE38QcP8GLquvxj0bbp2GlZfRbLI4+yz6hsUJ2NK++rMBgbFCTfPPqmbtnrHZ5+//jOwUIdMG3svmfkdSnc1iu0v9AeKIvU02otwC+XonQkZcGIQmXpDWTj8hDEwtClcgNdPVSNKas/bG3Ls3W8+Lu4PfUGmysvvUa8mj1BmOI3YDEFiKdL/ZJNi4GPRymnhPw3kLt8fYU8i+x8wuaNi1ydhWrBnD5xPLbHy2FT2YN5X+wFlkugt5DxbDtx6EVO8xjgBYmTuhe9mcpYzxotp4a47fn/EIBf6upP0+yNLP6KFRMf8AFJjsCUoIjUAAErQYGNmoj7QFGZ88fCdrxT+BMeO8B0VNZN7T+l9wY5UD94jWvjLY+/SHPNdy42wyL5XtGRftFMhI2y0/GfbpkHL4dJMBW7QkcNviKjk5mx3D3KjPlQqj7nK6A4/VDvGyd5QOi5VspMi6xHeUNmANIpoZFNaoFzd94rKyRH5N+VuK+2jJN+QHiA5Qo067h6md3naFq95RMoTQTB+iXdUiYjGxCUz7ttDAif6poK7+Hx5xOkFJZahr1agdYbKESRC675jVU6/0LYEkxXM2nImlBYavUhp/KJldjY3ZPK4BnuaJNCO2XLitEvgBOnTwm4QhDgFQZRhunCf6xdWxz5KkEwFf65laUFIgGlBVhQ0KhlaUBKMR/IfzFzuvVGOFuFOzdKiMA1vKC3c77BjHyW4IrSYyRkfJY1cPufdypwWUsairjFaSH9COlkKTng4LVw6vu7aVmKcTtEifKRzBPFus/dHTnv9HQgttjmeiESSOkhtJLRwHnJWHjo1+Gvii3zvSGbLQRX3G6ZArUWcDif4Ysn3qUCMN6viHQk4F52wX5CVCz9KJfooke4QEgw5LcK77GxTPUaLiCh5PkpMv+iFL0i5pizivQk4Mb5w8xN+h1qgRS1foQJaZHQt8qIQvlY2f5ZfL9nAea/Z75K7D8iVtJQWu2PnZr0l3uXNqY45FnQtKrzX+0Ve+s8LyKVFGz5KmTnyhyoPu0xMJn0+CGuV7BqlLD9SBWAF2GPJ3kduJErS3jmnehNSPDlOVH1B+qVNNl0ARx1AaLOMbIPcOVIlEqXsO9x0j+ju7ZTCYtLfV2gvtCToj7eDpJJj0GeB/blhsQe4Az1ScsRAX2YHt0mJuaKUHb6ztx4NnTWvFz2lbbC1Uy/xNngcqyu+w13yfIQ9yug80lnORxMeCMrBT+yjRC+hmywTHKb06ZbF05Bko9orez07DtxjTxSJ5yOSuveZfGA4sUfqh/2k5ixp0crD5Ujt99nL2nKWbMu+EWc5pHsN997CwLdUB14kVh5Id9reD4hXHnqxZfDK1zV6ufjtbJSkBcGJ7YHDDcXJ2jj0W6Y4y9XRjB4DcFsO1gc7j+1nMg2PU7SjmoWMkWUCTB9k8dZLYUe1ZxumkYzHYMeWgYPAF7ve2L/egsy5mdljpo8lw4nug937pcAXB8e/XhXyhVLMFyoQLRK0Q+moD5scSxNrB46wsKMIC5Xb6w5LGwdvqWCzpj3zvpNoDFvdUNK43hQfx1kIo2dmawnnJmkWfFA9ary+I1VsoNLwZk+1GS1UGg8ysNUl/SAiBj0q37Hmg6lKgFXwuB6T4VExthajhSFEoiQ61E92CJtvhK4adkqOHImwkEdML/SGi9nz8/xjwqyZ7kRjeg2csu227z/Nn59nh96YmTcWkK3ZBuN8N3QPqMp0f03/7dxImXMz/kVy0TEChlvWvOfsEQa303tq4vMOkJyb5cuRxrpW3rkZnHPDguv58QNb7vBG5noNPERWSlQlMt56CytaeUY9biQVG+n5VvZ8RDLYrUz+igLDWaSmi8DBrSaej4Bm+kW5M0R7m3N1qzu50WIdLzJzi8l/M+LvysvMAQZm85d+7hkiI8bwmW+Xc1698yaG3CItyvrxbbx0P8brvpzwB5qnTtYQ+x8s8dQJ6V7pKww97x0qyoCuF1oi6mNKZdMPDrz10xgMV/wwS5wjpd8fEWP7seWRLLvcBGnIMeVk0gNcQmrL/f7KEXBxfW9m2QyYOo3JcLQWT/nc8eQRqmKzfRm+9MQYd3e4/0PEIhZDbo+yJ8fJeMId9GeQ4QT/7JMYjF8gE4saMSt5SKZGHWI4yfxlRZk8y2jzDgk44QPLWL/I+ijl+cDA3cF10EqAUhCuZ5YWOdBFp6D2Zu+HpIYXBotbPesPpJnb9ZhVGborfPkiLnm/Rv98B8moD+Mp9MY9LT4Rhpsnd8iaD9dzK9a14H7o+Z7GfZRK6RdN3x/ZzV5fXz+m7w+kSt537c+P1+nrdPq4JP5geafUy8cP3MhsQ/mOfPnz9fUOgPTucj6dLgVexd3ZEAw+UPOmuMvTt9OPpVyAU00fpVNx9FArjLzmwBrbNx3xapEh5e448ppc5Q9KRYMjYIJK7n0DBe+PnPS04eET9aM+CquUbLYRcNVmjwEDRrlGdx8rJUdT5cDl4orqe8FVjCu6VGz/l483qxOHqKS/e/aojzyv2SY4ATHCQuVRHzj2QosiLIj/MA/P0MSoD1UIGVHFqA8t0Wx+JAoHNo4D86gPkwNXxSnToSKcWntbodu45XI4NYlb/hvb/ze2v/y5Wfdz5OhLrOByc6SVderE8tdo7ezXxKnG2pnmbKUDmVrylcnCqI9zydQ0Lf7rda3/dzq4VEsH/y/bmx1rttaePbE/bnJTw1X+jiqPw86A0/8BOAQD5v7owZkAAAAASUVORK5CYII=;" vertex="1" parent="1">
          <mxGeometry x="873.9" y="484.38" width="30" height="21.24" as="geometry" />
        </mxCell>
        <mxCell id="2PFUA68c3KtspT4KJn6I-87" value="Grafana" style="text;html=1;strokeColor=none;fillColor=none;align=center;verticalAlign=middle;whiteSpace=wrap;rounded=0;" vertex="1" parent="1">
          <mxGeometry x="923.9" y="460.62" width="60" height="30" as="geometry" />
        </mxCell>
        <mxCell id="2PFUA68c3KtspT4KJn6I-89" value="" style="shape=image;verticalLabelPosition=bottom;labelBackgroundColor=default;verticalAlign=top;aspect=fixed;imageAspect=0;image=data:image/jpeg,/9j/4AAQSkZJRgABAQAAAQABAAD/2wCEAAkGBxMSEBMSEg8SExEXExUXERAVFRUVGBgSFRIWFhcWGBMYHSggGBolGxcVITIhJTUvLi4uFx8zODMsNzQtLisBCgoKDg0OGxAQGy0lICUtLS0uMDAtLS0uLy8tLS0wLS0vLy0tLy0tLystLTAtLy0tLS0tKy0tLS0tLS0tLS0tLf/AABEIAOUA3AMBIgACEQEDEQH/xAAbAAEAAgMBAQAAAAAAAAAAAAAABgcCBAUDAf/EAEUQAAIBAgEJBQUFBQQLAAAAAAABAgMRBAUGEiExQVFhgSIycZGhE1JygrFCYqLB0SOSssLwBzND0hQVFhckU1Rzk+Hx/8QAGgEAAgMBAQAAAAAAAAAAAAAAAAUDBAYCAf/EADYRAAECAwQIBgIBBAMBAAAAAAEAAgMEEQUSITFBUXGBkaGx0RMyYcHh8CJC8QYUI1JicpIV/9oADAMBAAIRAxEAPwC8QACEAAIQAAhAACEAAIQAAhDxxFeNODnOSjCKvKT2JHsVjnbl94ipoQf7CD7P35L7T5cPPwgmI4gtqc9H3VrVySk3TMS6MAMz90nQvXODO2pVbhQcqdNPvJuMpc21rS5LrwW9m7njrVPEvlGv/nS3feXXeyFgTCaih9+vbh96rTus+XMPw7uGvTtr36K7ISTV07p7GZlfZkZfcZLD1X2G7UpPdJ7IfC93B+OqwR1AjNjNvBZWblXy0S47cdY+/dKAAmVZAACEAAIQAAhAACEAAIQAAhAACEAAIQAAhAYzdlduy3kfylndh6WpSdWXCnZr956vK5w+I1gq40UsKDEimkNpOz31Lxz6yp7LD+zi7Tq3XhD7XndLqyuDpZw5YeKqqbhoJRUYx0tKyTbvey1u/ojmiKajeLEJGWha2z5b+3gBpzzO34QAFdXULXzZyj/pGGhNu812anxxS19U0+pVBs4PKFWl/dVZQvtUZNJvi47GWJaP4Lq6CqU/J/3MMNBoQag9ePsrmBWODzzxMO84VV9+KTt4wt63JBgM+aMtVWEqT95duPotL0GrJ2E7M024fCz8WyZlmQvbMeWB5KXA4GUc6cNSgpKoqja7MYNPz3R66+RFsbnxXn/dxhTW7Vpy/elq9DqJNwoeBNT6Y/HNRwLNmI2IbQazh88lZAKjlnFi3txE+jS9EibZlZWdejKNSTlUhKzb2uEtcW/xLojiDOsivugEcFJNWZEl4fiEg66V45faqTAAuJagABCAAEIYydlduy3mRBP7R6r0qMNJ2cZtxu7N3Vm1sdiKPF8JhfSv8qxKS/8AcRhDrStfXIVXfxudOGpanVUnwgnP8S7PqcnEZ+01/d4ec/ilGH00iBAUun4pyoFo4djyzfMCdp7UU0/3gv8A6Zf+R/5D2o5/R+3hpJcVNP0cUQUEYnI/+3IdlKbMlD+nN3dWfgc7MNU1e0dOXCotH8SvFeZ55bzro0OzBqrV92LWivil+S1+BWgJf/oRbtMK61ALGlw+9jTVX3z+5roZVy5XxD/aVHo7oR7MV8u/xd2c8ApOcXGpNSmjGNY260UGoIADxdIAAXqAx0hpHN5uvovbp1LIAHS5QAAhCSZgYnRxejfVOnKNua7aflF+ZGzuZlRbx9K272jfh7KS+rRLANIrdo6091XnADLxAf8AU8gSrTABo1iEAAIQAAhCB/2lw7WHfFVF5OH6k8Il/aHQvh4TS7tSz+GUWvqolWcbWA7jwIV+y3XZtm8cQQq9AAhWwQAAhAACEAJZm7mfKolUxF409saeybXP3V6+BJDhPiGjQoY8xDgNvRDQddn3aozgsFUrS0aVOUpb1FbPF7EubJTk/MWbs61SMV7kFpS6yepPzJvg8JClDQpwjCK+zFW6vi+ZsjSFZ7G+c1PAd1n49sxXYQhdHE9uW9R7C5oYWFr03N+9OTf4VaPodSlkyhHu4elHmqcU/oboLjYTG+UAbksfMxonneTvKwjBLYkvBCdNPak/FJmYJaqFc6vkXDz72HpPmoJP95azjY3MjDy7kp0nuSelHqpa/UlQIXwIb/M0KzCnI8LyPPUcDgqvylmjiKV3GKqx4wu5W5w2+VzgF3nGyzm/RxCblHRqbqkdUuu6S8fQoxrP0wzuPfvxTaWto5RxvHuO1Niqk2sl5Rnh6sasLaS1NPY4vbFm1lvINXDS7S0qbfZqR7r5Pg+T6XOULCHQ3UOBCeAsjMqKOaeBVwZJylDEU1Ug+UovbGW+L/rgdAqXNzLEsNWUtbpysqkOMeK+8tq6reWpRqqcVKLTjJJxktjTV00PJWY8ZuOYz7rJ2hJf20TDynLtu5r2ABaVBAACEOblvB+2w9Wna7cXo/Gu1H1SOkDxzQ4EHSumPLHBzcwa8FSAO9nhkz2OJk0v2dS84+LeuPRvykjh6JmXtLHFp0LcworYrA9uRFfuw4bQsQZ6J8sc1UixBlYkOZ+RPb1NOavSg1qeyU9qj4b30W87hsMRwa3MqKNGbCYXvyC6uZ2bSSjXrR7W2lB7lunJceC3bdtrTcA0MGC2E261Y2ZmXzES+/cNAGpAASqugABCAAEIAAQgABC8a9GM4uE4qUWrSi1dNc0V1nRmw6DdSld0W9e9wb3N748H0fF2WedSmpJppNNNNPWmntTRBHl2xm0Oegq3Jzj5Z9W4jSNfY+qpMnOYGVbp4eb2XlTfL7Uem1eL4HHzqyC8PU0oXdCb7L26Mtui3u5Ph4HIwWJlSqQqQ70JKS522rwauuolY90vFx0Z7P4xC08ZkOdl6N04j0OjngVcwPDDV4zhGcXeMoqUfBq57mhzyWNIIwKAAEIAAQuLnRgYVcNPTdtBOcZcHFN+TV0VfYsbPjE6GF0FtqTUflXaf0S6le2EVpOHigDVitNY4cIBJOBJp99V52Fj0sLC+8m1V8pUnJqMVdtpRXFt2S8y18jYBUKMKa3LtPjN95+foQrMfA6eI02uzTjf55XUf5n0RYo5syFRpiHTgNmnnhuWdtmYq4QRkMTtOXLqgAGiSoAcnLmWIYanpPtTfchvb4vglvZy97WNLnGgC7Yxz3BrRUlbmOxtOjBzqTUI8XvfBLa3yREcpZ7O7WHpq3/Mqa30gtnV9CNZQx9SvPTqS0nuWxRXCK3I1rCSPaT3GkPAc/j7itFK2TChisX8jy+d/BbuJy3iZ97ET8Iy0F+6rI0pVZPbKT8WxYWKDojnZmvEpq1rWCjQBsAHRelLG1Y92rUj8M5L6M6WDzoxVP8AxXNe7USl6971OTYWPWxnt8pIXL4bH+ZoO0KcZMz1hKyrQcH70buPWO1dLknw+IhUipQnGUXslFprzRUFjbyZlKrh56VOdvei9cZfFHf47S/AtJzcImI59jwSqZsiG7GF+J1aO457FbYONkLLlPExsuzUS7VNv1i96+h2RyyI2I2801Cz8SG+G4teKELUyhg4VqUqU1eMlbmnua5p6yqMoYKVGrOlPbF2vua3SXJqzLiIln1k7SpxrRXah2Zc4N6n0k/xMpWhAvw74zHT4zTOyZow4nhnJ3X5y4L1zDxenhnBvXTm0vgl2l66S6EoK+zAraOInDdODfzRkrejkWCSyL70Bvphw+KKC04dyZd648c+dUABbVBADzqTSTbaSWtt6kl4ghQnP+terTh7tNy6ylb+ReZFbHXzmxUauKqSjJShaKjJbGlFXt1ucuxlZqIHxnuGvph7LYSbLkBjfQc8fdYWFjOx9sV6qyp5mNhdHDOe+c2/lj2UvNSfUkho5HpaGHpR3qnG/i4pv1ubxrJdlyE1uoBY2ZieJGe7WT8IACZQLXxuJjSpyqTdoxV3+i5vYVblPHTr1ZTntexboxWxLkv1ZKc/MdqhQT+/P1UV/E+iIfYQWlMF0TwxkOvx3WjsqXDIfinN3T5z4LCxv5LyLWxD7EOzvqS1RXXe+SudLNnIPt5adRNUovXuc5e6nuXF9PCfUaajFRjFRilZRSskuCR5JyBii+/BvM/C9nbSEE3IeLtOodz00qLYTMiFv2labfCCUV63ubMszcNb/EXPSX5xJKBsJKABS4OvVJ3T8yTW+enRQzGZkLbSreEai/mjs8iN5SyRWoO1Sm0t01ri/CS+j1lrnlVpqScZRUotWcWrprmmQRrMhPH4YHlw7UViDa0Zh/P8hwPHuqgsLEpzlza9mnVopun9uG1x5rjH6eGyM2EkaE6C66/+fVP4MdkZl9hw+4FKFWUJKcJNSi7xktqZZGbuWFiKd3ZVI6qkfpJcn6bCt7G5knHSoVY1I7u9H3oPbH+t6RLJzZgPqfKc+/3NQT0oJhn/ACGXbYeWetWqeOIoqcJQkrxlFxkuTVmMPWjOMZxd4yScXyauexpsCsniCq3zfpOjlCMJbYznB8+zKN/DYyyCKZQyXP8A1jSqwg3GTjKcktScbp3e7Uo+NyVlGQhGEHsOhxpsoKcqJjaMYRiyINLRXbU151QA1cfi40acqk3qW7e3uS5svEhoqckvAJNAvPKeUadCGnN/DFbZPgkQDK+Watd63owv2aa2Lx95836HnlPHzr1HOb+GO6MeCNaxmZyfdHJa3BvXb2445aWTkmwBeOLterZ34YZ+VhY9bCxQqr9V5WDWpnrY+NbTl7vxK9acQrZhCyS4KxkYwndJ8VcyNwc1iUAAIVaZy1tPF1XuUtFfKlH6pmhhqDnOMI96UlFeLdjbyuv+Irf92p/GzdzRoaWKi/dUpfht+ZkrpjTF3W73x5VWuviDAqP1b0GHspzgsLGlTjTiuzFWX5t827vqbIBrAABQLJEkmpQAHq8QAAhfGiuc5clf6PW7K/Zzu48uMemro0WOcbOnB+0w0tXah214LvfhbKNoQPFgnWMR7jeOdFes+OYUYDQ7A+3Doq5sLHrYWMvVaeqmOZGO0qcqTeuDvH4ZPWuj/iRKSus1cR7PFQ4SvB/MtX4lEsU01mRfEgAH9cO3LBZq04QZHJH7Y9++9AAMEvQgWdWUva1dCL/Z020uc9kpfkuvElmW8U6VCc13rWi+EpOyfS9+hXdhHbEyWgQRpxOzRzFd3qm9lwASYp0YD3WFj5YzsLCCqd1WFhYzsLBVFVhY+2MrCwVRVWPkarp4elL7iT8YrRfqmb5GszcTelKm9sZXXwy/9r1JKbOVi+LBa/WBx081lJmH4cVzfXrigALCgVcZx0NDFVVxlpL51pfVs2M0qujiY3+1GUetr/kdbPHA3UaqXd7Mvhb7L6NtfMiLUZuMoyi7Si00+ad0ZSYrKzl7Ub20E/yNy00FwmJamsUO2n8HeFaQNPJ2MjWpxqR37Vwe9M3DUtcHAOGRWac0tNDmgAOl4gABCHhiYaVOcXscZJ9U0e54YqejTlJ7oyfkmzw0pivRWooquSFjNI+WMI04BbInFZ4Opo1IS92cX5STLTKqa1Fqj+xHVEQf9edewSW1x5Dt9kAA9SZeVWmpRcZJOLVmnsaITlzIkqLco3lSe/a48pcuf9OdmEopqzV09qfApzcmyZbR2BGR1dx6e6sy0y6A6oy0j7p9VV9hYleVc2r3lR1caber5Xu6kaq0ZQk4yi4yW1WszKzMtFl3UeNh0Hf3WggzMOMKsO7SF42FjOwsVqqaqwsLGdhYKoqt3ImN9jWjL7Pdn8L2+Wp9CwisLEtzXynpR9lN9qK7L4wW7xX08B5Y82A4wXacRt1bxl6g6SlVpS94CKNGezXu6bFIwAaNJV5VKSknGSvFppp709qILlvI8qMrq7pN6nw+7Ln9SfnnVpqScZJOL1NPWmvApTkmyZZQ4EZHV8KzKzToDqjEHMKvcl5SnQnpQ1p96D2SX5PmTHAZbpVUu3oy92ep35PY+hzsfmunroy0fuSu10e1dbnGrZDrx20ZPnG0voJ4ZnZH8bl5u8jcRiN414VxTN4lpvG9R3A7wc93FT81MZjqdJXqTUeW9+CWtkIp5Or7I0ay6SS9dRv4HNipJ3qNU471qlJ+Wpf1qLrbRmIuEOAa+pNOg6j0VZ0lBh4viYbMep6KU4PFwqw04O8b22W1rdZm0a2CwkaUFCCtFdXfe2+JsjWHeui/SummVfRLn3bxu5aEOTnJiNDDzttlaC+bb+HSOsQ3OzG6dRU0+zDb8b2+S1dWVbRj+DLuOk4Dae2asSULxIw1DE7lHrCxnYWMbVaWq+InWRcrKvHWlGce9Hl7y5fT6waxsYLEypVI1I7U9nFb78mXZGdMtEr+pz77Rzx9KVZuXEdlNIy++qsgHjQrKcIzjskk14M9jYg1xCzWWaAA9QhrYnCwqK04KS5rZ4Pauhsg8IBFDkvQSDUKOYrNeD105uPJrS9dT+pycfkKpSi5txlFWu4t3V97TROTzq01JOLV01ZrkxbGsmXeCWi6fTLhkrkOfjN8xqPunNVvoixvZVye6NRxeuO2EuK/VGpYyMRrobixwoRgfv2uYwT1rw4BzcisLH2nJxalF2kndNbmZWFjmpXSmWRcqqtGzsqiXajx5rly3HXK3hJxaabTWtNammSfJmX1K0a3Zlunufjwfp4Gns+1mxAGRjR2vQduo8ATlnRJZqRLfyh5atXwpCDGLvrWtbmZDxLUAAIQAAhADmZUyrCird6pugvq+CI4sVkJpe80A+/da6YxzzdaKlfMtZSVGGrvy1QX8z5Ig7163re9vie+KxEqk3ObvJ+i4JbkedjGz86ZqJXJoyHufUrQSsuIDKaTmsLCxnYWKVVaqsLCxnY3cBkmrVtoxtH33qXTj0OoTXxXXYYqfT71XL3tYKuNAu7mnXvRcH9iWr4Za/rpHfOfkvJ0aMWotuTtpSe+3LctbOgbeShvhwGMiZgU7cBRZuYe18Vzm5H78oAC0oUAAIQAAhaOUsDGtDReprXGXB/oQrEYeUJOMlaS2r+txYZC8u1tPET4Lsr5dvqZ63oMMMbF/atNu3ZoO7Yzs6I6pZoz+7VzLCxnYWMxVNqrAWM7CwVRVbOCyjUpdybt7r1x8t3Q7WFzki9VSDT4x1+j1r1I5YWLsvaUxAwY7DUcR8biFXiy8OJi4Y68iprSytRlsqxXj2f4rGzGvF7JxfhJEBsfdEZN/qGIB+TAd5HWvVVTZrNDjyPZTyeIgts4LxkkaeJy1Rh9u74RV/XYQ/RPljx/9QRSPwYBtJPZDbOhjNxPJdnHZwzlqpr2a47ZfojiS1u7u29rfHxMrCwomJqJHdeiOr0GwZd9NVehw2QxRgosLCxnYWIKqSqwsSLIWSIuGnVjfS7sXw49foa+Q8lab05r9mnqXvPh4f8AwlporHs4O/zxRh+oOn12ateepLJ2bp/jYcdPbvwWrSwNOOuNOCfHRV/M2gDStAaKBKiScygAPV4gABCAAEIAAQhA8Q7zk+MpPzuTwgtaFpSXCTRnP6iJuQ9p9vaqZWdm7cvAGdhYy1UzqsAZ2FgqiqwBnYWAOqiqwFjOwsFUVWJ8M7CwVRVYAzsLBVFVhY7OSsiudp1FaO6O+XjyOTok7pxskuCS8kOrFk4czEcYgqG0w0Gtc9eWWWuqpTsd0NoDdPwkYJJJKyWxIzANkk6AAEIAAQgABCAAEIAAQhEMsUdGtNce0vm1/W5LzQxmTYVWpSbutXQWWtJPmoIazMEHHeD1VmVjCE6pyUUsLEljkSlv0n4tfobNLJ1OOymr8Xr+ogh/09Mk/k5oG0k8KDqrrp6GMgSoxhcFUqd2La97YjuYDI0YWc+3Lh9ldN/U64HcpYsvAIc783euW4d60VSLORH4DAfdK1cRgqc+9BN+XqjRq5BpvuuUfJo7AL0aTl4xrEYCddMeOfNQMjRGeVxUfnm891VdY2/Mw/2fl78PJkjBSNhyR/Q/+nd1MJ2Nr5BQzG4OVKWjLhdNbGeFiZYvDRqR0ZLwfBkaxuTp0nrV47p7uvAz1p2U+XJfDFYfNvofT14453peaETB2fXZ2WlYWMrCwlvDNWqrbyPhtOtHgu0/BbPUlpzcj4P2cLtdqW3ktyOkb2yJQy8uA7zOxPpqG4cyUmmoviPwyGCAAaKsgABCAAEIAAQgABCAAEIAAQgABCAAEIAAQgABCAAELn4jJdOWvR0Xxjq9DyweR4wnpOWlbWtVtfF69YBWNmSjn+KYYvA11Y45gYHLTVSiPEo5tcF1QAWVEgABCAAEIAAQv//Z;" vertex="1" parent="1">
          <mxGeometry x="1014.6899999999999" y="485.38" width="19.21" height="20" as="geometry" />
        </mxCell>
        <mxCell id="2PFUA68c3KtspT4KJn6I-97" value="Experiments &amp;amp; Tracking" style="text;html=1;strokeColor=none;fillColor=none;align=center;verticalAlign=middle;whiteSpace=wrap;rounded=0;" vertex="1" parent="1">
          <mxGeometry x="408.9" y="40" width="165" height="30" as="geometry" />
        </mxCell>
        <mxCell id="2PFUA68c3KtspT4KJn6I-99" value="Model serving" style="text;html=1;strokeColor=none;fillColor=none;align=center;verticalAlign=middle;whiteSpace=wrap;rounded=0;" vertex="1" parent="1">
          <mxGeometry x="638.9" y="40" width="165" height="30" as="geometry" />
        </mxCell>
        <mxCell id="2PFUA68c3KtspT4KJn6I-100" value="Model monitoring" style="text;html=1;strokeColor=none;fillColor=none;align=center;verticalAlign=middle;whiteSpace=wrap;rounded=0;" vertex="1" parent="1">
          <mxGeometry x="863.9" y="40" width="165" height="30" as="geometry" />
        </mxCell>
        <mxCell id="2PFUA68c3KtspT4KJn6I-102" style="edgeStyle=orthogonalEdgeStyle;rounded=0;orthogonalLoop=1;jettySize=auto;html=1;exitX=0.5;exitY=0;exitDx=0;exitDy=0;exitPerimeter=0;entryX=0.5;entryY=1;entryDx=0;entryDy=0;" edge="1" parent="1" source="2PFUA68c3KtspT4KJn6I-106" target="2PFUA68c3KtspT4KJn6I-92">
          <mxGeometry relative="1" as="geometry">
            <mxPoint x="958.9000000000001" y="710" as="sourcePoint" />
          </mxGeometry>
        </mxCell>
        <mxCell id="2PFUA68c3KtspT4KJn6I-107" value="" style="edgeStyle=orthogonalEdgeStyle;rounded=0;orthogonalLoop=1;jettySize=auto;html=1;" edge="1" parent="1" target="2PFUA68c3KtspT4KJn6I-92">
          <mxGeometry relative="1" as="geometry">
            <mxPoint x="959" y="680" as="sourcePoint" />
          </mxGeometry>
        </mxCell>
        <mxCell id="2PFUA68c3KtspT4KJn6I-108" value="" style="edgeStyle=orthogonalEdgeStyle;rounded=0;orthogonalLoop=1;jettySize=auto;html=1;exitX=0.5;exitY=0;exitDx=0;exitDy=0;exitPerimeter=0;entryX=0.5;entryY=1;entryDx=0;entryDy=0;" edge="1" parent="1" target="2PFUA68c3KtspT4KJn6I-106">
          <mxGeometry relative="1" as="geometry">
            <mxPoint x="958.9000000000001" y="710" as="sourcePoint" />
            <mxPoint x="959" y="625" as="targetPoint" />
          </mxGeometry>
        </mxCell>
        <mxCell id="2PFUA68c3KtspT4KJn6I-106" value="" style="shape=image;verticalLabelPosition=bottom;labelBackgroundColor=default;verticalAlign=top;aspect=fixed;imageAspect=0;image=data:image/jpeg,/9j/4AAQSkZJRgABAQAAAQABAAD/2wCEAAkGBwgHBhMIBwgWFQkXGBkbGBgYGR4WFRseHxgXHxgeGxUeHSgiHR4tHx4dITEhJS0rLi4uHR8zODMtNygtLi0BCgoKBQUFDgUFDisZExkrKysrKysrKysrKysrKysrKysrKysrKysrKysrKysrKysrKysrKysrKysrKysrKysrK//AABEIAMgA+gMBIgACEQEDEQH/xAAcAAEAAgIDAQAAAAAAAAAAAAAABwgFBgIDBAH/xABBEAACAQIDBAUIBwUJAAAAAAAAAQIDBQQGEQcSITEiQVFhkRMyYnGBobHRCBcjQlNUkxQkUsHhJTNDgoOSotLw/8QAFAEBAAAAAAAAAAAAAAAAAAAAAP/EABQRAQAAAAAAAAAAAAAAAAAAAAD/2gAMAwEAAhEDEQA/AJxAAAAAAAAAAAAAAAAAAAAAAAAAAAAAAAAAAAAAAAAAAAAAAAAAAAAAAAAAAAAAAAAAAAAAAAAAAAAAAAAAAAAAAAAAAAAAAAAAAAAAAAAAAAAAAAAAAAAAAAAAAAAAAAAAAAAAAAAAAAAAAAANBzvtSsuVm8LTfl7iv8OD4Rfpz6vVzNf2x7Rqlp1y/Yqn7/JfaTXOCf3Y+k/cYvZvsiWJpxu+botuXSjRber1471R8+PZ4gYKttF2g5qrOnYaEo09eVCnvaeuo9f5H1Zf2uVl5V1cTr310n4b5YbB4PD4HDrD4OhGFFcoxSjFexHoArdPMW1LKn2lwjXdFfiwVWH+9cvE3TJ+2u33GpHC5hoKhXeiVSLbpN9/XH3olqUYzjuyXR8URvn3ZNab/Sli7RTjQuXF8OFOb7JJcvWgJGpVadamqlKacGtU09Vp2pnaV32dZ1uOSb28t5mUlgd7de9zpN8mvRf9SwsJxnHei9YvwA5gAAAAAAAAAAAAAAAAAAAAAAAAAAAABhc4XuGXct17rU504txXbJ8IrxaM0RL9IvHzoZWoYOL4VKur9UI6/FoDUdjWW55qzLVzFeFv0qct7pcVOrLite5c/AsQaNsZt0bfs+wziunUUqj795vT3JG8gAAAAAET7d8oU7lZHfsJT/faPn6c5U+vXvjz9Wp7NhmZpXvK7wGKnrisO1HvcH5j9nFewkTG4anjcHPC1lrTnGUX6mtGV82GV52zaJWtbfRlCpB+unLVfBgWLAAAAAAAAAAAAAAAAAAAAAAAAAAAAACGfpJUZStWDrJdFVJp+txWnwJmNE2zWSV6yLVVGOtelpViuvSPnf8AFsDI7L68a+QMFOL4eSjH2x1T+BtREH0eswwxVkqWKrP7elJyiu2EuenqfxJfAAAAAAPjaS1fIrlso/fNsNTE0/7vXES9jbS+KJm2j5gp5bylXxrl9s4uFNdbnJaLw5+wjX6Odmm54m+Vo9HRUoPteu9N/ACcgAAAAAAAAAAAAAAAAAAAAAAAAAAAAA4ThGpBxmtYtNPs0ZzAFas32i47L87xu9pi/wBhlJypv7uj8+nL/wBy0J0ydmu25stixlvqdNab8G+nB9jX8z3X6y4DMFslb7pQUsPLxT6mn1NEB3/Ieatn9yd1y3XnPCLlOnxml2VKfWvFAWPBBWX9u9SnFUcxWvemuc6T0ftpv5m109tuUJw1lKspdnk9X7mBJR5LlcMJbMHLGY+vGGHitZSlwSRE962822lBxs1rqTqdTqNQj4LVmkbmedq2OXlE1gU+vWGHh/2fiwOeb77ctqebadrs9NrBRbVNPlp96pPs4e4sBlix4XLljpWrBroQSTfXJ9cn62YrIeRrbk7A+Twy3sZJLylV+dJ9i7I9xtgAAAAAAAAAAAAAAAAAAAAAAAAAAAAAABrOc862jJ+C8tcautdroUo8Zy+S72Qtjdoees6Yt4XLlCdOl/DRWskvSqvl7gLHNpc2fHOL4byK5w2XbQ7gvLYvFaTf4lduXu1Pv1PZ6/PU/wBaXyAmi85Jyve5OdxtNKVR/eXRn4x0NdnsZyXKW8qFRLs8q9COfqez1+ep/rS+Q+p7PX56n+tL5AS1a9muTrXNVKFohKouTqN1PdJ6G20o0aNNU6SUYLqWiS9hXj6ns9fnqf60vkPqez1+ep/rS+QFi1KL5M5Fcnskz5RW/Sxkd7uryTOiV22l5DmpY91XhV+J9tSf+fjp4oCygI62f7VLbmqSwWMiqFz/AIW+hN+g+3uZIoAAAAAAAAAAAAAAAAAAAAAAAAAwecMw4fK9gqXTE8d1aRj1yk/NijOECfSIu9XE3jDWKg+jGO/JdspvSPuXvAweUMt3TajmWpdr1Vl+xJ/aS7eynDs4eBYez2jAWTAxwVrw0adBdUVp7W+t97PBkmw0ct5ZoW2nHpRinN9s3xk37TPgAAAAAAAADqrUqdek6VaClBrimtU13o7QBA21jZpG003mLLFNxpRe9Upx+56cOxdq6jc9j2d5Zqs7wlwn/adHTefXOPVP19T/AKkhVqVOvSdKrDWDTTT4pp80VutUJZA2y/skHphXV3P9Op5vhqvACyoAAAAAAAAAAAAAAAAAAAAAAABBefMp3u6bXKWLpW+csC5UHv6awUYab2r6uTJ0AAAAAAAAAAAAAAAIN2t5TvVx2g4fH2u3znRlGkt6K1inGXHefVw0JyAHGGu50uZyAAAAAAAAAAAAAAAAAAAAAAAAAAAAAAAAAAAAAAAAAAAAAAAAAAAAAAAAAAAAAAAAAAAAAAAAAAAAAAAAAAAAAAAAAAAAAAAAAAAAAAAAAAAAAAAAAAAAAAAAAAAAAAAAAAAAAAAAAAAAD//Z;" vertex="1" parent="1">
          <mxGeometry x="927.65" y="690" width="62.5" height="50" as="geometry" />
        </mxCell>
      </root>
    </mxGraphModel>
  </diagram>
</mxfile>
